<?xml version="1.0" encoding="UTF-8"?>
<svg id="wordmark" xmlns="http://www.w3.org/2000/svg" viewBox="0 0 160.7202 46.17423">
  <path d="M24.99099,14.58682c-1.07212-.53577-2.23214-.79631-3.54663-.79631h-7.65382v18.66349h2.53302v-5.18075h5.1208c1.33611,0,2.50968-.24843,3.48755-.7378,1.07846-.53894,2.01426-1.38914,2.70623-2.45838,.64702-.99978,.98911-2.21571,.98911-3.5158,0-1.39779-.32509-2.55031-.98508-3.50946-.6744-1.10353-1.5416-1.90993-2.65119-2.46501Zm1.04445,5.91567c0,.83925-.22105,1.59636-.66258,2.25894-.44585,.72483-1.00151,1.2119-1.77562,1.54506-.51156,.28417-1.25628,.43403-2.15288,.43403h-5.1208v-8.41699h5.1208c.80294,0,1.53843,.13142,2.17997,.38821,.69457,.29771,1.25196,.78708,1.74853,1.5318,.4519,.73434,.66258,1.45226,.66258,2.25894Z"/>
  <path d="M41.67567,14.3064l-.01182-.00721c-2.03414-1.14417-4.4954-1.14417-6.52954,0-.98364,.55335-1.79291,1.36205-2.40823,2.40852-.57208,1.01678-.86231,2.11541-.86231,3.26506v6.2399c0,1.14993,.29022,2.24799,.86202,3.26477,.55249,.98277,1.36119,1.79263,2.40852,2.40881,1.01707,.57237,2.1157,.86231,3.26477,.86231s2.2477-.28993,3.26477-.86231c.98393-.55393,1.79349-1.36263,2.40881-2.40881,.5718-1.01678,.86173-2.11541,.86173-3.26477v-6.2399c0-1.14936-.28993-2.24799-.86893-3.27688-.60984-.97586-1.41393-1.77966-2.38978-2.3895Zm-.1833,3.07283l-7.21345,8.73199v-6.07966c0-.76345,.18762-1.46206,.54269-2.01973,.38677-.60782,.89113-1.11218,1.48915-1.49318,.65019-.37928,1.29432-.54845,2.08832-.54845,.71186,0,1.37733,.16629,1.97621,.49283,.42395,.23546,.80639,.5496,1.11708,.9162Zm.96808,2.7584v6.07504c0,.79659-.17235,1.43814-.54269,2.01973-.38677,.60811-.89113,1.11247-1.48915,1.49347-.64125,.37409-1.28596,.54816-2.02953,.54816-.71215,0-1.37733-.16601-1.97592-.49283-.42424-.23575-.80697-.54989-1.11794-.91649l7.15523-8.72709Z"/>
  <polygon points="81.57977 13.78936 79.05309 13.78936 79.05309 32.39463 93.4333 32.39463 93.4333 29.86824 81.57977 29.86824 81.57977 13.78936"/>
  <polygon points="65.26255 13.79051 62.02487 13.79051 56.47349 21.01895 50.88407 13.79051 47.77464 13.79051 54.86358 23.09286 47.77464 32.39521 50.88435 32.39521 56.47349 25.16649 62.02487 32.39521 65.26255 32.39521 58.08109 23.09286 65.26255 13.79051"/>
  <path d="M126.78883,22.68505c.32913-.29714,.61618-.64385,.87095-1.05223,.49629-.80639,.7476-1.68772,.7476-2.61919,0-1.00929-.25131-1.9301-.7476-2.73678-.49398-.80265-1.18394-1.43208-2.11484-1.92837-.74184-.37092-1.73383-.55912-2.94832-.55912h-7.63048v18.60527h7.92387c.80178,0,1.45773-.06225,1.94941-.18445,.42193-.10606,.89055-.26918,1.41739-.49629,.78737-.42308,1.4756-1.08883,1.98976-1.92462,.49629-.80639,.74818-1.72749,.74818-2.73621,0-1.13783-.32567-2.13559-.98508-3.03421-.35507-.55796-.74933-.9894-1.22083-1.33381Zm-.43403,2.81806c.29512,.44268,.42135,.90496,.42135,1.54477,0,.513-.14987,1.05425-.43403,1.56495-.24382,.44038-.59024,.76835-1.11131,1.05771-.20001,.10029-.40521,.15332-.68247,.20866-.32913,.05476-.7868,.05476-1.36551,.05476h-5.47875v-5.71393h5.83266c.84098,0,1.36205,.14698,1.64737,.26918,.47265,.20981,.89747,.57698,1.17068,1.0139Zm-.57929-5.1136c-.32452,.43231-.7061,.75999-1.13379,.97384l-.01441,.00778c-.35449,.2029-.95107,.31443-1.68023,.31443h-5.243v-5.41909h4.83087c1.21852,0,1.76669,.11672,2.00129,.2101,.46458,.20635,.83925,.51387,1.17991,.96808,.29281,.39023,.41213,.83377,.41213,1.53151,0,.56978-.11989,1.03869-.35276,1.41335Z"/>
  <path d="M146.92965,20.66705v-.82023c0-1.28913-.33143-2.42495-.97816-3.36535-.64558-1.0335-1.51422-1.79781-2.56213-2.26326-.97989-.51848-2.17767-.79256-3.46421-.79256-1.21046,0-2.3673,.22336-3.43769,.66402-.98911,.40723-1.82145,1.06895-2.41169,1.92174-.56488,.87902-.86346,1.88226-.86346,2.90192,0,1.09258,.30838,1.99408,.94185,2.75379,.562,.68765,1.37243,1.24302,2.33618,1.60414,.79717,.31904,1.8739,.61157,3.49649,.94934,1.33035,.25362,2.22839,.47727,2.77079,.69284,.46977,.14122,.84559,.37063,1.21795,.74299,.26342,.26284,.38043,.6842,.38043,1.36666,0,.96721-.36948,1.68887-1.16319,2.27047-.83348,.61157-1.94307,.93493-3.20944,.93493-1.12803,0-2.04279-.18445-2.72641-.5522-.77123-.38562-1.30672-.86807-1.68599-1.51826-.39887-.68362-.60119-1.45831-.60119-2.30217v-.82023h-2.39901v.82023c0,1.32977,.29973,2.48604,.91591,3.53395,.59197,1.00641,1.46984,1.80646,2.69528,2.45088,1.20066,.56834,2.46299,.84501,3.8602,.84501,1.24446,0,2.33099-.19828,3.32126-.6058,1.03119-.42481,1.8935-1.04157,2.5702-1.84104,.67036-.85308,.99603-1.886,.99603-3.15756,0-1.23236-.3176-2.23819-.95165-2.99847-.6133-.67526-1.35974-1.17299-2.23185-1.48425-.97643-.30031-2.04452-.57727-3.17255-.82282-1.19547-.27178-2.2428-.51588-2.93968-.7476-.64615-.23517-1.11247-.51012-1.46753-.8649-.28705-.28734-.43865-.73982-.43865-1.30844,0-.70322,.16255-1.21622,.5107-1.61423,.38792-.44326,.93897-.81706,1.505-1.02312,.80524-.26803,1.49866-.39311,2.1817-.39311,.85769,0,1.68138,.17552,2.31831,.49398,.64961,.32452,1.19432,.81273,1.57532,1.41162,.39484,.62108,.59543,1.33323,.59543,2.11686v.82023h2.51544Z"/>
  <path d="M102.62296,13.78936l-7.69677,18.60527h2.57596l2.34713-5.69202h7.58494l2.34771,5.69202h2.57251l-7.57572-18.60527h-2.15576Zm3.91726,10.37072h-5.48336l2.74139-6.70246,2.74197,6.70246Z"/>
</svg>