<?xml version="1.0" encoding="UTF-8"?>
<svg xmlns="http://www.w3.org/2000/svg" xmlns:xlink="http://www.w3.org/1999/xlink" viewBox="0 0 160.21234 113.6612">
  <defs>
    <style>
      .cls-1 {
        fill: url(#linear-gradient);
      }

      .cls-2 {
        fill: #fff;
      }

      .cls-3 {
        fill: url(#linear-gradient-8);
      }

      .cls-4 {
        fill: url(#linear-gradient-9);
      }

      .cls-5 {
        fill: url(#linear-gradient-3);
      }

      .cls-6 {
        fill: url(#linear-gradient-4);
      }

      .cls-7 {
        fill: url(#linear-gradient-2);
      }

      .cls-8 {
        fill: url(#linear-gradient-6);
      }

      .cls-9 {
        fill: url(#linear-gradient-7);
      }

      .cls-10 {
        fill: url(#linear-gradient-5);
      }

      .cls-11 {
        fill: url(#linear-gradient-10);
      }

      .cls-12 {
        fill: url(#linear-gradient-11);
      }
    </style>
    <linearGradient id="linear-gradient" x1="61.15279" y1="16.08697" x2="73.78205" y2="26.45965" gradientUnits="userSpaceOnUse">
      <stop offset=".11558" stop-color="#09a8f9"/>
      <stop offset="1" stop-color="#6ba6ff"/>
    </linearGradient>
    <linearGradient id="linear-gradient-2" x1="64.00442" y1="10.99371" x2="56.37686" y2="30.46509" gradientUnits="userSpaceOnUse">
      <stop offset="0" stop-color="#20dff0"/>
      <stop offset="1" stop-color="#0078bb"/>
    </linearGradient>
    <linearGradient id="linear-gradient-3" x1="65.62282" y1="19.81674" x2="83.0248" y2="33.92899" gradientUnits="userSpaceOnUse">
      <stop offset=".07141" stop-color="#37a1f2"/>
      <stop offset=".70196" stop-color="#013cd6"/>
    </linearGradient>
    <linearGradient id="linear-gradient-4" x1="63.76706" y1="30.64356" x2="71.38816" y2="40.90318" gradientUnits="userSpaceOnUse">
      <stop offset="0" stop-color="#26abf5"/>
      <stop offset="1" stop-color="#1e7ed2"/>
    </linearGradient>
    <linearGradient id="linear-gradient-5" x1="66.37356" y1="35.86727" x2="77.95663" y2="47.39647" gradientUnits="userSpaceOnUse">
      <stop offset=".04594" stop-color="#2979ed"/>
      <stop offset=".88835" stop-color="#025193"/>
    </linearGradient>
    <linearGradient id="linear-gradient-6" x1="79.4324" y1="24.38902" x2="95.68668" y2="24.38902" gradientUnits="userSpaceOnUse">
      <stop offset="0" stop-color="#4183f7"/>
      <stop offset="1" stop-color="#2c5ce5"/>
    </linearGradient>
    <linearGradient id="linear-gradient-7" x1="79.4324" y1="24.43333" x2="112.52934" y2="24.43333" gradientUnits="userSpaceOnUse">
      <stop offset=".10977" stop-color="#4b75f9"/>
      <stop offset=".11437" stop-color="#4a73f8"/>
      <stop offset=".24903" stop-color="#3358e5"/>
      <stop offset=".39338" stop-color="#2242d6"/>
      <stop offset=".55255" stop-color="#1532cc"/>
      <stop offset=".73609" stop-color="#0e29c5"/>
      <stop offset="1" stop-color="#0c27c4"/>
    </linearGradient>
    <linearGradient id="linear-gradient-8" x1="62.34411" y1="63.88476" x2="76.86361" y2="39.33105" gradientUnits="userSpaceOnUse">
      <stop offset=".02245" stop-color="#1162a2"/>
      <stop offset=".4724" stop-color="#3e8dcb"/>
      <stop offset=".98032" stop-color="#76c3ff"/>
    </linearGradient>
    <linearGradient id="linear-gradient-9" x1="87.14503" y1="23.9834" x2="98.31467" y2="25.11441" gradientUnits="userSpaceOnUse">
      <stop offset=".16168" stop-color="#2237f4"/>
      <stop offset=".87397" stop-color="#0024a5"/>
    </linearGradient>
    <linearGradient id="linear-gradient-10" x1="103.61539" y1="34.24028" x2="103.07672" y2="51.50076" gradientUnits="userSpaceOnUse">
      <stop offset="0" stop-color="#1640e5"/>
      <stop offset="1" stop-color="#24bdd7"/>
    </linearGradient>
    <linearGradient id="linear-gradient-11" x1="103.61726" y1="18.88503" x2="103.70491" y2="42.75007" gradientUnits="userSpaceOnUse">
      <stop offset=".19242" stop-color="#2231dd"/>
      <stop offset="1" stop-color="#73c3ff"/>
    </linearGradient>
  </defs>
  <g id="wordmark">
    <g id="white">
      <path class="cls-2" d="M26.96691,80.3436c-1.02894-.51419-2.14225-.76424-3.4038-.76424h-7.34558v17.91186h2.43101v-4.97211h4.91457c1.2823,0,2.40861-.23842,3.3471-.70809,1.03503-.51724,1.93313-1.33319,2.59724-2.35936,.62096-.95952,.94928-2.12648,.94928-3.3742,0-1.3415-.31201-2.44762-.94541-3.36813-.64723-1.0591-1.47952-1.83302-2.54441-2.36574Zm1.00239,5.67743c0,.80545-.21215,1.53207-.6359,2.16797-.42789,.69564-.96118,1.16309-1.70411,1.48284-.49096,.27273-1.20569,.41656-2.06618,.41656h-4.91457v-8.078h4.91457c.77059,0,1.47647,.12612,2.09218,.37257,.6666,.28572,1.20154,.75539,1.67811,1.47012,.4337,.70476,.6359,1.39376,.6359,2.16795Z"/>
      <path class="cls-2" d="M42.97966,80.07447l-.01135-.00691c-1.95222-1.09809-4.31436-1.09809-6.26658,0-.94403,.53107-1.72071,1.3072-2.31124,2.31153-.54904,.97583-.82757,2.03022-.82757,3.13357v5.9886c0,1.10362,.27853,2.15746,.8273,3.13329,.53024,.94319,1.30637,1.72044,2.31152,2.3118,.97611,.54932,2.03049,.82757,3.13329,.82757s2.15718-.27826,3.13329-.82757c.9443-.53162,1.72126-1.30776,2.3118-2.3118,.54877-.97583,.82702-2.03022,.82702-3.13329v-5.9886c0-1.10307-.27825-2.15746-.83394-3.1449-.58528-.93657-1.35699-1.70801-2.29354-2.29328Zm-.17592,2.94908l-6.92295,8.38033v-5.83481c0-.7327,.18006-1.40317,.52083-1.93839,.37119-.58334,.85523-1.06738,1.42918-1.43305,.624-.36401,1.24219-.52636,2.00423-.52636,.68319,0,1.32185,.15959,1.89662,.47298,.40686,.22598,.77391,.52746,1.07208,.8793Zm.92908,2.64731v5.83038c0,.76451-.16541,1.38022-.52083,1.93839-.37119,.58362-.85523,1.06766-1.42918,1.43332-.61543,.35903-1.23417,.52608-1.9478,.52608-.68347,0-1.32186-.15932-1.89635-.47298-.40715-.22625-.77447-.52774-1.07292-.87958l6.86708-8.37562Z"/>
      <polygon class="cls-2" points="81.2767 79.57825 78.85178 79.57825 78.85178 97.43424 92.65286 97.43424 92.65286 95.00959 81.2767 95.00959 81.2767 79.57825"/>
      <polygon class="cls-2" points="65.61662 79.57935 62.50933 79.57935 57.18152 86.51669 51.8172 79.57935 48.833 79.57935 55.63645 88.50707 48.833 97.43479 51.81747 97.43479 57.18152 90.49719 62.50933 97.43479 65.61662 97.43479 58.72438 88.50707 65.61662 79.57935"/>
      <path class="cls-2" d="M124.66508,88.11569c.31588-.28518,.59137-.61792,.83588-1.00985,.47629-.77392,.7175-1.61975,.7175-2.51372,0-.96863-.24121-1.85237-.7175-2.62656-.47409-.77033-1.13626-1.37441-2.02967-1.85071-.71196-.35598-1.66401-.5366-2.8296-.5366h-7.32318v17.85599h7.60476c.7695,0,1.39903-.05976,1.87091-.17703,.40493-.10179,.85468-.25834,1.36029-.47629,.75567-.40604,1.41617-1.04498,1.90963-1.84711,.47631-.77392,.71805-1.65792,.71805-2.62602,0-1.09201-.31255-2.04958-.94542-2.91201-.34076-.53548-.71915-.94955-1.17166-1.28008Zm-.41656,2.70456c.28323,.42485,.40439,.86852,.40439,1.48256,0,.49234-.14384,1.0118-.41656,1.50192-.234,.42263-.56647,.73741-1.06656,1.0151-.19196,.09626-.38889,.14715-.65498,.20025-.31586,.05256-.75511,.05256-1.31052,.05256h-5.25811v-5.48381h5.59776c.80713,0,1.3072,.14106,1.58103,.25834,.45362,.20136,.86133,.55374,1.12354,.97307Zm-.55596-4.90766c-.31145,.4149-.67766,.72938-1.08813,.93463l-.01384,.00745c-.34022,.19473-.91277,.30177-1.61255,.30177h-5.03185v-5.20085h4.63632c1.16945,0,1.69554,.11202,1.9207,.20164,.44587,.19805,.80545,.49318,1.13238,.92909,.28102,.37451,.39553,.80019,.39553,1.46984-.00001,.54684-.11507,.99687-.33856,1.35643Z"/>
      <path class="cls-2" d="M143.99478,86.17896v-.7872c0-1.23721-.31809-2.32728-.93877-3.22982-.61957-.99188-1.45324-1.72541-2.45895-2.17212-.94043-.4976-2.08996-.76064-3.32469-.76064-1.1617,0-2.27197,.21436-3.29925,.63728-.94927,.39083-1.74809,1.0259-2.31456,1.84436-.54213,.84362-.82869,1.80646-.82869,2.78505,0,1.04858,.29596,1.91377,.90392,2.64287,.53938,.65996,1.31716,1.19296,2.2421,1.53954,.76508,.30619,1.79843,.58693,3.35568,.91111,1.27678,.2434,2.13865,.45804,2.6592,.66494,.45085,.13553,.81154,.3557,1.16891,.71307,.2528,.25225,.36511,.65664,.36511,1.31162,0,.92826-.3546,1.62086-1.11635,2.17903-.79991,.58694-1.86482,.89728-3.08019,.89728-1.08259,0-1.96052-.17703-2.6166-.52996-.74018-.37009-1.25409-.83311-1.6181-1.45711-.3828-.65609-.57697-1.39958-.57697-2.20946v-.7872h-2.3024v.7872c0,1.27622,.28767,2.38593,.87904,3.39163,.56812,.96588,1.41064,1.73371,2.58672,2.35218,1.15231,.54545,2.36381,.81099,3.70474,.81099,1.19436,0,2.23712-.1903,3.1875-.5814,.98967-.4077,1.81725-.99961,2.4667-1.7669,.64337-.81873,.95592-1.81005,.95592-3.0304,0-1.18273-.30481-2.14805-.91332-2.87771-.5886-.64805-1.30498-1.12575-2.14197-1.42448-.9371-.28821-1.96217-.55402-3.04478-.78969-1.14732-.26082-2.15247-.4951-2.82128-.71749-.62014-.22571-1.06767-.48957-1.40843-.83007-.2755-.27577-.42099-.71003-.42099-1.25575,0-.6749,.15601-1.16724,.49013-1.54922,.3723-.42541,.90116-.78414,1.44439-.98191,.77281-.25723,1.4383-.37727,2.09384-.37727,.82315,0,1.61367,.16844,2.22495,.47409,.62345,.31145,1.14621,.78,1.51188,1.35477,.37894,.59607,.57145,1.27954,.57145,2.0316v.7872s2.41414,0,2.41414,0Z"/>
      <path class="cls-2" d="M101.47243,79.57825l-7.3868,17.85599h2.47223l2.2526-5.46278h7.27949l2.25315,5.46278h2.46891l-7.27063-17.85599h-2.06896Zm3.7595,9.95306h-5.26253l2.63098-6.43254,2.63155,6.43254Z"/>
    </g>
  </g>
  <g id="symbol">
    <g>
      <path class="cls-1" d="M63.64808,16.21756c-.1952,0-.38437,.04578-.55859,.12535v16.21756l16.34291-16.34291h-15.78432Z"/>
      <path class="cls-7" d="M62.69454,16.61253l-13.64386,13.64386c-.85028,.85026-.24809,2.30408,.95438,2.30408h13.08443V16.34291c-.14496,.06622-.2801,.15475-.39495,.26962Z"/>
      <polygon class="cls-5" points="79.4324 32.56047 79.4324 16.21756 63.08949 32.56047 63.08951 32.56047 79.4324 32.56047"/>
      <polygon class="cls-6" points="63.08949 32.56048 63.08949 48.90337 79.43238 32.56048 63.08949 32.56048"/>
      <path class="cls-10" d="M63.08949,48.90338h16.21756c.07955-.17416,.12531-.36325,.12533-.5584v-15.78451l-16.34289,16.34289v.00002Z"/>
      <path class="cls-8" d="M95.68668,16.3062c-.14933-.05569-.3075-.08863-.46995-.08863h-15.78432v16.34291l16.25427-16.25427Z"/>
      <path class="cls-9" d="M95.77531,16.34291c-.02924-.01334-.05852-.02548-.08863-.03671l-16.25427,16.25427h16.34291V16.34291Z"/>
      <path class="cls-3" d="M79.30706,48.90338h-16.21756v13.08731c0,1.20138,1.45252,1.80304,2.30204,.95354l13.64599-13.64599c.11482-.11483,.20333-.24994,.26954-.39486Z"/>
      <path class="cls-4" d="M87.60386,32.56047h8.17145V16.34291c-.01713-.00782-.0346-.01446-.05192-.0215l-8.11952,16.23906Z"/>
      <path class="cls-11" d="M95.77531,45.64997c0,1.20058,1.45156,1.80184,2.3005,.9529l13.08887-13.08887c.26331-.26331,.39497-.60842,.39497-.95354h-15.78434v13.08951Z"/>
      <path class="cls-12" d="M96.17028,16.61253c-.11487-.11487-.25001-.2034-.39497-.26962v16.21756h15.78434c0-.3451-.13166-.69022-.39497-.95354l-14.9944-14.9944Z"/>
    </g>
  </g>
</svg>