<?xml version="1.0" encoding="UTF-8"?>
<svg xmlns="http://www.w3.org/2000/svg" xmlns:xlink="http://www.w3.org/1999/xlink" viewBox="0 0 367.8523 101.44914">
  <defs>
    <style>
      .cls-1 {
        fill: url(#linear-gradient);
      }

      .cls-2 {
        fill: url(#linear-gradient-8);
      }

      .cls-3 {
        fill: url(#linear-gradient-9);
      }

      .cls-4 {
        fill: url(#linear-gradient-3);
      }

      .cls-5 {
        fill: url(#linear-gradient-4);
      }

      .cls-6 {
        fill: url(#linear-gradient-2);
      }

      .cls-7 {
        fill: url(#linear-gradient-6);
      }

      .cls-8 {
        fill: url(#linear-gradient-7);
      }

      .cls-9 {
        fill: url(#linear-gradient-5);
      }

      .cls-10 {
        fill: url(#linear-gradient-12);
      }

      .cls-11 {
        fill: url(#linear-gradient-10);
      }

      .cls-12 {
        fill: url(#linear-gradient-11);
      }
    </style>
    <linearGradient id="linear-gradient" x1="121.51095" y1="50.72457" x2="347.07833" y2="50.72457" gradientUnits="userSpaceOnUse">
      <stop offset="0" stop-color="#13b0d8"/>
      <stop offset="1" stop-color="#2b4dff"/>
    </linearGradient>
    <linearGradient id="linear-gradient-2" x1="36.66328" y1="82.70898" x2="52.71671" y2="69.52395" gradientTransform="translate(0 103.31697) scale(1 -1)" gradientUnits="userSpaceOnUse">
      <stop offset=".11558" stop-color="#09a8f9"/>
      <stop offset="1" stop-color="#6ba6ff"/>
    </linearGradient>
    <linearGradient id="linear-gradient-3" x1="40.28808" y1="89.18317" x2="30.59244" y2="64.43251" gradientTransform="translate(0 103.31697) scale(1 -1)" gradientUnits="userSpaceOnUse">
      <stop offset="0" stop-color="#20dff0"/>
      <stop offset="1" stop-color="#0078bb"/>
    </linearGradient>
    <linearGradient id="linear-gradient-4" x1="42.34527" y1="77.96795" x2="64.46546" y2="60.02944" gradientTransform="translate(0 103.31697) scale(1 -1)" gradientUnits="userSpaceOnUse">
      <stop offset=".07141" stop-color="#37a1f2"/>
      <stop offset=".70196" stop-color="#013cd6"/>
    </linearGradient>
    <linearGradient id="linear-gradient-5" x1="39.98635" y1="64.20566" x2="49.67376" y2="51.16434" gradientTransform="translate(0 103.31697) scale(1 -1)" gradientUnits="userSpaceOnUse">
      <stop offset="0" stop-color="#26abf5"/>
      <stop offset="1" stop-color="#1e7ed2"/>
    </linearGradient>
    <linearGradient id="linear-gradient-6" x1="43.29955" y1="57.56564" x2="58.02315" y2="42.91052" gradientTransform="translate(0 103.31697) scale(1 -1)" gradientUnits="userSpaceOnUse">
      <stop offset=".04594" stop-color="#2979ed"/>
      <stop offset=".88835" stop-color="#025193"/>
    </linearGradient>
    <linearGradient id="linear-gradient-7" x1="59.89905" y1="72.156" x2="80.56035" y2="72.156" gradientTransform="translate(0 103.31697) scale(1 -1)" gradientUnits="userSpaceOnUse">
      <stop offset="0" stop-color="#4183f7"/>
      <stop offset="1" stop-color="#2c5ce5"/>
    </linearGradient>
    <linearGradient id="linear-gradient-8" x1="59.89904" y1="72.09967" x2="101.96957" y2="72.09967" gradientTransform="translate(0 103.31697) scale(1 -1)" gradientUnits="userSpaceOnUse">
      <stop offset=".10977" stop-color="#4b75f9"/>
      <stop offset=".11437" stop-color="#4a74f8"/>
      <stop offset=".24903" stop-color="#3458e5"/>
      <stop offset=".39338" stop-color="#2242d7"/>
      <stop offset=".55255" stop-color="#1633cc"/>
      <stop offset=".73609" stop-color="#0e2ac6"/>
      <stop offset="1" stop-color="#0c27c4"/>
    </linearGradient>
    <linearGradient id="linear-gradient-9" x1="38.1776" y1="21.95175" x2="56.63378" y2="53.16272" gradientTransform="translate(0 103.31697) scale(1 -1)" gradientUnits="userSpaceOnUse">
      <stop offset=".02245" stop-color="#1162a2"/>
      <stop offset=".4724" stop-color="#3e8dcc"/>
      <stop offset=".98032" stop-color="#76c3ff"/>
    </linearGradient>
    <linearGradient id="linear-gradient-10" x1="69.7028" y1="72.67159" x2="83.90086" y2="71.23393" gradientTransform="translate(0 103.31697) scale(1 -1)" gradientUnits="userSpaceOnUse">
      <stop offset=".16168" stop-color="#2237f4"/>
      <stop offset=".87397" stop-color="#0024a5"/>
    </linearGradient>
    <linearGradient id="linear-gradient-11" x1="90.63877" y1="59.63376" x2="89.95407" y2="37.69344" gradientTransform="translate(0 103.31697) scale(1 -1)" gradientUnits="userSpaceOnUse">
      <stop offset="0" stop-color="#1640e5"/>
      <stop offset="1" stop-color="#24bdd7"/>
    </linearGradient>
    <linearGradient id="linear-gradient-12" x1="90.64114" y1="79.15227" x2="90.75257" y2="48.8167" gradientTransform="translate(0 103.31697) scale(1 -1)" gradientUnits="userSpaceOnUse">
      <stop offset=".19242" stop-color="#2231dd"/>
      <stop offset="1" stop-color="#73c3ff"/>
    </linearGradient>
  </defs>
  <g id="Wordmark">
    <path id="Gradient" class="cls-1" d="M140.48702,36.3232c-1.81641-.90771-3.78174-1.34912-6.00879-1.34912h-12.96729v31.62012h4.2915v-8.77734h8.67578c2.26367,0,4.25195-.4209,5.90869-1.25,1.82715-.91309,3.4126-2.35352,4.58496-4.16504,1.09619-1.69385,1.67578-3.75391,1.67578-5.95654,0-2.36816-.55078-4.3208-1.66895-5.9458-1.14258-1.86963-2.61182-3.23584-4.4917-4.17627Zm1.76953,10.02246c0,1.42188-.37451,2.70459-1.12256,3.82715-.75537,1.22803-1.69678,2.05322-3.0083,2.61768-.8667,.48145-2.12842,.73535-3.64746,.73535h-8.67578v-14.26025h8.67578c1.36035,0,2.60645,.22266,3.69336,.65771,1.17676,.50439,2.12109,1.3335,2.9624,2.59521,.76562,1.24414,1.12256,2.46045,1.12256,3.82715Zm26.49805-10.49756l-.02002-.01221c-3.44629-1.93848-7.61621-1.93848-11.0625,0-1.6665,.9375-3.0376,2.30762-4.08008,4.08057-.96924,1.72266-1.46094,3.58398-1.46094,5.53174v10.57178c0,1.94824,.4917,3.80859,1.46045,5.53125,.93604,1.66504,2.30615,3.03711,4.08057,4.08105,1.72314,.96973,3.58447,1.46094,5.53125,1.46094s3.80811-.49121,5.53125-1.46094c1.66699-.93848,3.03857-2.30859,4.08105-4.08105,.96875-1.72266,1.45996-3.58398,1.45996-5.53125v-10.57178c0-1.94727-.49121-3.80859-1.47217-5.55176-1.0332-1.65332-2.39551-3.01514-4.04883-4.04834Zm-.31055,5.20605l-12.22119,14.79395v-10.30029c0-1.29346,.31787-2.47705,.91943-3.42188,.65527-1.02979,1.50977-1.88428,2.52295-2.52979,1.10156-.64258,2.19287-.9292,3.53809-.9292,1.20605,0,2.3335,.28174,3.34814,.83496,.71826,.39893,1.36621,.93115,1.89258,1.55225Zm1.64014,4.67334v10.29248c0,1.34961-.29199,2.43652-.91943,3.42188-.65527,1.03027-1.50977,1.88477-2.52295,2.53027-1.08643,.63379-2.17871,.92871-3.43848,.92871-1.20654,0-2.3335-.28125-3.34766-.83496-.71875-.39941-1.36719-.93164-1.89404-1.55273l12.12256-14.78564Zm66.27686,16.48584h20.08252v4.28027h-24.36328v-31.52148h4.28076v27.24121Zm-39.81201-11.479l12.16699,15.76025h-5.48535l-9.40527-12.24707-9.46924,12.24707h-5.26855l12.01025-15.76025-12.01025-15.76025h5.26807l9.46973,12.24658,9.40527-12.24658h5.48535l-12.16699,15.76025Zm116.40625-.69092c.55762-.50342,1.04395-1.09082,1.47559-1.78271,.84082-1.36621,1.2666-2.85938,1.2666-4.4375,0-1.70996-.42578-3.27002-1.2666-4.63672-.83691-1.35986-2.00586-2.42627-3.58301-3.26709-1.25684-.62842-2.9375-.94727-4.99512-.94727h-12.92773v31.52148h13.4248c1.3584,0,2.46973-.10547,3.30273-.3125,.71484-.17969,1.50879-.45605,2.40137-.84082,1.33398-.7168,2.5-1.84473,3.37109-3.26074,.84082-1.36621,1.26758-2.92676,1.26758-4.63574,0-1.92773-.55176-3.61816-1.66895-5.14062-.60156-.94531-1.26953-1.67627-2.06836-2.25977Zm-.73535,4.77441c.5,.75,.71387,1.5332,.71387,2.61719,0,.86914-.25391,1.78613-.73535,2.65137-.41309,.74609-1,1.30176-1.88281,1.79199-.33887,.16992-.68652,.25977-1.15625,.35352-.55762,.09277-1.33301,.09277-2.31348,.09277h-9.28223v-9.68066h9.88184c1.4248,0,2.30762,.24902,2.79102,.45605,.80078,.35547,1.52051,.97754,1.9834,1.71777Zm-.98145-8.66357c-.5498,.73242-1.19629,1.2876-1.9209,1.6499l-.02441,.01318c-.60059,.34375-1.61133,.53271-2.84668,.53271h-8.88281v-9.18115h8.18457c2.06445,0,2.99316,.19775,3.39062,.35596,.78711,.34961,1.42188,.87061,1.99902,1.64014,.49609,.66113,.69824,1.4126,.69824,2.59473,0,.96533-.20312,1.75977-.59766,2.39453Zm31.57812,.47021v-1.38965c0-1.32764-.33984-2.53418-1.00879-3.58643-.64551-1.01465-1.56836-1.8418-2.66895-2.3916-1.0791-.53955-2.47461-.83691-3.92773-.83691-1.15723,0-2.33203,.21191-3.69629,.66602-.95898,.34912-1.89258,.98242-2.5498,1.7334-.58984,.67432-.86523,1.54346-.86523,2.73486,0,.96338,.25684,1.72998,.74316,2.2168,.60156,.60107,1.3916,1.06689,2.48633,1.46533,1.18066,.39258,2.95508,.80615,4.98047,1.2666,1.91113,.41602,3.7207,.88525,5.375,1.39404,1.47754,.52734,2.74219,1.37061,3.78125,2.51465,1.07422,1.28809,1.6123,2.99219,1.6123,5.08008,0,2.1543-.55176,3.9043-1.6875,5.34961-1.14648,1.35449-2.60742,2.39941-4.35449,3.11914-1.67773,.69043-3.51855,1.02637-5.62695,1.02637-2.36719,0-4.50586-.46875-6.54004-1.43164-2.07617-1.0918-3.56348-2.44727-4.56641-4.15234-1.04395-1.77539-1.55176-3.73438-1.55176-5.9873v-1.38965h4.06445v1.38965c0,1.42969,.34277,2.74219,1.01855,3.90039,.64258,1.10156,1.5498,1.91895,2.85645,2.57227,1.1582,.62305,2.70801,.93555,4.61914,.93555,2.14551,0,4.02539-.54785,5.4375-1.58398,1.34473-.98535,1.9707-2.20801,1.9707-3.84668,0-1.15625-.19824-1.87012-.64453-2.31543-.63086-.63086-1.26758-1.01953-2.06348-1.25879-.91895-.36523-2.44043-.74414-4.69434-1.17383-2.74902-.57227-4.57324-1.06787-5.92383-1.6084-1.63281-.61182-3.00586-1.55273-3.95801-2.71777-1.07324-1.28711-1.5957-2.81445-1.5957-4.66553,0-1.72754,.50586-3.42725,1.46289-4.9165,1-1.44482,2.41016-2.56592,4.08594-3.25586,1.81348-.74658,3.77344-1.125,5.82422-1.125,2.17969,0,4.20898,.46436,5.86914,1.34277,1.77539,.78857,3.24707,2.0835,4.34082,3.83447,1.0957,1.59326,1.65723,3.51758,1.65723,5.70166v1.38965h-4.26172Zm-70.80371-11.65234l-13.04004,31.52148h4.36426l3.97656-9.64355h12.85059l3.97754,9.64355h4.3584l-12.83496-31.52148h-3.65234Zm6.63672,17.57031h-9.29004l4.64453-11.35547,4.64551,11.35547Z"/>
  </g>
  <g id="Symbol">
    <g id="symbol">
      <g>
        <path class="cls-6" d="M39.83512,20.77399c-.24813,0-.48859,.0582-.71004,.15933v20.61464l20.77397-20.77397h-20.06393Z"/>
        <path class="cls-4" d="M38.62305,21.27605l-17.34313,17.34312c-1.08081,1.08079-.31535,2.92879,1.21314,2.92879h16.63202V20.93332c-.18427,.08418-.35604,.19672-.50203,.34273Z"/>
        <polygon class="cls-5" points="59.89905 41.54796 59.89905 20.77399 39.12508 41.54796 39.1251 41.54796 59.89905 41.54796"/>
        <polygon class="cls-9" points="39.12508 41.54797 39.12508 62.3219 59.89903 41.54797 39.12508 41.54797"/>
        <path class="cls-7" d="M39.12508,62.32192h20.61464c.10111-.22138,.15929-.46173,.15931-.70979v-20.06418l-20.77395,20.77395v.00002Z"/>
        <path class="cls-8" d="M80.56035,20.88666c-.18983-.0708-.39088-.11267-.59737-.11267h-20.06393v20.77397l20.6613-20.6613Z"/>
        <path class="cls-2" d="M80.673,20.93332c-.03716-.01696-.07439-.03239-.11266-.04667l-20.6613,20.6613h20.77397s0-20.61463,0-20.61463Z"/>
        <path class="cls-3" d="M59.73972,62.32192h-20.61464v16.63568c0,1.52711,1.84634,2.2919,2.92619,1.21207l17.34583-17.34583c.14595-.14596,.25846-.3177,.34262-.50191Z"/>
        <path class="cls-11" d="M70.28603,41.54796h10.38697V20.93332c-.02177-.00994-.04398-.01838-.066-.02733l-10.32097,20.64197Z"/>
        <path class="cls-12" d="M80.673,58.18641c0,1.52609,1.84512,2.29037,2.92423,1.21127l16.63767-16.63767c.3347-.3347,.50205-.77337,.50205-1.21207h-20.06396v16.63847Z"/>
        <path class="cls-10" d="M81.17506,21.27605c-.14601-.14601-.31779-.25855-.50206-.34272v20.61464h20.06396c0-.43867-.16735-.87737-.50205-1.21207l-19.05984-19.05985Z"/>
      </g>
    </g>
  </g>
</svg>