<?xml version="1.0" encoding="utf-8"?>
<!-- Generator: Adobe Illustrator 27.0.0, SVG Export Plug-In . SVG Version: 6.00 Build 0)  -->
<svg version="1.1" id="Layer_1" xmlns="http://www.w3.org/2000/svg" xmlns:xlink="http://www.w3.org/1999/xlink" x="0px" y="0px"
	 viewBox="0 0 367.85229 101.44914" style="enable-background:new 0 0 367.85229 101.44914;" xml:space="preserve">
<style type="text/css">
	.st0{fill:#FFFFFF;}
	.st1{fill:url(#SVGID_1_);}
	.st2{fill:url(#SVGID_00000142151674153992079260000005680029798344042155_);}
	.st3{fill:url(#SVGID_00000178185860513166881940000001895524554927568268_);}
	.st4{fill:url(#SVGID_00000041976010068868060540000010185587702115101837_);}
	.st5{fill:url(#SVGID_00000057137172880989461630000000406532649810681776_);}
	.st6{fill:url(#SVGID_00000105407413948294475850000017149852084026115479_);}
	.st7{fill:url(#SVGID_00000027593255319053639200000017219494673629720965_);}
	.st8{fill:url(#SVGID_00000170254550507414886080000014472386211053270414_);}
	.st9{fill:url(#SVGID_00000071551552284272746880000009262539534946770587_);}
	.st10{fill:url(#SVGID_00000008120141972630965540000011736636716495475641_);}
	.st11{fill:url(#SVGID_00000125570583348029053370000008045716443188009394_);}
</style>
<g>
	<path class="st0" d="M140.487,36.32323c-1.81641-0.90771-3.78174-1.34912-6.00879-1.34912h-12.96729v31.62012h4.2915v-8.77734
		h8.67578c2.26367,0,4.25195-0.4209,5.90869-1.25c1.82715-0.91309,3.4126-2.35352,4.58496-4.16504
		c1.09619-1.69385,1.67578-3.75391,1.67578-5.95654c0-2.36816-0.55078-4.3208-1.66895-5.9458
		C143.83612,38.62987,142.36688,37.26366,140.487,36.32323z M141.13397,50.17284c-0.75537,1.22803-1.69678,2.05316-3.0083,2.61768
		c-0.8667,0.48145-2.12842,0.73535-3.64746,0.73535h-8.67578V39.26561h8.67578c1.36035,0,2.60645,0.22266,3.69336,0.65771
		c1.17676,0.50439,2.12109,1.3335,2.9624,2.59521c0.76562,1.24414,1.12256,2.46045,1.12256,3.82715
		C142.25653,47.76756,141.88202,49.05028,141.13397,50.17284z"/>
	<path class="st0" d="M168.75458,35.84813l-0.02002-0.01221c-3.44629-1.93848-7.61621-1.93848-11.0625,0
		c-1.6665,0.9375-3.0376,2.30762-4.08008,4.08057c-0.96924,1.72266-1.46094,3.58398-1.46094,5.53174V56.02
		c0,1.94824,0.4917,3.80859,1.46045,5.53125c0.93604,1.66504,2.30615,3.03711,4.08057,4.08105
		c1.72314,0.96973,3.58447,1.46094,5.53125,1.46094s3.80811-0.49121,5.53125-1.46094
		c1.66699-0.93848,3.03857-2.30859,4.08105-4.08105c0.96875-1.72266,1.45996-3.58398,1.45996-5.53125V45.44823
		c0-1.94727-0.49121-3.80859-1.47217-5.55176C171.7702,38.24315,170.4079,36.88133,168.75458,35.84813z M156.22284,55.84813
		V45.54784c0-1.29346,0.31787-2.47705,0.91943-3.42188c0.65527-1.02979,1.50977-1.88428,2.52295-2.52979
		c1.10156-0.64258,2.19287-0.9292,3.53809-0.9292c1.20605,0,2.3335,0.28174,3.34814,0.83496
		c0.71826,0.39893,1.36621,0.93115,1.89258,1.55225L156.22284,55.84813z M170.08417,56.02
		c0,1.34961-0.29199,2.43652-0.91943,3.42188c-0.65527,1.03027-1.50977,1.88477-2.52295,2.53027
		c-1.08643,0.63379-2.17871,0.92871-3.43848,0.92871c-1.20654,0-2.3335-0.28125-3.34766-0.83496
		c-0.71875-0.39941-1.36719-0.93164-1.89404-1.55273l12.12256-14.78564V56.02z"/>
	<polygon class="st0" points="236.36108,34.97215 232.08026,34.97215 232.08026,66.49358 256.4436,66.49358 256.4436,62.21336 
		236.36108,62.21336 	"/>
	<polygon class="st0" points="203.23071,34.97411 193.82538,47.22069 184.35571,34.97411 179.08765,34.97411 191.09784,50.73436 
		179.08765,66.49461 184.35614,66.49461 193.82538,54.24754 203.23071,66.49461 208.71606,66.49461 196.54901,50.73436 
		208.71606,34.97411 	"/>
	<path class="st0" d="M312.95532,50.04344c0.55762-0.50342,1.04395-1.09082,1.47559-1.78271
		c0.84082-1.36621,1.2666-2.85938,1.2666-4.4375c0-1.70996-0.42578-3.27002-1.2666-4.63672
		c-0.83691-1.35986-2.00586-2.42627-3.58301-3.26709c-1.25684-0.62842-2.9375-0.94727-4.99512-0.94727h-12.92773v31.52142h13.4248
		c1.3584,0,2.46973-0.10547,3.30273-0.3125c0.71484-0.17969,1.50879-0.45599,2.40137-0.84082
		c1.33398-0.7168,2.5-1.84473,3.37109-3.26068c0.84082-1.36621,1.26758-2.92682,1.26758-4.63574
		c0-1.92773-0.55176-3.61816-1.66895-5.14062C314.42212,51.35789,313.75415,50.62694,312.95532,50.04344z M297.56372,39.16887
		h8.18457c2.06445,0,2.99316,0.19775,3.39062,0.35602c0.78711,0.34961,1.42188,0.87061,1.99902,1.64014
		c0.49609,0.66113,0.69824,1.4126,0.69824,2.59473c0,0.96533-0.20312,1.75977-0.59766,2.39453
		c-0.5498,0.73242-1.19629,1.2876-1.9209,1.6499l-0.02441,0.01312c-0.60059,0.34375-1.61133,0.53271-2.84668,0.53271h-8.88281
		V39.16887z M312.19849,60.08641c-0.41309,0.74609-1,1.30176-1.88281,1.79199c-0.33887,0.16992-0.68652,0.25977-1.15625,0.35352
		c-0.55762,0.09277-1.33301,0.09277-2.31348,0.09277h-9.28223v-9.68066h9.88184c1.4248,0,2.30762,0.24902,2.79102,0.45605
		c0.80078,0.35547,1.52051,0.97754,1.9834,1.71777c0.5,0.75,0.71387,1.53314,0.71387,2.61719
		C312.93384,58.30418,312.67993,59.22118,312.19849,60.08641z"/>
	<path class="st0" d="M345.42114,39.53319c-1.09375-1.75104-2.56543-3.0459-4.34082-3.83447
		c-1.66016-0.87842-3.68945-1.34277-5.86914-1.34277c-2.05078,0-4.01074,0.37842-5.82422,1.125
		c-1.67578,0.68994-3.08594,1.81104-4.08594,3.25586c-0.95703,1.48926-1.46289,3.18896-1.46289,4.9165
		c0,1.85107,0.52246,3.37842,1.5957,4.66553c0.95215,1.16504,2.3252,2.10596,3.95801,2.71777
		c1.35059,0.54053,3.1748,1.03613,5.92383,1.6084c2.25391,0.42969,3.77539,0.80859,4.69434,1.17383
		c0.7959,0.23926,1.43262,0.62793,2.06348,1.25879c0.44629,0.44531,0.64453,1.15918,0.64453,2.31543
		c0,1.63867-0.62598,2.86133-1.9707,3.84668c-1.41211,1.03613-3.29199,1.58398-5.4375,1.58398
		c-1.91113,0-3.46094-0.3125-4.61914-0.93561c-1.30664-0.65332-2.21387-1.47064-2.85645-2.57227
		c-0.67578-1.1582-1.01855-2.4707-1.01855-3.90039V54.0258h-4.06445v1.38965c0,2.25293,0.50781,4.21191,1.55176,5.9873
		c1.00293,1.70508,2.49023,3.06055,4.56641,4.15234c2.03418,0.96289,4.17285,1.43164,6.54004,1.43164
		c2.1084,0,3.94922-0.33594,5.62695-1.02637c1.74707-0.71973,3.20801-1.76465,4.35449-3.11914
		c1.13574-1.44531,1.6875-3.19531,1.6875-5.34961c0-2.08789-0.53809-3.79199-1.6123-5.08008
		c-1.03906-1.14404-2.30371-1.9873-3.78125-2.51465c-1.6543-0.50879-3.46387-0.97803-5.375-1.39404
		c-2.02539-0.46045-3.7998-0.87402-4.98047-1.2666c-1.09473-0.39844-1.88477-0.86426-2.48633-1.46533
		c-0.48633-0.48682-0.74316-1.25342-0.74316-2.2168c0-1.19141,0.27539-2.06055,0.86523-2.73486
		c0.65723-0.75098,1.59082-1.38428,2.5498-1.7334c1.36426-0.4541,2.53906-0.66602,3.69629-0.66602
		c1.45312,0,2.84863,0.29736,3.92773,0.83691c1.10059,0.5498,2.02344,1.37695,2.66895,2.3916
		c0.66895,1.05225,1.00879,2.25879,1.00879,3.58643v1.38965h4.26172v-1.38959
		C347.07837,43.05077,346.51685,41.12645,345.42114,39.53319z"/>
	<path class="st0" d="M272.01294,34.97215L258.9729,66.49358h4.36426l3.97656-9.64349h12.85059l3.97754,9.64349h4.3584
		l-12.83496-31.52142H272.01294z M269.35962,52.54247l4.64453-11.35547l4.64551,11.35547H269.35962z"/>
</g>
<g>
	
		<linearGradient id="SVGID_1_" gradientUnits="userSpaceOnUse" x1="36.66328" y1="217.29102" x2="52.71671" y2="230.47604" gradientTransform="matrix(1 0 0 1 0 -196.68303)">
		<stop  offset="0.11558" style="stop-color:#09A8F9"/>
		<stop  offset="1" style="stop-color:#6BA6FF"/>
	</linearGradient>
	<path class="st1" d="M39.83512,20.77399c-0.24813,0-0.48859,0.0582-0.71004,0.15933v20.61464l20.77397-20.77397
		C59.89905,20.77399,39.83512,20.77399,39.83512,20.77399z"/>
	
		<linearGradient id="SVGID_00000091699037038864351730000013038971651006019207_" gradientUnits="userSpaceOnUse" x1="40.28808" y1="210.81683" x2="30.59244" y2="235.56749" gradientTransform="matrix(1 0 0 1 0 -196.68303)">
		<stop  offset="0" style="stop-color:#20DFF0"/>
		<stop  offset="1" style="stop-color:#0078BB"/>
	</linearGradient>
	<path style="fill:url(#SVGID_00000091699037038864351730000013038971651006019207_);" d="M38.62305,21.27605L21.27992,38.61917
		c-1.08081,1.08079-0.31535,2.92879,1.21314,2.92879h16.63202V20.93332C38.94081,21.0175,38.76904,21.13004,38.62305,21.27605z"/>
	
		<linearGradient id="SVGID_00000086690687455696338490000017571595984552502968_" gradientUnits="userSpaceOnUse" x1="42.34527" y1="222.03204" x2="64.46546" y2="239.97055" gradientTransform="matrix(1 0 0 1 0 -196.68303)">
		<stop  offset="0.07141" style="stop-color:#37A1F2"/>
		<stop  offset="0.70196" style="stop-color:#013CD6"/>
	</linearGradient>
	<polygon style="fill:url(#SVGID_00000086690687455696338490000017571595984552502968_);" points="59.89905,41.54796 
		59.89905,20.77399 39.12508,41.54796 39.1251,41.54796 	"/>
	
		<linearGradient id="SVGID_00000034800726899408870110000007519976134540961972_" gradientUnits="userSpaceOnUse" x1="39.98635" y1="235.79434" x2="49.67376" y2="248.83566" gradientTransform="matrix(1 0 0 1 0 -196.68303)">
		<stop  offset="0" style="stop-color:#26ABF5"/>
		<stop  offset="1" style="stop-color:#1E7ED2"/>
	</linearGradient>
	<polygon style="fill:url(#SVGID_00000034800726899408870110000007519976134540961972_);" points="39.12508,41.54797 
		39.12508,62.3219 59.89903,41.54797 	"/>
	
		<linearGradient id="SVGID_00000012467894708295870330000002129963800648332465_" gradientUnits="userSpaceOnUse" x1="43.29955" y1="242.43436" x2="58.02316" y2="257.08948" gradientTransform="matrix(1 0 0 1 0 -196.68303)">
		<stop  offset="0.04594" style="stop-color:#2979ED"/>
		<stop  offset="0.88835" style="stop-color:#025193"/>
	</linearGradient>
	<path style="fill:url(#SVGID_00000012467894708295870330000002129963800648332465_);" d="M39.12508,62.32192h20.61464
		c0.10111-0.22138,0.15929-0.46173,0.15931-0.70979V41.54795L39.12508,62.3219
		C39.12508,62.3219,39.12508,62.32192,39.12508,62.32192z"/>
	
		<linearGradient id="SVGID_00000174562621747957773350000015155670480761655227_" gradientUnits="userSpaceOnUse" x1="59.89905" y1="227.84401" x2="80.56035" y2="227.84401" gradientTransform="matrix(1 0 0 1 0 -196.68303)">
		<stop  offset="0" style="stop-color:#4183F7"/>
		<stop  offset="1" style="stop-color:#2C5CE5"/>
	</linearGradient>
	<path style="fill:url(#SVGID_00000174562621747957773350000015155670480761655227_);" d="M80.56035,20.88666
		c-0.18983-0.0708-0.39088-0.11267-0.59737-0.11267H59.89905v20.77397C59.89905,41.54796,80.56035,20.88666,80.56035,20.88666z"/>
	
		<linearGradient id="SVGID_00000024720084924066799440000000477471752790123435_" gradientUnits="userSpaceOnUse" x1="59.89903" y1="227.90033" x2="101.96956" y2="227.90033" gradientTransform="matrix(1 0 0 1 0 -196.68303)">
		<stop  offset="0.10977" style="stop-color:#4B75F9"/>
		<stop  offset="0.11437" style="stop-color:#4A74F8"/>
		<stop  offset="0.24903" style="stop-color:#3458E5"/>
		<stop  offset="0.39338" style="stop-color:#2242D7"/>
		<stop  offset="0.55255" style="stop-color:#1633CC"/>
		<stop  offset="0.73609" style="stop-color:#0E2AC6"/>
		<stop  offset="1" style="stop-color:#0C27C4"/>
	</linearGradient>
	<path style="fill:url(#SVGID_00000024720084924066799440000000477471752790123435_);" d="M80.673,20.93332
		c-0.03716-0.01696-0.07439-0.03239-0.11266-0.04667l-20.6613,20.6613H80.673C80.673,41.54795,80.673,20.93332,80.673,20.93332z"/>
	
		<linearGradient id="SVGID_00000078002778726595042720000005180822567411411329_" gradientUnits="userSpaceOnUse" x1="38.1776" y1="278.04825" x2="56.63378" y2="246.83728" gradientTransform="matrix(1 0 0 1 0 -196.68303)">
		<stop  offset="0.02245" style="stop-color:#1162A2"/>
		<stop  offset="0.4724" style="stop-color:#3E8DCC"/>
		<stop  offset="0.98032" style="stop-color:#76C3FF"/>
	</linearGradient>
	<path style="fill:url(#SVGID_00000078002778726595042720000005180822567411411329_);" d="M59.73972,62.32192H39.12508V78.9576
		c0,1.52711,1.84634,2.2919,2.92619,1.21207L59.3971,62.82383C59.54305,62.67787,59.65556,62.50613,59.73972,62.32192z"/>
	
		<linearGradient id="SVGID_00000178195445006844995840000013887007369925085057_" gradientUnits="userSpaceOnUse" x1="69.7028" y1="227.32841" x2="83.90086" y2="228.76607" gradientTransform="matrix(1 0 0 1 0 -196.68303)">
		<stop  offset="0.16168" style="stop-color:#2237F4"/>
		<stop  offset="0.87397" style="stop-color:#0024A5"/>
	</linearGradient>
	<path style="fill:url(#SVGID_00000178195445006844995840000013887007369925085057_);" d="M70.28603,41.54796H80.673V20.93332
		c-0.02177-0.00994-0.04398-0.01838-0.066-0.02733L70.28603,41.54796z"/>
	
		<linearGradient id="SVGID_00000085953484503603687470000007762014527174372799_" gradientUnits="userSpaceOnUse" x1="90.63876" y1="240.36624" x2="89.95406" y2="262.30655" gradientTransform="matrix(1 0 0 1 0 -196.68303)">
		<stop  offset="0" style="stop-color:#1640E5"/>
		<stop  offset="1" style="stop-color:#24BDD7"/>
	</linearGradient>
	<path style="fill:url(#SVGID_00000085953484503603687470000007762014527174372799_);" d="M80.673,58.18641
		c0,1.52609,1.84512,2.29037,2.92423,1.21127l16.63767-16.63767c0.3347-0.3347,0.50205-0.77337,0.50205-1.21207H80.673V58.18641z"/>
	
		<linearGradient id="SVGID_00000003783907493847555320000005083581821070698430_" gradientUnits="userSpaceOnUse" x1="90.64113" y1="220.84773" x2="90.75256" y2="251.1833" gradientTransform="matrix(1 0 0 1 0 -196.68303)">
		<stop  offset="0.19242" style="stop-color:#2231DD"/>
		<stop  offset="1" style="stop-color:#73C3FF"/>
	</linearGradient>
	<path style="fill:url(#SVGID_00000003783907493847555320000005083581821070698430_);" d="M81.17506,21.27605
		c-0.14601-0.14601-0.31779-0.25855-0.50206-0.34272v20.61464h20.06396c0-0.43867-0.16735-0.87737-0.50205-1.21207
		C100.2349,40.3359,81.17506,21.27605,81.17506,21.27605z"/>
</g>
</svg>
