<svg width="508" height="60" viewBox="0 0 508 60" fill="none" xmlns="http://www.w3.org/2000/svg">
<path d="M135.305 16C133.505 15.1 131.605 14.7 129.505 14.7H117.905H117.005V15.5999V44.5V45.3999H117.905H119.405H120.305V44.5V36.5999H129.505C131.705 36.5999 133.605 36.1999 135.205 35.3999C137.005 34.4999 138.505 33.0999 139.605 31.3999C140.705 29.6999 141.205 27.7 141.205 25.7C141.205 23.5 140.705 21.6 139.605 20C138.505 18.2 137.105 16.9 135.305 16ZM129.505 33.2999H120.305V18H129.505C131.105 18 132.405 18.3 133.405 18.7C134.805 19.3 135.805 20.3 136.605 21.5C137.405 22.8 137.805 24.0999 137.805 25.5999C137.805 27.0999 137.405 28.5 136.605 29.7C135.805 31 134.805 31.9 133.405 32.5C132.505 33 131.205 33.2999 129.505 33.2999Z" fill="black"/>
<path d="M163.605 15.5C162.005 14.6 160.205 14.1 158.305 14.1C156.405 14.1 154.605 14.6 153.005 15.5C151.405 16.4 150.105 17.7 149.105 19.4C148.205 21 147.705 22.8 147.705 24.7V35.3C147.705 37.2 148.205 39 149.105 40.6C150.005 42.2 151.305 43.5 153.005 44.5C154.605 45.4 156.405 45.9 158.305 45.9C160.205 45.9 162.005 45.4 163.605 44.5C165.205 43.6 166.505 42.3 167.505 40.6C168.405 39 168.905 37.2 168.905 35.3V24.7C168.905 22.8 168.405 21 167.505 19.4C166.505 17.8 165.205 16.5 163.605 15.5ZM158.305 17.4C159.605 17.4 160.805 17.7 161.905 18.3C162.805 18.8 163.605 19.5 164.205 20.3L150.905 36.4C150.805 36 150.805 35.7 150.805 35.4V24.8C150.805 23.5 151.105 22.2 151.805 21.1C152.505 20 153.405 19.1 154.505 18.4C155.705 17.7 156.905 17.4 158.305 17.4ZM158.305 42.7C157.005 42.7 155.805 42.4 154.705 41.8C153.805 41.3 153.005 40.6 152.405 39.8L165.605 23.7C165.705 24.1 165.705 24.4 165.705 24.7V35.3C165.705 36.7 165.405 37.9 164.705 39C164.005 40.1 163.105 41 162.005 41.7C160.805 42.4 159.605 42.7 158.305 42.7Z" fill="black"/>
<path d="M191.105 30L201.805 16.0999L202.905 14.7H201.105H199.105H198.705L198.505 15L189.005 27.2999L179.605 15L179.305 14.7H178.905H176.905H175.205L176.205 16.0999L186.905 30L176.205 43.8999L175.205 45.2999H176.905H178.905H179.305L179.605 45L189.005 32.7L198.505 45L198.705 45.2999H199.105H201.105H202.905L201.805 43.8999L191.105 30Z" fill="black"/>
<path d="M212.305 14.7H211.405V15.5V44.5V45.2999H212.305H232.705H233.505V44.5V42.8999V42.0999H232.705H214.705V31.2H230.205H231.105V30.2999V28.7999V27.8999H230.205H214.705V17.8999H232.705H233.505V17.0999V15.5V14.7H232.705H212.305Z" fill="black"/>
<path d="M243.705 14.7H242.805V15.5V17.0999V17.8999H243.705H251.405V42H243.705H242.805V42.8999V44.3999V45.2999H243.705H262.405H263.305V44.3999V42.8999V42H262.405H254.605V17.8999H262.405H263.305V17.0999V15.5V14.7H262.405H243.705Z" fill="black"/>
<path d="M289.805 16.3999C287.905 15.2999 285.805 14.7 283.505 14.7H272.805H271.905V15.5999V44.5V45.3999H272.805H283.505C285.805 45.3999 287.905 44.8 289.805 43.7C291.705 42.6 293.205 40.9999 294.405 39.0999C295.505 37.1999 296.105 35.0999 296.105 32.7999V27.2C296.105 24.9 295.505 22.7999 294.405 20.8999C293.205 18.9999 291.705 17.4999 289.805 16.3999ZM275.205 17.8999H283.405C285.105 17.8999 286.605 18.3 288.105 19.2C289.505 20 290.705 21.1999 291.505 22.5999C292.305 23.9999 292.805 25.6 292.805 27.2V32.7999C292.805 34.4999 292.405 35.9999 291.505 37.3999C290.705 38.7999 289.505 39.9999 288.105 40.7999C286.705 41.5999 285.105 42.0999 283.405 42.0999H275.205V17.8999Z" fill="black"/>
<path d="M320.905 15.8C318.905 14.7 316.805 14.1 314.505 14.1C312.205 14.1 310.005 14.7 308.105 15.8C306.105 16.9 304.605 18.5 303.405 20.5C302.305 22.5 301.705 24.6 301.705 26.9V33.2C301.705 35.5 302.305 37.7 303.405 39.6C304.505 41.6 306.105 43.1 308.105 44.3C310.105 45.4 312.205 46 314.505 46C316.805 46 319.005 45.4 320.905 44.3C322.805 43.2 324.405 41.6 325.605 39.6C326.705 37.6 327.305 35.5 327.305 33.2V26.9C327.305 24.6 326.705 22.4 325.605 20.5C324.505 18.5 322.905 16.9 320.905 15.8ZM314.505 42.7C312.805 42.7 311.205 42.3 309.705 41.4C308.205 40.6 307.105 39.4 306.205 37.9C305.405 36.4 304.905 34.8 304.905 33.1V26.8C304.905 25.1 305.305 23.5 306.205 22C307.005 20.5 308.205 19.4 309.705 18.5C311.205 17.7 312.805 17.2 314.505 17.2C316.205 17.2 317.805 17.6 319.305 18.5C320.805 19.3 321.905 20.5 322.805 22C323.605 23.5 324.105 25.1 324.105 26.8V33.1C324.105 34.8 323.705 36.4 322.805 37.9C322.005 39.4 320.805 40.5 319.305 41.4C317.905 42.3 316.205 42.7 314.505 42.7Z" fill="black"/>
<path d="M355.804 14.7H354.904V15.5V40.7999L336.204 14.8999L335.904 14.7H335.604H334.004H333.104V15.5V44.5V45.2999H334.004H335.504H336.404V44.5V19.5999L354.904 45.2999H355.804H357.304H358.204V44.5V15.5V14.7H357.304H355.804Z" fill="black"/>
<path d="M395.605 42.0999V14.7H392.305V44.5V45.3999H393.205H414.905H415.805V42.0999H395.605Z" fill="black"/>
<path d="M472.305 29.3999C473.105 28.7999 473.705 28.0999 474.205 27.2999C475.005 25.9999 475.405 24.5999 475.405 23.0999C475.405 21.4999 475.005 20 474.205 18.7C473.405 17.4 472.305 16.3999 470.805 15.5999C469.605 14.9999 468.005 14.7 466.005 14.7H454.405H453.505V15.5999V44.5V45.3999H454.405H466.505C467.805 45.3999 468.905 45.2999 469.705 45.0999C470.505 44.8999 471.305 44.5999 472.005 44.2999C473.305 43.5999 474.405 42.5 475.205 41.2C476.005 39.9 476.405 38.3999 476.405 36.7999C476.405 34.9999 475.905 33.3999 474.805 31.8999C474.105 30.7999 473.305 29.9999 472.305 29.3999ZM466.705 42.0999H456.905V31.3999H467.305C468.605 31.3999 469.605 31.5999 470.305 31.8999C471.205 32.2999 472.005 32.9999 472.505 33.7999C473.105 34.6999 473.305 35.6 473.305 36.7C473.305 37.7 473.005 38.6999 472.505 39.5999C472.005 40.4999 471.305 41.0999 470.405 41.5999C470.005 41.7999 469.605 41.9 469.105 42C468.505 42.1 467.705 42.0999 466.705 42.0999ZM469.405 27.5C468.705 27.9 467.605 28.0999 466.305 28.0999H456.905V17.8999H465.605C467.705 17.8999 468.705 18.0999 469.205 18.2999C470.105 18.6999 470.805 19.2999 471.405 20.0999C472.005 20.8999 472.205 21.8 472.205 23C472.205 24 472.005 24.9 471.505 25.7C470.905 26.5 470.205 27.1 469.405 27.5Z" fill="black"/>
<path d="M504.705 25.4H506.205H507.105V24.5C507.105 22.5 506.605 20.6 505.505 19C504.505 17.4 503.105 16.1 501.305 15.3C499.605 14.4 497.605 14 495.605 14C493.505 14 491.605 14.4 489.905 15.1C488.205 15.8 486.905 16.9 486.005 18.2C485.105 19.6 484.605 21.2 484.605 22.9C484.605 24.7 485.105 26.1 486.105 27.3C487.005 28.4 488.305 29.3 489.905 29.9C491.405 30.5 493.405 31 495.805 31.5C497.905 31.9 499.605 32.3 500.605 32.7C501.605 33 502.305 33.5 502.905 34.1C503.505 34.7 503.705 35.6 503.705 36.8C503.705 38.6 503.005 40 501.505 41.1C500.005 42.2 498.005 42.8 495.705 42.8C493.805 42.8 492.105 42.5 490.805 41.8C489.405 41.1 488.405 40.2 487.705 39C487.005 37.8 486.605 36.4 486.605 34.8V33.9H485.905H484.405H483.505V34.8C483.505 37 484.005 38.9 485.005 40.6C486.005 42.3 487.505 43.6 489.405 44.6C491.305 45.5 493.405 46 495.805 46C497.805 46 499.605 45.7 501.305 45C503.005 44.3 504.405 43.3 505.505 42C506.605 40.6 507.105 38.9 507.105 36.9C507.105 34.9 506.605 33.3 505.605 32.1C504.605 31 503.405 30.2 502.005 29.7C500.705 29.3 498.905 28.8 496.605 28.3C494.405 27.8 492.705 27.4 491.505 27C490.405 26.6 489.505 26.1 488.805 25.4C488.205 24.8 487.905 23.9 487.905 22.8C487.905 21.5 488.205 20.5 488.905 19.7C489.605 18.9 490.605 18.2 491.705 17.8C492.905 17.4 494.205 17.1 495.605 17.1C497.105 17.1 498.605 17.4 499.805 18C501.005 18.6 502.005 19.5 502.705 20.6C503.405 21.7 503.805 23 503.805 24.5V25.4H504.705V25.4Z" fill="black"/>
<path d="M435.304 14.7H432.304L419.604 45.3999H422.904L426.904 35.7H440.504L444.504 45.3999H447.804L435.304 14.7ZM433.804 19.0999L439.204 32.2999H428.404L433.804 19.0999Z" fill="black"/>
<path d="M1.94815 20.9316H18.9404C20.0183 20.9316 20.9003 20.0496 20.9003 18.9717V1.97947C20.9003 0.235169 18.7836 -0.646781 17.5489 0.587949L0.57623 17.5802C-0.658499 18.8149 0.22345 20.9316 1.96775 20.9316H1.94815Z" fill="url(#paint0_linear_2544_812)"/>
<path d="M39.4316 0H18.5V20.9316L39.4316 0Z" fill="url(#paint1_linear_2544_812)"/>
<path d="M60.3436 0H39.4316V20.9316L60.3436 0Z" fill="url(#paint2_linear_2544_812)"/>
<path d="M18.5 20.9316H39.4316V0L18.5 20.9316Z" fill="url(#paint3_linear_2544_812)"/>
<path d="M39.4316 20.9316H18.5V41.8436L39.4316 20.9316Z" fill="url(#paint4_linear_2544_812)"/>
<path d="M39.4316 41.8436H18.5V58.0323C18.5 59.7766 20.6167 60.6585 21.8514 59.4238L39.4316 41.8436Z" fill="url(#paint5_linear_2544_812)"/>
<path d="M18.5 41.8436H39.4316V20.9316L18.5 41.8436Z" fill="url(#paint6_linear_2544_812)"/>
<path d="M39.4316 20.9316H60.3436V0L39.4316 20.9316Z" fill="url(#paint7_linear_2544_812)"/>
<g style="mix-blend-mode:multiply" opacity="0.4">
<path d="M60.3437 0L49.8975 20.9316H60.3437V0Z" fill="url(#paint8_linear_2544_812)"/>
</g>
<path d="M60.3428 0V37.1399C60.3428 38.8842 62.4595 39.7661 63.6942 38.5314L79.9025 22.3231C80.6668 21.5588 80.6668 20.324 79.9025 19.5597L60.3428 0Z" fill="url(#paint9_linear_2544_812)"/>
<defs>
<linearGradient id="paint0_linear_2544_812" x1="0.990038" y1="2.5" x2="19.5111" y2="20.9988" gradientUnits="userSpaceOnUse">
<stop stop-color="#01FFF0"/>
<stop offset="1" stop-color="#0078BB"/>
</linearGradient>
<linearGradient id="paint1_linear_2544_812" x1="16.9995" y1="1.64749e-07" x2="28.9953" y2="12.504" gradientUnits="userSpaceOnUse">
<stop stop-color="#09A8F9"/>
<stop offset="1" stop-color="#6BA6FF"/>
</linearGradient>
<linearGradient id="paint2_linear_2544_812" x1="37.9326" y1="1.64749e-07" x2="49.9288" y2="12.4928" gradientUnits="userSpaceOnUse">
<stop stop-color="#3E73F9"/>
<stop offset="1" stop-color="#4467FA"/>
</linearGradient>
<linearGradient id="paint3_linear_2544_812" x1="27.9995" y1="7.07499" x2="42.5131" y2="21.575" gradientUnits="userSpaceOnUse">
<stop stop-color="#37A1F2"/>
<stop offset="1" stop-color="#013CD6"/>
</linearGradient>
<linearGradient id="paint4_linear_2544_812" x1="16.9995" y1="20.9316" x2="28.9836" y2="33.4352" gradientUnits="userSpaceOnUse">
<stop stop-color="#26ABF5"/>
<stop offset="1" stop-color="#1E7ED2"/>
</linearGradient>
<linearGradient id="paint5_linear_2544_812" x1="27.9995" y1="61.5" x2="31.057" y2="39.9335" gradientUnits="userSpaceOnUse">
<stop stop-color="#1162A2"/>
<stop offset="1" stop-color="#76C3FF"/>
</linearGradient>
<linearGradient id="paint6_linear_2544_812" x1="27.9995" y1="28" x2="42.4995" y2="42.5" gradientUnits="userSpaceOnUse">
<stop stop-color="#275EEE"/>
<stop offset="1" stop-color="#0A417B"/>
</linearGradient>
<linearGradient id="paint7_linear_2544_812" x1="48.9223" y1="7.07499" x2="63.4358" y2="21.5614" gradientUnits="userSpaceOnUse">
<stop stop-color="#4A59FA"/>
<stop offset="1" stop-color="#4415EF"/>
</linearGradient>
<linearGradient id="paint8_linear_2544_812" x1="54.6383" y1="22.6608" x2="62.1398" y2="-0.245176" gradientUnits="userSpaceOnUse">
<stop stop-color="#3E3E3E"/>
<stop offset="1" stop-color="#262626"/>
</linearGradient>
<linearGradient id="paint9_linear_2544_812" x1="81.999" y1="21.5" x2="57.499" y2="21.5" gradientUnits="userSpaceOnUse">
<stop stop-color="#AE70FF"/>
<stop offset="1" stop-color="#5737FF"/>
</linearGradient>
</defs>
</svg>
