<?xml version="1.0" encoding="utf-8"?>
<!-- Generator: Adobe Illustrator 27.0.0, SVG Export Plug-In . SVG Version: 6.00 Build 0)  -->
<svg version="1.1" id="Layer_1" xmlns="http://www.w3.org/2000/svg" xmlns:xlink="http://www.w3.org/1999/xlink" x="0px" y="0px"
	 viewBox="0 0 592.2594 142.13098" style="enable-background:new 0 0 592.2594 142.13098;" xml:space="preserve">
<style type="text/css">
	.st0{display:none;}
	.st1{display:inline;}
	.st2{fill:#FFFFFF;}
	.st3{display:inline;fill:url(#logo-type_00000095331793835839113840000013817466412978199484_);}
	.st4{fill:url(#SVGID_1_);}
	.st5{fill:url(#SVGID_00000134957080892844170790000016492217780501841036_);}
	.st6{fill:url(#SVGID_00000109741110046665848910000017504315752570791581_);}
	.st7{fill:url(#SVGID_00000083778751730788086360000010429253961035673259_);}
	.st8{fill:url(#SVGID_00000129196734345450641240000000365929069929300127_);}
	.st9{fill:url(#SVGID_00000015336471145713555180000008991130278634709909_);}
	.st10{fill:url(#SVGID_00000005983181845003156080000000054886812013299133_);}
	.st11{fill:url(#SVGID_00000137113656845274023960000004913770797499487912_);}
	.st12{fill:url(#SVGID_00000134217079515428537960000008670922707724674974_);}
	.st13{fill:url(#SVGID_00000140005192968358831870000013611742290775775158_);}
</style>
<g id="black">
	<g id="logo-type_3_">
		<path d="M180.44754,57.06316c-1.79532-0.89765-3.69037-1.29661-5.7849-1.29661h-11.56979h-0.89764v0.89766v28.82475v0.89755
			h0.89764h1.49609h0.89764v-0.89755v-7.87952h9.17606c2.19427,0,4.08932-0.39896,5.68515-1.19688
			c1.7953-0.89765,3.2914-2.29401,4.38853-3.98958s1.59584-3.69026,1.59584-5.68505c0-2.19431-0.4987-4.08936-1.59584-5.6852
			C183.63919,59.25743,182.24284,57.96081,180.44754,57.06316z M174.66264,74.31803h-9.17606V59.05795h9.17606
			c1.59584,0,2.89244,0.29922,3.88985,0.69818c1.39635,0.59844,2.39374,1.59583,3.19165,2.79271
			c0.79793,1.29661,1.19688,2.59318,1.19688,4.08926c0,1.49609-0.39896,2.89255-1.19688,4.08942
			c-0.79791,1.29662-1.7953,2.19427-3.19165,2.79271C177.65483,74.01891,176.35822,74.31803,174.66264,74.31803z"/>
		<path d="M208.674,56.56449c-1.59583-0.89765-3.39114-1.39636-5.28619-1.39636s-3.69035,0.49871-5.28619,1.39636
			c-1.59583,0.89766-2.89244,2.19427-3.88983,3.88984c-0.89766,1.59583-1.39635,3.39114-1.39635,5.28621v10.57238
			c0,1.89505,0.49869,3.69036,1.39635,5.28619s2.19426,2.89244,3.88983,3.88984c1.59584,0.89765,3.39114,1.39635,5.28619,1.39635
			s3.69037-0.4987,5.28619-1.39635c1.59583-0.89766,2.89244-2.19427,3.88983-3.88984
			c0.89766-1.59583,1.39636-3.39114,1.39636-5.28619V65.74054c0-1.89507-0.4987-3.69038-1.39636-5.28621
			C211.56644,58.8585,210.26982,57.56189,208.674,56.56449z M203.3878,58.45954c1.29662,0,2.49348,0.29921,3.59062,0.89764
			c0.89766,0.4987,1.69557,1.19687,2.29401,1.99479L196.0071,77.41006c-0.09975-0.39896-0.09975-0.69818-0.09975-0.9974V65.84028
			c0-1.29665,0.29921-2.59325,0.99739-3.69038s1.59584-1.99479,2.69296-2.69296
			C200.79459,58.75876,201.99146,58.45954,203.3878,58.45954z M203.3878,83.69364c-1.29662,0-2.49348-0.29922-3.59062-0.89766
			c-0.89764-0.4987-1.69557-1.19687-2.29401-1.99479l13.1656-16.05807c0.09975,0.39898,0.09975,0.6982,0.09975,0.99741v10.57238
			c0,1.39635-0.29921,2.59322-0.99739,3.69036c-0.69818,1.09713-1.59584,1.99479-2.69296,2.69296
			C205.88129,83.39442,204.68442,83.69364,203.3878,83.69364z"/>
		<path d="M236.10234,71.02673l10.67212-13.86383l1.09714-1.39635h-1.7953h-1.9948h-0.39896l-0.19948,0.29922l-9.47525,12.2679
			l-9.3755-12.2679l-0.29922-0.29922h-0.39896h-1.99478h-1.69557l0.99739,1.39635l10.67212,13.86383l-10.67212,13.86368
			l-0.99739,1.39635h1.69557h1.99478h0.39896l0.29922-0.29912l9.3755-12.26795l9.47525,12.26795l0.19948,0.29912h0.39896h1.9948
			h1.7953l-1.09714-1.39635L236.10234,71.02673z"/>
		<path d="M257.24731,55.76654h-0.89767v0.79792v28.92449v0.79781h0.89767h20.34653h0.79791v-0.79781v-1.59593V83.0951h-0.79791
			h-17.95279V72.2236h15.45932h0.89764v-0.89775v-1.49609V68.9321h-0.89764h-15.45932v-9.97389h17.95279h0.79791v-0.79792v-1.59583
			v-0.79792h-0.79791C277.59384,55.76654,257.24731,55.76654,257.24731,55.76654z"/>
		<path d="M288.56519,55.76654h-0.89764v0.79792v1.59583v0.79792h0.89764h7.67993v24.03725h-7.67993h-0.89764v0.89756v1.49609
			v0.89766h0.89764h18.65128h0.89764v-0.89766v-1.49609v-0.89756h-0.89764h-7.77966V58.95821h7.77966h0.89764v-0.79792v-1.59583
			v-0.79792h-0.89764H288.56519z"/>
		<path d="M334.54507,57.46212c-1.89505-1.09713-3.98959-1.69557-6.28357-1.69557h-10.67215h-0.89764v0.89766v28.82475v0.89755
			h0.89764h10.67215c2.29398,0,4.38852-0.59834,6.28357-1.69547s3.39114-2.69306,4.58801-4.58811
			c1.09714-1.89505,1.69556-3.98958,1.69556-6.28358v-5.58531c0-2.29401-0.59842-4.38858-1.69556-6.28363
			C337.93622,60.05534,336.44012,58.55925,334.54507,57.46212z M319.98312,58.95821h8.17862
			c1.69559,0,3.19165,0.39896,4.68774,1.29662c1.39636,0.79791,2.59323,1.99478,3.39117,3.39114
			c0.79788,1.39634,1.2966,2.99223,1.2966,4.58806v5.58531c0,1.69557-0.39896,3.19166-1.2966,4.58801
			c-0.79794,1.39635-1.99481,2.59322-3.39117,3.39114c-1.39633,0.79791-2.99216,1.29661-4.68774,1.29661h-8.17862V58.95821z"/>
		<path d="M365.56403,56.8637c-1.99478-1.09713-4.08929-1.69556-6.3833-1.69556s-4.48828,0.59843-6.38333,1.69556
			c-1.99478,1.09714-3.49088,2.69298-4.68774,4.68777c-1.09714,1.99479-1.69559,4.08934-1.69559,6.38334v6.28358
			c0,2.29401,0.59845,4.48827,1.69559,6.38332c1.09714,1.99479,2.69296,3.49088,4.68774,4.68775
			c1.99478,1.09714,4.08932,1.69557,6.38333,1.69557s4.48828-0.59843,6.3833-1.69557
			c1.89505-1.09713,3.49091-2.69296,4.68777-4.68775c1.09714-1.99479,1.69556-4.08932,1.69556-6.38332v-6.28358
			c0-2.29401-0.59842-4.4883-1.69556-6.38334C369.15466,59.55667,367.55884,57.96083,365.56403,56.8637z M359.18073,83.69364
			c-1.69559,0-3.29141-0.39896-4.78751-1.29662c-1.49609-0.79791-2.59323-1.99479-3.49088-3.49088
			c-0.79791-1.49609-1.2966-3.09192-1.2966-4.78749v-6.28358c0-1.69557,0.39893-3.29142,1.2966-4.78751
			c0.79791-1.49609,1.99478-2.59322,3.49088-3.49088c1.49609-0.79792,3.09192-1.29662,4.78751-1.29662
			c1.69556,0,3.29138,0.39896,4.78748,1.29662c1.49609,0.79791,2.59323,1.99479,3.49088,3.49088
			c0.79791,1.49609,1.29663,3.09194,1.29663,4.78751v6.28358c0,1.69557-0.39896,3.2914-1.29663,4.78749
			c-0.79788,1.49609-1.99478,2.59323-3.49088,3.49088C362.57187,83.29468,360.87628,83.69364,359.18073,83.69364z"/>
		<path d="M400.3721,55.76654h-0.89764v0.79792v25.23403l-18.65128-25.83247l-0.29922-0.19948h-0.29922h-1.59583h-0.89764v0.79792
			v28.92449v0.79781h0.89764h1.49609h0.89767v-0.79781V60.65378l18.45178,25.63299h0.89764h1.49609h0.89764v-0.79781v-28.9245
			v-0.79792h-0.89764H400.3721z"/>
		<path d="M440.06943,83.0951V55.76654h-3.29144v29.72241v0.89755h0.89767h21.64346h0.89764v-3.2914
			C460.21677,83.09511,440.06943,83.09511,440.06943,83.0951z"/>
		<path d="M516.56958,70.42819c0.79791-0.59843,1.3963-1.29661,1.89502-2.09453c0.79791-1.29662,1.1969-2.69296,1.1969-4.189
			c0-1.59583-0.39899-3.09193-1.1969-4.38854s-1.89502-2.29401-3.39111-3.09192c-1.1969-0.59844-2.79272-0.89766-4.78751-0.89766
			h-11.56979h-0.89764v0.89766v28.82475v0.89755h0.89764h12.06848c1.29663,0,2.39374-0.09974,3.19165-0.29922
			s1.59583-0.4987,2.29401-0.79792c1.29663-0.69817,2.39374-1.7952,3.19165-3.09182c0.79797-1.29662,1.1969-2.7928,1.1969-4.38863
			c0-1.79531-0.49872-3.39114-1.59583-4.88724C518.36487,71.82455,517.56696,71.02663,516.56958,70.42819z M510.98413,83.0951
			h-9.77444V72.42298h10.37289c1.29663,0,2.29401,0.19948,2.99219,0.4987c0.89764,0.39896,1.69556,1.09714,2.19427,1.89505
			c0.59845,0.89766,0.79791,1.79541,0.79791,2.89255c0,0.99739-0.29919,1.99469-0.79791,2.89234
			c-0.49872,0.89766-1.1969,1.49609-2.09454,1.99479c-0.39893,0.19948-0.79791,0.29932-1.29657,0.39906
			C512.77948,83.0952,511.98154,83.0951,510.98413,83.0951z M513.67712,68.53324c-0.69818,0.39896-1.79532,0.59834-3.09195,0.59834
			h-9.37549V58.95821h8.67734c2.09451,0,3.09192,0.19947,3.59058,0.39895c0.89771,0.39896,1.59589,0.99739,2.19427,1.79532
			c0.59845,0.79792,0.79791,1.69557,0.79791,2.89245c0,0.99739-0.19946,1.8951-0.69812,2.69301
			C515.17322,67.53585,514.47504,68.13428,513.67712,68.53324z"/>
		<path d="M548.76331,66.45312h1.48749h0.89252v-0.89248c0-1.9833-0.49585-3.86743-1.58667-5.45407
			c-0.99164-1.58664-2.37994-2.87579-4.16492-3.66911c-1.68579-0.89249-3.66907-1.28913-5.6524-1.28913
			c-2.08246,0-3.96655,0.39665-5.6524,1.0908c-1.68579,0.69416-2.97491,1.78498-3.86743,3.07412
			c-0.89246,1.38831-1.38831,2.97494-1.38831,4.66074c0,1.78498,0.49585,3.17329,1.48749,4.36326
			c0.89252,1.09081,2.18164,1.9833,3.76825,2.57829c1.48749,0.59499,3.47076,1.09082,5.85071,1.58664
			c2.08252,0.39666,3.76831,0.79332,4.75995,1.18998c0.99164,0.29749,1.68579,0.79332,2.28076,1.38831
			c0.59503,0.59499,0.79333,1.48747,0.79333,2.67744c0,1.78497-0.69415,3.17328-2.18158,4.26409
			c-1.48749,1.09081-3.47083,1.68581-5.75159,1.68581c-1.88416,0-3.56995-0.2975-4.85907-0.99165
			c-1.38831-0.69415-2.38-1.58663-3.07416-2.77661c-0.69409-1.18998-1.09076-2.57829-1.09076-4.16492v-0.89249h-0.69415h-1.48749
			h-0.89252v0.89249c0,2.18163,0.49585,4.06576,1.48749,5.75156c0.99164,1.68581,2.47913,2.97495,4.36328,3.9666
			c1.88409,0.89249,3.96655,1.38831,6.3465,1.38831c1.98334,0,3.76831-0.29749,5.4541-0.99165s3.0741-1.68581,4.16492-2.97495
			c1.09082-1.38831,1.58667-3.07411,1.58667-5.05741s-0.49585-3.56994-1.48749-4.75991
			c-0.99164-1.09081-2.18164-1.88413-3.56995-2.37996c-1.28918-0.39666-3.0741-0.89249-5.35492-1.38831
			c-2.18158-0.49583-3.86743-0.89249-5.05737-1.28915c-1.09082-0.39666-1.98334-0.89248-2.67749-1.58664
			c-0.59497-0.59499-0.89246-1.48748-0.89246-2.57829c0-1.28914,0.29749-2.28078,0.99164-3.0741s1.68579-1.48748,2.77661-1.88414
			c1.19-0.39666,2.47913-0.69415,3.86743-0.69415c1.48749,0,2.97498,0.2975,4.16492,0.89249
			c1.19,0.59499,2.18164,1.48746,2.87579,2.57827s1.09082,2.37997,1.09082,3.86744v0.89248
			C547.87085,66.45311,548.76331,66.45311,548.76331,66.45312z"/>
		<path d="M479.66495,55.76654h-2.99219l-12.66687,30.61996h3.29138l3.98956-9.67463h13.56458l3.98959,9.67463h3.29138
			L479.66495,55.76654z M478.16885,60.15508l5.38596,13.16556h-10.77188L478.16885,60.15508z"/>
	</g>
</g>
<g id="white" class="st0">
	<g id="logo-type_00000036937859187699216980000016901992163355602078_" class="st1">
		<path class="st2" d="M180.44754,57.06316c-1.79532-0.89765-3.69037-1.29661-5.7849-1.29661h-11.56979h-0.89764v0.89766v28.82475
			v0.89755h0.89764h1.49609h0.89764v-0.89755v-7.87952h9.17606c2.19427,0,4.08932-0.39896,5.68515-1.19688
			c1.7953-0.89765,3.2914-2.29401,4.38853-3.98958s1.59584-3.69026,1.59584-5.68505c0-2.19431-0.4987-4.08936-1.59584-5.6852
			C183.63919,59.25743,182.24284,57.96081,180.44754,57.06316z M174.66264,74.31803h-9.17606V59.05795h9.17606
			c1.59584,0,2.89244,0.29922,3.88985,0.69818c1.39635,0.59844,2.39374,1.59583,3.19165,2.79271
			c0.79793,1.29661,1.19688,2.59318,1.19688,4.08926c0,1.49609-0.39896,2.89255-1.19688,4.08942
			c-0.79791,1.29662-1.7953,2.19427-3.19165,2.79271C177.65483,74.01891,176.35822,74.31803,174.66264,74.31803z"/>
		<path class="st2" d="M208.674,56.56449c-1.59583-0.89765-3.39114-1.39636-5.28619-1.39636s-3.69035,0.49871-5.28619,1.39636
			c-1.59583,0.89766-2.89244,2.19427-3.88983,3.88984c-0.89766,1.59583-1.39635,3.39114-1.39635,5.28621v10.57238
			c0,1.89505,0.49869,3.69036,1.39635,5.28619s2.19426,2.89244,3.88983,3.88984c1.59584,0.89765,3.39114,1.39635,5.28619,1.39635
			s3.69037-0.4987,5.28619-1.39635c1.59583-0.89766,2.89244-2.19427,3.88983-3.88984
			c0.89766-1.59583,1.39636-3.39114,1.39636-5.28619V65.74054c0-1.89507-0.4987-3.69038-1.39636-5.28621
			C211.56644,58.8585,210.26982,57.56189,208.674,56.56449z M203.3878,58.45954c1.29662,0,2.49348,0.29921,3.59062,0.89764
			c0.89766,0.4987,1.69557,1.19687,2.29401,1.99479L196.0071,77.41006c-0.09975-0.39896-0.09975-0.69818-0.09975-0.9974V65.84028
			c0-1.29665,0.29921-2.59325,0.99739-3.69038s1.59584-1.99479,2.69296-2.69296
			C200.79459,58.75876,201.99146,58.45954,203.3878,58.45954z M203.3878,83.69364c-1.29662,0-2.49348-0.29922-3.59062-0.89766
			c-0.89764-0.4987-1.69557-1.19687-2.29401-1.99479l13.1656-16.05807c0.09975,0.39898,0.09975,0.6982,0.09975,0.99741v10.57238
			c0,1.39635-0.29921,2.59322-0.99739,3.69036c-0.69818,1.09713-1.59584,1.99479-2.69296,2.69296
			C205.88129,83.39442,204.68442,83.69364,203.3878,83.69364z"/>
		<path class="st2" d="M236.10234,71.02673l10.67212-13.86383l1.09714-1.39635h-1.7953h-1.9948h-0.39896l-0.19948,0.29922
			l-9.47525,12.2679l-9.3755-12.2679l-0.29922-0.29922h-0.39896h-1.99478h-1.69557l0.99739,1.39635l10.67212,13.86383
			l-10.67212,13.86368l-0.99739,1.39635h1.69557h1.99478h0.39896l0.29922-0.29912l9.3755-12.26795l9.47525,12.26795l0.19948,0.29912
			h0.39896h1.9948h1.7953l-1.09714-1.39635L236.10234,71.02673z"/>
		<path class="st2" d="M257.24731,55.76654h-0.89767v0.79792v28.92449v0.79781h0.89767h20.34653h0.79791v-0.79781v-1.59593V83.0951
			h-0.79791h-17.95279V72.2236h15.45932h0.89764v-0.89775v-1.49609V68.9321h-0.89764h-15.45932v-9.97389h17.95279h0.79791v-0.79792
			v-1.59583v-0.79792h-0.79791C277.59384,55.76654,257.24731,55.76654,257.24731,55.76654z"/>
		<path class="st2" d="M288.56519,55.76654h-0.89764v0.79792v1.59583v0.79792h0.89764h7.67993v24.03725h-7.67993h-0.89764v0.89756
			v1.49609v0.89766h0.89764h18.65128h0.89764v-0.89766v-1.49609v-0.89756h-0.89764h-7.77966V58.95821h7.77966h0.89764v-0.79792
			v-1.59583v-0.79792h-0.89764H288.56519z"/>
		<path class="st2" d="M334.54507,57.46212c-1.89505-1.09713-3.98959-1.69557-6.28357-1.69557h-10.67215h-0.89764v0.89766v28.82475
			v0.89755h0.89764h10.67215c2.29398,0,4.38852-0.59834,6.28357-1.69547s3.39114-2.69306,4.58801-4.58811
			c1.09714-1.89505,1.69556-3.98958,1.69556-6.28358v-5.58531c0-2.29401-0.59842-4.38858-1.69556-6.28363
			C337.93622,60.05534,336.44012,58.55925,334.54507,57.46212z M319.98312,58.95821h8.17862
			c1.69559,0,3.19165,0.39896,4.68774,1.29662c1.39636,0.79791,2.59323,1.99478,3.39117,3.39114
			c0.79788,1.39634,1.2966,2.99223,1.2966,4.58806v5.58531c0,1.69557-0.39896,3.19166-1.2966,4.58801
			c-0.79794,1.39635-1.99481,2.59322-3.39117,3.39114c-1.39633,0.79791-2.99216,1.29661-4.68774,1.29661h-8.17862V58.95821z"/>
		<path class="st2" d="M365.56403,56.8637c-1.99478-1.09713-4.08929-1.69556-6.3833-1.69556s-4.48828,0.59843-6.38333,1.69556
			c-1.99478,1.09714-3.49088,2.69298-4.68774,4.68777c-1.09714,1.99479-1.69559,4.08934-1.69559,6.38334v6.28358
			c0,2.29401,0.59845,4.48827,1.69559,6.38332c1.09714,1.99479,2.69296,3.49088,4.68774,4.68775
			c1.99478,1.09714,4.08932,1.69557,6.38333,1.69557s4.48828-0.59843,6.3833-1.69557
			c1.89505-1.09713,3.49091-2.69296,4.68777-4.68775c1.09714-1.99479,1.69556-4.08932,1.69556-6.38332v-6.28358
			c0-2.29401-0.59842-4.4883-1.69556-6.38334C369.15466,59.55667,367.55884,57.96083,365.56403,56.8637z M359.18073,83.69364
			c-1.69559,0-3.29141-0.39896-4.78751-1.29662c-1.49609-0.79791-2.59323-1.99479-3.49088-3.49088
			c-0.79791-1.49609-1.2966-3.09192-1.2966-4.78749v-6.28358c0-1.69557,0.39893-3.29142,1.2966-4.78751
			c0.79791-1.49609,1.99478-2.59322,3.49088-3.49088c1.49609-0.79792,3.09192-1.29662,4.78751-1.29662
			c1.69556,0,3.29138,0.39896,4.78748,1.29662c1.49609,0.79791,2.59323,1.99479,3.49088,3.49088
			c0.79791,1.49609,1.29663,3.09194,1.29663,4.78751v6.28358c0,1.69557-0.39896,3.2914-1.29663,4.78749
			c-0.79788,1.49609-1.99478,2.59323-3.49088,3.49088C362.57187,83.29468,360.87628,83.69364,359.18073,83.69364z"/>
		<path class="st2" d="M400.3721,55.76654h-0.89764v0.79792v25.23403l-18.65128-25.83247l-0.29922-0.19948h-0.29922h-1.59583
			h-0.89764v0.79792v28.92449v0.79781h0.89764h1.49609h0.89767v-0.79781V60.65378l18.45178,25.63299h0.89764h1.49609h0.89764
			v-0.79781v-28.9245v-0.79792h-0.89764H400.3721z"/>
		<path class="st2" d="M440.06943,83.0951V55.76654h-3.29144v29.72241v0.89755h0.89767h21.64346h0.89764v-3.2914
			C460.21677,83.09511,440.06943,83.09511,440.06943,83.0951z"/>
		<path class="st2" d="M516.56958,70.42819c0.79791-0.59843,1.3963-1.29661,1.89502-2.09453
			c0.79791-1.29662,1.1969-2.69296,1.1969-4.189c0-1.59583-0.39899-3.09193-1.1969-4.38854s-1.89502-2.29401-3.39111-3.09192
			c-1.1969-0.59844-2.79272-0.89766-4.78751-0.89766h-11.56979h-0.89764v0.89766v28.82475v0.89755h0.89764h12.06848
			c1.29663,0,2.39374-0.09974,3.19165-0.29922s1.59583-0.4987,2.29401-0.79792c1.29663-0.69817,2.39374-1.7952,3.19165-3.09182
			c0.79797-1.29662,1.1969-2.7928,1.1969-4.38863c0-1.79531-0.49872-3.39114-1.59583-4.88724
			C518.36487,71.82455,517.56696,71.02663,516.56958,70.42819z M510.98413,83.0951h-9.77444V72.42298h10.37289
			c1.29663,0,2.29401,0.19948,2.99219,0.4987c0.89764,0.39896,1.69556,1.09714,2.19427,1.89505
			c0.59845,0.89766,0.79791,1.79541,0.79791,2.89255c0,0.99739-0.29919,1.99469-0.79791,2.89234
			c-0.49872,0.89766-1.1969,1.49609-2.09454,1.99479c-0.39893,0.19948-0.79791,0.29932-1.29657,0.39906
			C512.77948,83.0952,511.98154,83.0951,510.98413,83.0951z M513.67712,68.53324c-0.69818,0.39896-1.79532,0.59834-3.09195,0.59834
			h-9.37549V58.95821h8.67734c2.09451,0,3.09192,0.19947,3.59058,0.39895c0.89771,0.39896,1.59589,0.99739,2.19427,1.79532
			c0.59845,0.79792,0.79791,1.69557,0.79791,2.89245c0,0.99739-0.19946,1.8951-0.69812,2.69301
			C515.17322,67.53585,514.47504,68.13428,513.67712,68.53324z"/>
		<path class="st2" d="M548.76331,66.45312h1.48749h0.89252v-0.89248c0-1.9833-0.49585-3.86743-1.58667-5.45407
			c-0.99164-1.58664-2.37994-2.87579-4.16492-3.66911c-1.68579-0.89249-3.66907-1.28913-5.6524-1.28913
			c-2.08246,0-3.96655,0.39665-5.6524,1.0908c-1.68579,0.69416-2.97491,1.78498-3.86743,3.07412
			c-0.89246,1.38831-1.38831,2.97494-1.38831,4.66074c0,1.78498,0.49585,3.17329,1.48749,4.36326
			c0.89252,1.09081,2.18164,1.9833,3.76825,2.57829c1.48749,0.59499,3.47076,1.09082,5.85071,1.58664
			c2.08252,0.39666,3.76831,0.79332,4.75995,1.18998c0.99164,0.29749,1.68579,0.79332,2.28076,1.38831
			c0.59503,0.59499,0.79333,1.48747,0.79333,2.67744c0,1.78497-0.69415,3.17328-2.18158,4.26409
			c-1.48749,1.09081-3.47083,1.68581-5.75159,1.68581c-1.88416,0-3.56995-0.2975-4.85907-0.99165
			c-1.38831-0.69415-2.38-1.58663-3.07416-2.77661c-0.69409-1.18998-1.09076-2.57829-1.09076-4.16492v-0.89249h-0.69415h-1.48749
			h-0.89252v0.89249c0,2.18163,0.49585,4.06576,1.48749,5.75156c0.99164,1.68581,2.47913,2.97495,4.36328,3.9666
			c1.88409,0.89249,3.96655,1.38831,6.3465,1.38831c1.98334,0,3.76831-0.29749,5.4541-0.99165s3.0741-1.68581,4.16492-2.97495
			c1.09082-1.38831,1.58667-3.07411,1.58667-5.05741s-0.49585-3.56994-1.48749-4.75991
			c-0.99164-1.09081-2.18164-1.88413-3.56995-2.37996c-1.28918-0.39666-3.0741-0.89249-5.35492-1.38831
			c-2.18158-0.49583-3.86743-0.89249-5.05737-1.28915c-1.09082-0.39666-1.98334-0.89248-2.67749-1.58664
			c-0.59497-0.59499-0.89246-1.48748-0.89246-2.57829c0-1.28914,0.29749-2.28078,0.99164-3.0741s1.68579-1.48748,2.77661-1.88414
			c1.19-0.39666,2.47913-0.69415,3.86743-0.69415c1.48749,0,2.97498,0.2975,4.16492,0.89249
			c1.19,0.59499,2.18164,1.48746,2.87579,2.57827s1.09082,2.37997,1.09082,3.86744v0.89248
			C547.87085,66.45311,548.76331,66.45311,548.76331,66.45312z"/>
		<path class="st2" d="M479.66495,55.76654h-2.99219l-12.66687,30.61996h3.29138l3.98956-9.67463h13.56458l3.98959,9.67463h3.29138
			L479.66495,55.76654z M478.16885,60.15508l5.38596,13.16556h-10.77188L478.16885,60.15508z"/>
	</g>
</g>
<g id="gradient" class="st0">
	
		<linearGradient id="logo-type_00000176011125562276650250000006320178233807656076_" gradientUnits="userSpaceOnUse" x1="162.19521" y1="72.93332" x2="551.14331" y2="72.93332" gradientTransform="matrix(1 0 0 -1 0 144)">
		<stop  offset="0" style="stop-color:#13B0D8"/>
		<stop  offset="1" style="stop-color:#8A59FF"/>
	</linearGradient>
	
		<path id="logo-type_00000044899808834032304050000010467585246166473654_" style="display:inline;fill:url(#logo-type_00000176011125562276650250000006320178233807656076_);" d="
		M180.44754,57.06316c-1.79532-0.89765-3.69037-1.29661-5.7849-1.29661h-11.56979h-0.89764v0.89766v28.82475v0.89755h0.89764
		h1.49609h0.89764v-0.89755v-7.87952h9.17606c2.19427,0,4.08932-0.39896,5.68515-1.19688
		c1.7953-0.89765,3.2914-2.29401,4.38853-3.98958s1.59584-3.69026,1.59584-5.68505c0-2.19431-0.4987-4.08936-1.59584-5.6852
		C183.63919,59.25743,182.24284,57.96081,180.44754,57.06316z M174.66264,74.31803h-9.17606V59.05795h9.17606
		c1.59584,0,2.89244,0.29922,3.88985,0.69818c1.39635,0.59844,2.39374,1.59583,3.19165,2.79271
		c0.79793,1.29661,1.19688,2.59318,1.19688,4.08926c0,1.49609-0.39896,2.89255-1.19688,4.08942
		c-0.79791,1.29662-1.7953,2.19427-3.19165,2.79271C177.65483,74.01891,176.35822,74.31803,174.66264,74.31803z M208.674,56.56449
		c-1.59583-0.89765-3.39114-1.39636-5.28619-1.39636s-3.69035,0.49871-5.28619,1.39636
		c-1.59583,0.89766-2.89244,2.19427-3.88983,3.88984c-0.89766,1.59583-1.39635,3.39114-1.39635,5.28621v10.57238
		c0,1.89505,0.49869,3.69036,1.39635,5.28619s2.19426,2.89244,3.88983,3.88984c1.59584,0.89765,3.39114,1.39635,5.28619,1.39635
		s3.69037-0.4987,5.28619-1.39635c1.59583-0.89766,2.89244-2.19427,3.88983-3.88984
		c0.89766-1.59583,1.39636-3.39114,1.39636-5.28619V65.74054c0-1.89507-0.4987-3.69038-1.39636-5.28621
		C211.56644,58.8585,210.26982,57.56189,208.674,56.56449z M203.3878,58.45954c1.29662,0,2.49348,0.29921,3.59062,0.89764
		c0.89766,0.4987,1.69557,1.19687,2.29401,1.99479L196.0071,77.41006c-0.09975-0.39896-0.09975-0.69818-0.09975-0.9974V65.84028
		c0-1.29665,0.29921-2.59325,0.99739-3.69038s1.59584-1.99479,2.69296-2.69296
		C200.79459,58.75876,201.99146,58.45954,203.3878,58.45954z M203.3878,83.69364c-1.29662,0-2.49348-0.29922-3.59062-0.89766
		c-0.89764-0.4987-1.69557-1.19687-2.29401-1.99479l13.1656-16.05807c0.09975,0.39898,0.09975,0.6982,0.09975,0.99741v10.57238
		c0,1.39635-0.29921,2.59322-0.99739,3.69036c-0.69818,1.09713-1.59584,1.99479-2.69296,2.69296
		C205.88129,83.39442,204.68442,83.69364,203.3878,83.69364z M246.77446,84.89041l1.09714,1.39635h-1.7953h-1.9948h-0.39896
		l-0.19948-0.29912l-9.47525-12.26795l-9.3755,12.26795l-0.29922,0.29912h-0.39896h-1.99478h-1.69557l0.99739-1.39635
		l10.67212-13.86368L221.24117,57.1629l-0.99739-1.39635h1.69557h1.99478h0.39896l0.29922,0.29922l9.3755,12.2679l9.47525-12.2679
		l0.19948-0.29922h0.39896h1.9948h1.7953l-1.09714,1.39635l-10.67212,13.86383L246.77446,84.89041z M277.59384,55.76654h0.79791
		v0.79792v1.59583v0.79792h-0.79791h-17.95279v9.97389h15.45932h0.89764v0.89766v1.49609v0.89775h-0.89764h-15.45932v10.8715
		h17.95279h0.79791v0.79792v1.59593v0.79781h-0.79791h-20.34653h-0.89767v-0.79781V56.56446v-0.79792h0.89767H277.59384z
		 M307.21646,55.76654h0.89764v0.79792v1.59583v0.79792h-0.89764h-7.77966v24.03725h7.77966h0.89764v0.89756v1.49609v0.89766
		h-0.89764h-18.65128h-0.89764v-0.89766v-1.49609v-0.89756h0.89764h7.67993V58.95821h-7.67993h-0.89764v-0.79792v-1.59583v-0.79792
		h0.89764H307.21646z M334.54507,57.46212c-1.89505-1.09713-3.98959-1.69557-6.28357-1.69557h-10.67215h-0.89764v0.89766v28.82475
		v0.89755h0.89764h10.67215c2.29398,0,4.38852-0.59834,6.28357-1.69547s3.39114-2.69306,4.58801-4.58811
		c1.09714-1.89505,1.69556-3.98958,1.69556-6.28358v-5.58531c0-2.29401-0.59842-4.38858-1.69556-6.28363
		C337.93622,60.05534,336.44012,58.55925,334.54507,57.46212z M319.98312,58.95821h8.17862
		c1.69559,0,3.19165,0.39896,4.68774,1.29662c1.39636,0.79791,2.59323,1.99478,3.39117,3.39114
		c0.79788,1.39634,1.2966,2.99223,1.2966,4.58806v5.58531c0,1.69557-0.39896,3.19166-1.2966,4.58801
		c-0.79794,1.39635-1.99481,2.59322-3.39117,3.39114c-1.39633,0.79791-2.99216,1.29661-4.68774,1.29661h-8.17862V58.95821z
		 M365.56403,56.8637c-1.99478-1.09713-4.08929-1.69556-6.3833-1.69556s-4.48828,0.59843-6.38333,1.69556
		c-1.99478,1.09714-3.49088,2.69298-4.68774,4.68777c-1.09714,1.99479-1.69559,4.08934-1.69559,6.38334v6.28358
		c0,2.29401,0.59845,4.48827,1.69559,6.38332c1.09714,1.99479,2.69296,3.49088,4.68774,4.68775
		c1.99478,1.09714,4.08932,1.69557,6.38333,1.69557s4.48828-0.59843,6.3833-1.69557
		c1.89505-1.09713,3.49091-2.69296,4.68777-4.68775c1.09714-1.99479,1.69556-4.08932,1.69556-6.38332v-6.28358
		c0-2.29401-0.59842-4.4883-1.69556-6.38334C369.15466,59.55667,367.55884,57.96083,365.56403,56.8637z M359.18073,83.69364
		c-1.69559,0-3.29141-0.39896-4.78751-1.29662c-1.49609-0.79791-2.59323-1.99479-3.49088-3.49088
		c-0.79791-1.49609-1.2966-3.09192-1.2966-4.78749v-6.28358c0-1.69557,0.39893-3.29142,1.2966-4.78751
		c0.79791-1.49609,1.99478-2.59322,3.49088-3.49088c1.49609-0.79792,3.09192-1.29662,4.78751-1.29662
		c1.69556,0,3.29138,0.39896,4.78748,1.29662c1.49609,0.79791,2.59323,1.99479,3.49088,3.49088
		c0.79791,1.49609,1.29663,3.09194,1.29663,4.78751v6.28358c0,1.69557-0.39896,3.2914-1.29663,4.78749
		c-0.79788,1.49609-1.99478,2.59323-3.49088,3.49088C362.57187,83.29468,360.87628,83.69364,359.18073,83.69364z
		 M401.86819,55.76654h0.89764v0.79792v28.92449v0.79781h-0.89764h-1.49609h-0.89764l-18.45178-25.63299v24.83517v0.79781H380.125
		h-1.49609h-0.89764v-0.79781V56.56446v-0.79792h0.89764h1.59583h0.29922l0.29922,0.19948l18.65128,25.83247V56.56446v-0.79792
		h0.89764H401.86819z M460.21677,83.0951v3.2914h-0.89764h-21.64346h-0.89767v-0.89755v-29.7224h3.29144V83.0951H460.21677z
		 M516.56958,70.42819c0.79791-0.59843,1.3963-1.29661,1.89502-2.09453c0.79791-1.29662,1.1969-2.69296,1.1969-4.189
		c0-1.59583-0.39899-3.09193-1.1969-4.38854s-1.89502-2.29401-3.39111-3.09192c-1.1969-0.59844-2.79272-0.89766-4.78751-0.89766
		h-11.56979h-0.89764v0.89766v28.82475v0.89755h0.89764h12.06848c1.29663,0,2.39374-0.09974,3.19165-0.29922
		s1.59583-0.4987,2.29401-0.79792c1.29663-0.69817,2.39374-1.7952,3.19165-3.09182c0.79797-1.29662,1.1969-2.7928,1.1969-4.38863
		c0-1.79531-0.49872-3.39114-1.59583-4.88724C518.36487,71.82455,517.56696,71.02663,516.56958,70.42819z M510.98413,83.0951
		h-9.77444V72.42298h10.37289c1.29663,0,2.29401,0.19948,2.99219,0.4987c0.89764,0.39896,1.69556,1.09714,2.19427,1.89505
		c0.59845,0.89766,0.79791,1.79541,0.79791,2.89255c0,0.99739-0.29919,1.99469-0.79791,2.89234
		c-0.49872,0.89766-1.1969,1.49609-2.09454,1.99479c-0.39893,0.19948-0.79791,0.29932-1.29657,0.39906
		C512.77948,83.0952,511.98154,83.0951,510.98413,83.0951z M513.67712,68.53324c-0.69818,0.39896-1.79532,0.59834-3.09195,0.59834
		h-9.37549V58.95821h8.67734c2.09451,0,3.09192,0.19947,3.59058,0.39895c0.89771,0.39896,1.59589,0.99739,2.19427,1.79532
		c0.59845,0.79792,0.79791,1.69557,0.79791,2.89245c0,0.99739-0.19946,1.8951-0.69812,2.69301
		C515.17322,67.53585,514.47504,68.13428,513.67712,68.53324z M547.87085,66.45312v-0.89248
		c0-1.48747-0.39667-2.77663-1.09082-3.86744s-1.68579-1.98329-2.87579-2.57827c-1.18994-0.59499-2.67743-0.89249-4.16492-0.89249
		c-1.38831,0-2.67743,0.29749-3.86743,0.69415c-1.09082,0.39666-2.08246,1.09082-2.77661,1.88414s-0.99164,1.78496-0.99164,3.0741
		c0,1.09081,0.29749,1.98331,0.89246,2.57829c0.69415,0.69416,1.58667,1.18998,2.67749,1.58664
		c1.18994,0.39666,2.87579,0.79332,5.05737,1.28915c2.28082,0.49582,4.06573,0.99165,5.35492,1.38831
		c1.38831,0.49583,2.57831,1.28915,3.56995,2.37996c0.99164,1.18997,1.48749,2.77661,1.48749,4.75991
		s-0.49585,3.6691-1.58667,5.05741c-1.09082,1.28914-2.47913,2.28079-4.16492,2.97495s-3.47076,0.99165-5.4541,0.99165
		c-2.37994,0-4.4624-0.49582-6.3465-1.38831c-1.88416-0.99165-3.37164-2.28079-4.36328-3.9666
		c-0.99164-1.6858-1.48749-3.56993-1.48749-5.75156v-0.89249h0.89252h1.48749h0.69415v0.89249
		c0,1.58663,0.39667,2.97495,1.09076,4.16492c0.69415,1.18998,1.68585,2.08246,3.07416,2.77661
		c1.28912,0.69415,2.97491,0.99165,4.85907,0.99165c2.28076,0,4.2641-0.59499,5.75159-1.68581
		c1.48743-1.09081,2.18158-2.47912,2.18158-4.26409c0-1.18997-0.1983-2.08246-0.79333-2.67744
		c-0.59497-0.59499-1.28912-1.09082-2.28076-1.38831c-0.99164-0.39666-2.67743-0.79332-4.75995-1.18998
		c-2.37994-0.49582-4.36322-0.99165-5.85071-1.58664c-1.58661-0.59499-2.87573-1.48747-3.76825-2.57829
		c-0.99164-1.18997-1.48749-2.57829-1.48749-4.36326c0-1.6858,0.49585-3.27243,1.38831-4.66074
		c0.89252-1.28914,2.18164-2.37996,3.86743-3.07412c1.68585-0.69415,3.56995-1.0908,5.6524-1.0908
		c1.98334,0,3.96661,0.39664,5.6524,1.28913c1.78497,0.79332,3.17328,2.08247,4.16492,3.66911
		c1.09082,1.58664,1.58667,3.47077,1.58667,5.45407v0.89248h-0.89252h-1.48749H547.87085z M479.66495,55.76654h-2.99219
		l-12.66687,30.61996h3.29138l3.98956-9.67463h13.56458l3.98959,9.67463h3.29138L479.66495,55.76654z M478.16885,60.15508
		l5.38596,13.16556h-10.77188L478.16885,60.15508z"/>
</g>
<g id="Layer_4">
	<g>
		
			<linearGradient id="SVGID_1_" gradientUnits="userSpaceOnUse" x1="57.00541" y1="103.0499" x2="73.05885" y2="89.86487" gradientTransform="matrix(1 0 0 -1 0 144)">
			<stop  offset="0.11558" style="stop-color:#09A8F9"/>
			<stop  offset="1" style="stop-color:#6BA6FF"/>
		</linearGradient>
		<path class="st4" d="M60.17725,41.1161c-0.24813,0-0.48859,0.0582-0.71004,0.15933v20.61464L80.24118,41.1161H60.17725z"/>
		
			<linearGradient id="SVGID_00000169554411932686735500000014209506532259330690_" gradientUnits="userSpaceOnUse" x1="60.63021" y1="109.52409" x2="50.93457" y2="84.77343" gradientTransform="matrix(1 0 0 -1 0 144)">
			<stop  offset="0" style="stop-color:#20DFF0"/>
			<stop  offset="1" style="stop-color:#0078BB"/>
		</linearGradient>
		<path style="fill:url(#SVGID_00000169554411932686735500000014209506532259330690_);" d="M58.96518,41.61816L41.62205,58.96128
			c-1.08081,1.08079-0.31535,2.92879,1.21314,2.92879h16.63202V41.27543C59.28294,41.35961,59.11117,41.47215,58.96518,41.61816z"/>
		
			<linearGradient id="SVGID_00000023971211843743567200000002767254370887965838_" gradientUnits="userSpaceOnUse" x1="62.6874" y1="98.30887" x2="84.80759" y2="80.37036" gradientTransform="matrix(1 0 0 -1 0 144)">
			<stop  offset="0.07141" style="stop-color:#37A1F2"/>
			<stop  offset="0.70196" style="stop-color:#013CD6"/>
		</linearGradient>
		<polygon style="fill:url(#SVGID_00000023971211843743567200000002767254370887965838_);" points="80.24118,61.89007 
			80.24118,41.1161 59.46721,61.89007 59.46723,61.89007 		"/>
		
			<linearGradient id="SVGID_00000137818744546157977060000012745015027851174554_" gradientUnits="userSpaceOnUse" x1="60.32848" y1="84.54659" x2="70.01589" y2="71.50526" gradientTransform="matrix(1 0 0 -1 0 144)">
			<stop  offset="0" style="stop-color:#26ABF5"/>
			<stop  offset="1" style="stop-color:#1E7ED2"/>
		</linearGradient>
		<polygon style="fill:url(#SVGID_00000137818744546157977060000012745015027851174554_);" points="59.46721,61.89008 
			59.46721,82.66402 80.24116,61.89008 		"/>
		
			<linearGradient id="SVGID_00000142164459201980612210000005235885820993446063_" gradientUnits="userSpaceOnUse" x1="63.64168" y1="77.90656" x2="78.36529" y2="63.25144" gradientTransform="matrix(1 0 0 -1 0 144)">
			<stop  offset="0.04594" style="stop-color:#275EEE"/>
			<stop  offset="0.88835" style="stop-color:#0A417B"/>
		</linearGradient>
		<path style="fill:url(#SVGID_00000142164459201980612210000005235885820993446063_);" d="M59.46721,82.66403h20.61464
			c0.10111-0.22138,0.15929-0.46173,0.15931-0.70979V61.89006L59.46721,82.66401V82.66403z"/>
		
			<linearGradient id="SVGID_00000009568970077947687110000004908282770923345851_" gradientUnits="userSpaceOnUse" x1="80.24118" y1="92.49692" x2="100.90248" y2="92.49692" gradientTransform="matrix(1 0 0 -1 0 144)">
			<stop  offset="0" style="stop-color:#3E54F9"/>
			<stop  offset="1" style="stop-color:#446DFA"/>
		</linearGradient>
		<path style="fill:url(#SVGID_00000009568970077947687110000004908282770923345851_);" d="M100.90248,41.22877
			c-0.18982-0.0708-0.39087-0.11267-0.59737-0.11267H80.24118v20.77397L100.90248,41.22877z"/>
		
			<linearGradient id="SVGID_00000176000696573713808010000013490649561393466531_" gradientUnits="userSpaceOnUse" x1="80.24117" y1="92.44059" x2="122.3117" y2="92.44059" gradientTransform="matrix(1 0 0 -1 0 144)">
			<stop  offset="0.10977" style="stop-color:#4A59FA"/>
			<stop  offset="0.21031" style="stop-color:#4846F7"/>
			<stop  offset="0.36215" style="stop-color:#4630F3"/>
			<stop  offset="0.52947" style="stop-color:#4521F1"/>
			<stop  offset="0.7225" style="stop-color:#4418EF"/>
			<stop  offset="1" style="stop-color:#4415EF"/>
		</linearGradient>
		<path style="fill:url(#SVGID_00000176000696573713808010000013490649561393466531_);" d="M101.01514,41.27543
			c-0.03716-0.01696-0.07439-0.03239-0.11266-0.04667l-20.6613,20.6613h0.00002h20.77394V41.27543z"/>
		
			<linearGradient id="SVGID_00000121961619881402086910000006579548512107725501_" gradientUnits="userSpaceOnUse" x1="94.79819" y1="83.2398" x2="125.13396" y2="83.2398" gradientTransform="matrix(1 0 0 -1 0 144)">
			<stop  offset="0.14977" style="stop-color:#5737FF"/>
			<stop  offset="1" style="stop-color:#AE70FF"/>
		</linearGradient>
		<path style="fill:url(#SVGID_00000121961619881402086910000006579548512107725501_);" d="M120.57705,60.678L101.5172,41.61816
			c-0.14602-0.14601-0.31779-0.25855-0.50206-0.34272v20.61464v16.63847c0,1.52609,1.84512,2.29037,2.92423,1.21127
			l16.63767-16.63767C121.24645,62.43273,121.24645,61.34741,120.57705,60.678z"/>
		
			<linearGradient id="SVGID_00000050640010673444425380000006902067578363821479_" gradientUnits="userSpaceOnUse" x1="58.51973" y1="42.29267" x2="76.97591" y2="73.50364" gradientTransform="matrix(1 0 0 -1 0 144)">
			<stop  offset="0.02245" style="stop-color:#1162A2"/>
			<stop  offset="0.4724" style="stop-color:#3E8DCC"/>
			<stop  offset="0.98032" style="stop-color:#76C3FF"/>
		</linearGradient>
		<path style="fill:url(#SVGID_00000050640010673444425380000006902067578363821479_);" d="M80.08185,82.66403H59.46721v16.63568
			c0,1.52711,1.84634,2.2919,2.9262,1.21207l17.34583-17.34583C79.88518,83.01999,79.9977,82.84826,80.08185,82.66403z"/>
		
			<linearGradient id="SVGID_00000130618689138787448600000004563119711632646791_" gradientUnits="userSpaceOnUse" x1="80.812" y1="91.86295" x2="108.66441" y2="92.64724" gradientTransform="matrix(1 0 0 -1 0 144)">
			<stop  offset="0.16168" style="stop-color:#4844F7"/>
			<stop  offset="0.87397" style="stop-color:#271553"/>
		</linearGradient>
		<path style="fill:url(#SVGID_00000130618689138787448600000004563119711632646791_);" d="M90.62817,61.89007h10.38697V41.27543
			c-0.02177-0.00994-0.04398-0.01838-0.06599-0.02733L90.62817,61.89007z"/>
	</g>
</g>
</svg>
