<?xml version="1.0" encoding="utf-8"?>
<!-- Generator: Adobe Illustrator 27.0.0, SVG Export Plug-In . SVG Version: 6.00 Build 0)  -->
<svg version="1.1" id="Layer_2" xmlns="http://www.w3.org/2000/svg" xmlns:xlink="http://www.w3.org/1999/xlink" x="0px" y="0px"
	 viewBox="0 0 300 300" style="enable-background:new 0 0 300 300;" xml:space="preserve">
<style type="text/css">
	.st0{fill:url(#SVGID_1_);}
	.st1{fill:url(#SVGID_00000114782548299283770910000008732703670419187386_);}
	.st2{fill:url(#SVGID_00000134228141860163798520000001573255823182534305_);}
	.st3{fill:url(#SVGID_00000001650074664838840700000015747089339888368287_);}
	.st4{fill:url(#SVGID_00000067205376235977247670000003107552380581063073_);}
	.st5{fill:url(#SVGID_00000019651610438706645780000014855131704223254680_);}
	.st6{fill:url(#SVGID_00000020374458426506942710000005588033409152314261_);}
	.st7{fill:url(#SVGID_00000121971165842915605570000015134611370938973336_);}
	.st8{fill:url(#SVGID_00000016767561657552428110000002806135863989267089_);}
	.st9{fill:url(#SVGID_00000073684748392211883090000011239767956668773513_);}
</style>
<linearGradient id="SVGID_1_" gradientUnits="userSpaceOnUse" x1="82.53571" y1="65.66586" x2="127.48942" y2="102.58732">
	<stop  offset="0.11558" style="stop-color:#09A8F9"/>
	<stop  offset="1" style="stop-color:#6BA6FF"/>
</linearGradient>
<path class="st0" d="M91.41766,66.1307c-0.69482,0-1.36816,0.16296-1.98828,0.44617v57.72626l58.17242-58.17242H91.41766z"/>
<linearGradient id="SVGID_00000044143457666852114360000012070296455483807912_" gradientUnits="userSpaceOnUse" x1="92.68606" y1="47.53645" x2="65.5358" y2="116.84465">
	<stop  offset="0" style="stop-color:#20DFF0"/>
	<stop  offset="1" style="stop-color:#0078BB"/>
</linearGradient>
<path style="fill:url(#SVGID_00000044143457666852114360000012070296455483807912_);" d="M88.02355,67.53658l-48.56519,48.56519
	c-3.02655,3.02649-0.88306,8.20135,3.39709,8.20135h46.57391V66.57687C88.91338,66.81258,88.43237,67.12771,88.02355,67.53658z"/>
<linearGradient id="SVGID_00000117641899275450860880000007160120105126647210_" gradientUnits="userSpaceOnUse" x1="98.44674" y1="78.94195" x2="160.38892" y2="129.17436">
	<stop  offset="0.07141" style="stop-color:#37A1F2"/>
	<stop  offset="0.70196" style="stop-color:#013CD6"/>
</linearGradient>
<polygon style="fill:url(#SVGID_00000117641899275450860880000007160120105126647210_);" points="147.60179,124.30312 
	147.60179,66.1307 89.42937,124.30312 89.42944,124.30312 "/>
<linearGradient id="SVGID_00000006708524994123290530000016787596710807905713_" gradientUnits="userSpaceOnUse" x1="91.84116" y1="117.47988" x2="118.96838" y2="153.99893">
	<stop  offset="0" style="stop-color:#26ABF5"/>
	<stop  offset="1" style="stop-color:#1E7ED2"/>
</linearGradient>
<polygon style="fill:url(#SVGID_00000006708524994123290530000016787596710807905713_);" points="89.42937,124.30315 
	89.42937,182.47551 147.60173,124.30315 "/>
<linearGradient id="SVGID_00000181079163935244866500000005119512407124279487_" gradientUnits="userSpaceOnUse" x1="101.11897" y1="136.07365" x2="142.34882" y2="177.11172">
	<stop  offset="0.04594" style="stop-color:#275EEE"/>
	<stop  offset="0.88835" style="stop-color:#0A417B"/>
</linearGradient>
<path style="fill:url(#SVGID_00000181079163935244866500000005119512407124279487_);" d="M89.42937,182.47554h57.72625
	c0.28314-0.61993,0.44604-1.29297,0.44611-1.98761v-56.18481l-58.17236,58.17236V182.47554z"/>
<linearGradient id="SVGID_00000038390537244977694870000017117230168458348709_" gradientUnits="userSpaceOnUse" x1="147.60179" y1="95.21691" x2="205.45872" y2="95.21691">
	<stop  offset="0" style="stop-color:#3E54F9"/>
	<stop  offset="1" style="stop-color:#446DFA"/>
</linearGradient>
<path style="fill:url(#SVGID_00000038390537244977694870000017117230168458348709_);" d="M205.45872,66.44619
	c-0.53156-0.19824-1.09454-0.31549-1.67279-0.31549h-56.18414v58.17242L205.45872,66.44619z"/>
<linearGradient id="SVGID_00000165199958225089816230000003081226713595235467_" gradientUnits="userSpaceOnUse" x1="147.60179" y1="95.37466" x2="265.41003" y2="95.37466">
	<stop  offset="0.10977" style="stop-color:#4A59FA"/>
	<stop  offset="0.21031" style="stop-color:#4846F7"/>
	<stop  offset="0.36215" style="stop-color:#4630F3"/>
	<stop  offset="0.52947" style="stop-color:#4521F1"/>
	<stop  offset="0.7225" style="stop-color:#4418EF"/>
	<stop  offset="1" style="stop-color:#4415EF"/>
</linearGradient>
<path style="fill:url(#SVGID_00000165199958225089816230000003081226713595235467_);" d="M205.77422,66.57687
	c-0.10406-0.04749-0.20831-0.0907-0.31549-0.13068l-57.85693,57.85693h0.00006h58.17236V66.57687z"/>
<linearGradient id="SVGID_00000165915390452553079520000006649702879199608704_" gradientUnits="userSpaceOnUse" x1="188.36514" y1="121.13918" x2="273.31308" y2="121.13918">
	<stop  offset="0.14977" style="stop-color:#5737FF"/>
	<stop  offset="1" style="stop-color:#AE70FF"/>
</linearGradient>
<path style="fill:url(#SVGID_00000165915390452553079520000006649702879199608704_);" d="M260.55255,120.90902L207.1801,67.53658
	c-0.40887-0.40887-0.88989-0.724-1.40588-0.95972v57.72626v46.59197c0,4.27344,5.16681,6.41364,8.1886,3.39185l46.58974-46.58971
	C262.42706,125.82272,262.42706,122.78353,260.55255,120.90902z"/>
<linearGradient id="SVGID_00000044869458359732568880000013549558892730798728_" gradientUnits="userSpaceOnUse" x1="86.77618" y1="235.80165" x2="138.45822" y2="148.40294">
	<stop  offset="0.02245" style="stop-color:#1162A2"/>
	<stop  offset="0.4724" style="stop-color:#3E8DCC"/>
	<stop  offset="0.98032" style="stop-color:#76C3FF"/>
</linearGradient>
<path style="fill:url(#SVGID_00000044869458359732568880000013549558892730798728_);" d="M147.15562,182.47554H89.42937v46.58417
	c0,4.27631,5.17023,6.41791,8.19409,3.3941l48.57275-48.57275C146.6049,183.47231,146.91997,182.99141,147.15562,182.47554z"/>
<linearGradient id="SVGID_00000036959772831754032080000016736426278484935065_" gradientUnits="userSpaceOnUse" x1="149.20024" y1="96.99217" x2="227.19414" y2="94.79597">
	<stop  offset="0.16168" style="stop-color:#4844F7"/>
	<stop  offset="0.87397" style="stop-color:#271553"/>
</linearGradient>
<path style="fill:url(#SVGID_00000036959772831754032080000016736426278484935065_);" d="M176.68803,124.30312h29.08618V66.57687
	c-0.06097-0.02783-0.12317-0.05145-0.18481-0.07654L176.68803,124.30312z"/>
</svg>
