<?xml version="1.0" encoding="utf-8"?>
<!-- Generator: Adobe Illustrator 27.0.0, SVG Export Plug-In . SVG Version: 6.00 Build 0)  -->
<svg version="1.1" xmlns="http://www.w3.org/2000/svg" xmlns:xlink="http://www.w3.org/1999/xlink" x="0px" y="0px"
	 viewBox="0 0 300 300" style="enable-background:new 0 0 300 300;" xml:space="preserve">
<style type="text/css">
	.st0{fill:#FFFFFF;}
	.st1{fill:url(#SVGID_1_);}
	.st2{fill:url(#SVGID_00000082335387914960246250000013871794227433788816_);}
	.st3{fill:url(#SVGID_00000052817505828512720510000012368190748433268891_);}
	.st4{fill:url(#SVGID_00000104694804745393704180000002050435555209632953_);}
	.st5{fill:url(#SVGID_00000139990074854329801860000000999695054476764584_);}
	.st6{fill:url(#SVGID_00000111904804927487185790000002784810087983911336_);}
	.st7{fill:url(#SVGID_00000108300874142226471340000002582158260014400677_);}
	.st8{fill:url(#SVGID_00000156577788207692528200000008131862322081974438_);}
	.st9{fill:url(#SVGID_00000153706258862841614850000005536275080537851577_);}
	.st10{fill:url(#SVGID_00000023243215696789233330000017070946783572725403_);}
</style>
<g id="Layer_1">
	<path class="st0" d="M64.25021,182.7496c-0.87343-0.43672-1.79539-0.63081-2.8144-0.63081h-5.6288h-0.43671v0.43672v14.02348
		v0.43666h0.43671h0.72786h0.43671v-0.43666v-3.83345h4.46423c1.06753,0,1.98949-0.19411,2.76587-0.58229
		c0.87344-0.43672,1.6013-1.11606,2.13506-1.94096s0.77638-1.79535,0.77638-2.76582c0-1.06755-0.24261-1.98952-0.77638-2.7659
		C65.80298,183.81714,65.12364,183.18633,64.25021,182.7496z M61.43581,191.14424h-4.46423v-7.42416h4.46423
		c0.77639,0,1.4072,0.14558,1.89244,0.33968c0.67934,0.29114,1.16458,0.77638,1.55277,1.35867
		c0.3882,0.63081,0.58229,1.2616,0.58229,1.98947c0,0.72786-0.19409,1.40724-0.58229,1.98953
		c-0.38819,0.63081-0.87343,1.06752-1.55277,1.35867C62.89154,190.99872,62.26072,191.14424,61.43581,191.14424z
		 M78.00689,182.50912c-0.77883-0.43808-1.65501-0.68147-2.57986-0.68147s-1.80104,0.24339-2.57986,0.68147
		c-0.77882,0.4381-1.41163,1.07089-1.89839,1.89839c-0.43809,0.77884-0.68147,1.65501-0.68147,2.57988v5.15973
		c0,0.92487,0.24339,1.80104,0.68147,2.57986s1.07088,1.41162,1.89839,1.89839c0.77882,0.4381,1.65501,0.68147,2.57986,0.68147
		s1.80103-0.24338,2.57986-0.68147c0.77882-0.4381,1.41162-1.07089,1.89839-1.89839c0.43809-0.77882,0.68147-1.655,0.68147-2.57986
		v-5.15973c0-0.92487-0.24339-1.80104-0.68147-2.57988C79.41851,183.62869,78.78571,182.9959,78.00689,182.50912z
		 M75.42702,183.43399c0.6328,0,1.21692,0.14603,1.75236,0.43808c0.4381,0.24339,0.82751,0.58412,1.11957,0.97354l-6.474,7.83696
		c-0.04868-0.1947-0.04868-0.34074-0.04868-0.48677v-5.15973c0-0.63281,0.14603-1.26559,0.48676-1.80104
		s0.77883-0.97354,1.31427-1.31427C74.16143,183.58002,74.74555,183.43399,75.42702,183.43399z M75.42702,195.74921
		c-0.6328,0-1.21692-0.14604-1.75236-0.4381c-0.4381-0.24338-0.82751-0.58412-1.11957-0.97354l6.42532-7.83694
		c0.04868,0.19472,0.04868,0.34074,0.04868,0.48677v5.15973c0,0.68147-0.14603,1.26559-0.48676,1.80104
		s-0.77883,0.97353-1.31428,1.31427C76.64394,195.60316,76.05982,195.74921,75.42702,195.74921z M96.51883,196.2878l0.53377,0.67934
		h-0.87344h-0.97048h-0.19409l-0.09705-0.14552l-4.60979-5.96846l-4.56126,5.96846l-0.14558,0.14552h-0.19409h-0.97048h-0.82491
		l0.48524-0.67934l5.19208-6.7448l-5.19208-6.74487l-0.48524-0.67934h0.82491h0.97048h0.19409l0.14558,0.14557l4.56126,5.96844
		l4.60979-5.96844l0.09705-0.14557h0.19409h0.97048h0.87344l-0.53377,0.67934l-5.19208,6.74487L96.51883,196.2878z
		 M111.51273,182.11879h0.38819v0.3882v0.77638v0.38818h-0.38819h-8.7342v4.85239h7.5211h0.43671v0.43672v0.72786v0.43677h-0.43671
		h-7.5211v5.28908h8.7342h0.38819v0.3882v0.77643v0.38814h-0.38819h-9.89877h-0.43672v-0.38814v-14.07201v-0.3882h0.43672H111.51273
		z M125.92439,182.11879h0.43671v0.3882v0.77638v0.38818h-0.43671h-3.78488v11.69434h3.78488h0.43671v0.43668v0.72786v0.43671
		h-0.43671h-9.07401h-0.43671v-0.43671v-0.72786v-0.43668h0.43671h3.73636v-11.69434h-3.73636h-0.43671v-0.38818v-0.77638v-0.3882
		h0.43671H125.92439z M139.21999,182.9437c-0.92195-0.53377-1.94096-0.82491-3.05701-0.82491h-5.19209h-0.43671v0.43672v14.02348
		v0.43666h0.43671h5.19209c1.11604,0,2.13506-0.29109,3.05701-0.82486c0.92197-0.53375,1.64983-1.3102,2.23212-2.23215
		c0.53377-0.92197,0.82491-1.94096,0.82491-3.05702v-2.7173c0-1.11606-0.29114-2.13509-0.82491-3.05704
		C140.86981,184.20532,140.14195,183.47746,139.21999,182.9437z M132.13547,183.67155h3.97897
		c0.82492,0,1.55278,0.19411,2.28064,0.63081c0.67934,0.3882,1.26163,0.97047,1.64983,1.64983
		c0.38818,0.67934,0.6308,1.45575,0.6308,2.23213v2.7173c0,0.82491-0.19409,1.55276-0.6308,2.2321
		c-0.3882,0.67934-0.97049,1.26163-1.64983,1.64983s-1.45572,0.63081-2.28064,0.63081h-3.97897V183.67155z M154.31099,182.65256
		c-0.97049-0.53375-1.9895-0.82491-3.10555-0.82491c-1.11606,0-2.18358,0.29115-3.10555,0.82491
		c-0.97049,0.53377-1.69835,1.31017-2.28064,2.28064c-0.53377,0.97049-0.82491,1.9895-0.82491,3.10556v3.05701
		c0,1.11606,0.29114,2.18359,0.82491,3.10555c0.53377,0.97049,1.31015,1.69835,2.28064,2.28064
		c0.97047,0.53377,1.98949,0.82491,3.10555,0.82491c1.11604,0,2.18358-0.29114,3.10555-0.82491
		c0.92195-0.53377,1.69833-1.31015,2.28062-2.28064c0.53377-0.97047,0.82491-1.98949,0.82491-3.10555v-3.05701
		c0-1.11606-0.29114-2.18359-0.82491-3.10556C156.05786,183.96272,155.28146,183.18633,154.31099,182.65256z M151.20544,195.70557
		c-0.82492,0-1.6013-0.19411-2.32916-0.63081c-0.72786-0.3882-1.26163-0.97049-1.69833-1.69835
		c-0.3882-0.72786-0.63081-1.50424-0.63081-2.32916v-3.05701c0-0.82492,0.19409-1.60132,0.63081-2.32918
		c0.38818-0.72786,0.97047-1.26163,1.69833-1.69833c0.72786-0.3882,1.50424-0.63081,2.32916-0.63081
		c0.82491,0,1.60129,0.19409,2.32915,0.63081c0.72786,0.38818,1.26163,0.97047,1.69835,1.69833
		c0.3882,0.72786,0.63081,1.50426,0.63081,2.32918v3.05701c0,0.82492-0.19409,1.6013-0.63081,2.32916
		c-0.38818,0.72786-0.97049,1.26163-1.69835,1.69835C152.85526,195.51146,152.03035,195.70557,151.20544,195.70557z
		 M171.97327,182.11879h0.43672v0.3882v14.07201v0.38814h-0.43672h-0.72786h-0.43671l-8.97696-12.47066v12.08252v0.38814h-0.43672
		h-0.72786h-0.43672v-0.38814v-14.07201v-0.3882h0.43672h0.77638h0.14557l0.14557,0.09705l9.07402,12.56772v-12.27657v-0.3882
		h0.43671H171.97327z M200.36035,195.41437v1.60129h-0.43672h-10.52972h-0.43672v-0.43666v-14.46021h1.6013v13.29558H200.36035z
		 M227.77646,189.2518c0.38821-0.29114,0.67934-0.63081,0.92197-1.019c0.3882-0.63081,0.58229-1.31015,0.58229-2.03799
		c0-0.77638-0.19409-1.50424-0.58229-2.13506s-0.92197-1.11606-1.64983-1.50424c-0.58228-0.29115-1.35866-0.43672-2.32915-0.43672
		h-5.6288h-0.43671v0.43672v14.02348v0.43666h0.43671h5.87141c0.63081,0,1.16458-0.04852,1.55276-0.14557
		c0.3882-0.09705,0.7764-0.24261,1.11607-0.38818c0.6308-0.33968,1.16457-0.8734,1.55275-1.50421
		c0.38821-0.63081,0.58231-1.35872,0.58231-2.1351c0-0.87343-0.24263-1.64983-0.7764-2.37769
		C228.6499,189.93114,228.2617,189.54295,227.77646,189.2518z M225.05911,195.41437h-4.75536v-5.19208h5.04651
		c0.63081,0,1.11606,0.09705,1.45572,0.24261c0.43671,0.19411,0.82492,0.53377,1.06754,0.92197
		c0.29115,0.43671,0.38818,0.87347,0.38818,1.40724c0,0.48524-0.14557,0.97043-0.38818,1.40715s-0.58229,0.72786-1.01901,0.97049
		c-0.19409,0.09705-0.38818,0.14561-0.6308,0.19414C225.93256,195.41441,225.54436,195.41437,225.05911,195.41437z
		 M226.36926,188.3299c-0.33966,0.19409-0.87343,0.29109-1.50424,0.29109h-4.56126v-4.94943h4.2216
		c1.019,0,1.50424,0.09705,1.74686,0.19409c0.43672,0.19411,0.77638,0.48524,1.06754,0.87344s0.38818,0.82491,0.38818,1.4072
		c0,0.48524-0.09703,0.92198-0.33966,1.31018C227.09714,187.84465,226.75746,188.1358,226.36926,188.3299z M243.03304,187.33983
		v-0.43546c0-0.72575-0.19353-1.35475-0.53221-1.88696c-0.33868-0.53223-0.82253-0.96767-1.40312-1.25797
		c-0.5806-0.29031-1.30635-0.43546-2.0321-0.43546c-0.67738,0-1.30637,0.14514-1.88698,0.33868
		c-0.53221,0.19353-1.01605,0.53221-1.35474,0.91928s-0.48384,0.87091-0.48384,1.49989c0,0.53223,0.14516,0.96768,0.43546,1.25798
		c0.33868,0.33868,0.77414,0.5806,1.30637,0.77414c0.5806,0.19353,1.40312,0.38707,2.46756,0.62898
		c1.11282,0.24193,1.98372,0.48384,2.61272,0.67737c0.67737,0.24193,1.25798,0.629,1.74182,1.16121
		c0.48383,0.58061,0.72575,1.35475,0.72575,2.32242s-0.24193,1.79019-0.77415,2.46756
		c-0.53221,0.629-1.20958,1.11282-2.0321,1.45151s-1.69344,0.48384-2.6611,0.48384c-1.16121,0-2.17726-0.24191-3.09656-0.67737
		c-0.91928-0.48384-1.64503-1.11282-2.12888-1.93535c-0.48383-0.82253-0.72575-1.74181-0.72575-2.80624v-0.43546h0.43546h0.72575
		h0.33868v0.43546c0,0.77414,0.19354,1.45151,0.53221,2.0321c0.3387,0.58061,0.82253,1.01605,1.49989,1.35475
		c0.629,0.33868,1.45151,0.48383,2.3708,0.48383c1.11282,0,2.08051-0.2903,2.80626-0.82253
		c0.72575-0.53221,1.06442-1.20958,1.06442-2.08049c0-0.5806-0.09676-1.01605-0.38705-1.30635
		c-0.29031-0.29031-0.62898-0.53223-1.11282-0.67738c-0.48384-0.19353-1.30637-0.38707-2.32242-0.5806
		c-1.16121-0.24191-2.12888-0.48384-2.85463-0.77414c-0.77414-0.2903-1.40312-0.72575-1.83858-1.25798
		c-0.48384-0.5806-0.72575-1.25797-0.72575-2.12888c0-0.82253,0.24191-1.59665,0.67737-2.27403
		c0.43546-0.62898,1.06444-1.16121,1.88696-1.49989s1.74181-0.53221,2.75787-0.53221c0.96767,0,1.93533,0.19353,2.75786,0.62898
		c0.87091,0.38707,1.54828,1.01605,2.0321,1.79019c0.53223,0.77414,0.77415,1.69344,0.77415,2.6611v0.43546h-0.43547h-0.72575
		H243.03304z M209.82207,182.11879h-1.45573l-6.16255,14.89687h1.60129l1.94096-4.70679h6.59929l1.94096,4.70679h1.60129
		L209.82207,182.11879z M209.09419,184.25385l2.62032,6.40517h-5.2406L209.09419,184.25385z"/>
</g>
<g id="Layer_2">
	<g>
		<linearGradient id="SVGID_1_" gradientUnits="userSpaceOnUse" x1="131.04671" y1="103.27648" x2="143.67592" y2="113.64913">
			<stop  offset="0.11558" style="stop-color:#09A8F9"/>
			<stop  offset="1" style="stop-color:#6BA6FF"/>
		</linearGradient>
		<path class="st1" d="M133.54198,103.40707c-0.19521,0-0.38437,0.04578-0.55858,0.12534v16.21751l16.34285-16.34286H133.54198z"/>
		
			<linearGradient id="SVGID_00000060019016174765950890000014780845064636905638_" gradientUnits="userSpaceOnUse" x1="133.89833" y1="98.18324" x2="126.27078" y2="117.65456">
			<stop  offset="0" style="stop-color:#20DFF0"/>
			<stop  offset="1" style="stop-color:#0078BB"/>
		</linearGradient>
		<path style="fill:url(#SVGID_00000060019016174765950890000014780845064636905638_);" d="M132.58844,103.80204l-13.64381,13.64381
			c-0.85027,0.85026-0.24809,2.30408,0.95437,2.30408h13.0844v-16.21751
			C132.83844,103.59864,132.70329,103.68717,132.58844,103.80204z"/>
		
			<linearGradient id="SVGID_00000076604428500637682980000012963512135948888727_" gradientUnits="userSpaceOnUse" x1="135.51672" y1="107.00624" x2="152.91864" y2="121.11845">
			<stop  offset="0.07141" style="stop-color:#37A1F2"/>
			<stop  offset="0.70196" style="stop-color:#013CD6"/>
		</linearGradient>
		<polygon style="fill:url(#SVGID_00000076604428500637682980000012963512135948888727_);" points="149.32625,119.74993 
			149.32625,103.40707 132.9834,119.74993 132.98341,119.74993 		"/>
		
			<linearGradient id="SVGID_00000009580219104611413740000011061967235888177569_" gradientUnits="userSpaceOnUse" x1="133.66096" y1="117.83302" x2="141.28203" y2="128.09262">
			<stop  offset="0" style="stop-color:#26ABF5"/>
			<stop  offset="1" style="stop-color:#1E7ED2"/>
		</linearGradient>
		<polygon style="fill:url(#SVGID_00000009580219104611413740000011061967235888177569_);" points="132.9834,119.74994 
			132.9834,136.09277 149.32623,119.74994 		"/>
		
			<linearGradient id="SVGID_00000155837328171129900630000013777506012702423171_" gradientUnits="userSpaceOnUse" x1="136.26746" y1="123.05672" x2="147.85049" y2="134.58588">
			<stop  offset="0.04594" style="stop-color:#275EEE"/>
			<stop  offset="0.88835" style="stop-color:#0A417B"/>
		</linearGradient>
		<path style="fill:url(#SVGID_00000155837328171129900630000013777506012702423171_);" d="M132.9834,136.09279h16.21751
			c0.07954-0.17416,0.12531-0.36325,0.12532-0.5584v-15.78447l-16.34283,16.34285V136.09279z"/>
		
			<linearGradient id="SVGID_00000026858977295256662700000016972542142162016151_" gradientUnits="userSpaceOnUse" x1="149.32625" y1="111.5785" x2="165.58047" y2="111.5785">
			<stop  offset="0" style="stop-color:#3E54F9"/>
			<stop  offset="1" style="stop-color:#446DFA"/>
		</linearGradient>
		<path style="fill:url(#SVGID_00000026858977295256662700000016972542142162016151_);" d="M165.58047,103.4957
			c-0.14934-0.05569-0.3075-0.08863-0.46996-0.08863h-15.78427v16.34286L165.58047,103.4957z"/>
		
			<linearGradient id="SVGID_00000016060794460230345980000009325701413569307288_" gradientUnits="userSpaceOnUse" x1="149.32625" y1="111.62282" x2="182.4231" y2="111.62282">
			<stop  offset="0.10977" style="stop-color:#4A59FA"/>
			<stop  offset="0.21031" style="stop-color:#4846F7"/>
			<stop  offset="0.36215" style="stop-color:#4630F3"/>
			<stop  offset="0.52947" style="stop-color:#4521F1"/>
			<stop  offset="0.7225" style="stop-color:#4418EF"/>
			<stop  offset="1" style="stop-color:#4415EF"/>
		</linearGradient>
		<path style="fill:url(#SVGID_00000016060794460230345980000009325701413569307288_);" d="M165.66911,103.53242
			c-0.02924-0.01334-0.05853-0.02548-0.08864-0.03671l-16.25423,16.25423h0.00002h16.34285V103.53242z"/>
		
			<linearGradient id="SVGID_00000138573344076881055230000001609913898830050717_" gradientUnits="userSpaceOnUse" x1="160.77823" y1="118.86105" x2="184.64336" y2="118.86105">
			<stop  offset="0.14977" style="stop-color:#5737FF"/>
			<stop  offset="1" style="stop-color:#AE70FF"/>
		</linearGradient>
		<path style="fill:url(#SVGID_00000138573344076881055230000001609913898830050717_);" d="M181.05843,118.79639l-14.99435-14.99435
			c-0.11487-0.11487-0.25-0.2034-0.39496-0.26962v16.21751v13.08947c0,1.20056,1.45155,1.80183,2.30049,0.9529l13.08882-13.08884
			C181.58505,120.17684,181.58505,119.32302,181.05843,118.79639z"/>
		
			<linearGradient id="SVGID_00000023245252573494442010000008360884990807861632_" gradientUnits="userSpaceOnUse" x1="132.23801" y1="151.07413" x2="146.75748" y2="126.52049">
			<stop  offset="0.02245" style="stop-color:#1162A2"/>
			<stop  offset="0.4724" style="stop-color:#3E8DCC"/>
			<stop  offset="0.98032" style="stop-color:#76C3FF"/>
		</linearGradient>
		<path style="fill:url(#SVGID_00000023245252573494442010000008360884990807861632_);" d="M149.20091,136.09279H132.9834v13.08727
			c0,1.20139,1.45251,1.80304,2.30203,0.95354l13.64594-13.64595C149.04619,136.37282,149.1347,136.23772,149.20091,136.09279z"/>
		
			<linearGradient id="SVGID_00000133520253292601300070000017663337271129937327_" gradientUnits="userSpaceOnUse" x1="149.77531" y1="112.07724" x2="171.68678" y2="111.46024">
			<stop  offset="0.16168" style="stop-color:#4844F7"/>
			<stop  offset="0.87397" style="stop-color:#271553"/>
		</linearGradient>
		<path style="fill:url(#SVGID_00000133520253292601300070000017663337271129937327_);" d="M157.4977,119.74993h8.17142v-16.21751
			c-0.01714-0.00782-0.03461-0.01446-0.05193-0.0215L157.4977,119.74993z"/>
	</g>
</g>
</svg>
