<?xml version="1.0" encoding="utf-8"?>
<!-- Generator: Adobe Illustrator 27.0.0, SVG Export Plug-In . SVG Version: 6.00 Build 0)  -->
<svg version="1.1" id="Layer_1" xmlns="http://www.w3.org/2000/svg" xmlns:xlink="http://www.w3.org/1999/xlink" x="0px" y="0px"
	 viewBox="0 0 160.21234 113.6612" style="enable-background:new 0 0 160.21234 113.6612;" xml:space="preserve">
<g id="Layer_1_00000099664251609101723210000014687597393460785577_">
	<g id="wordmark">
		<g id="black">
			<path d="M26.96691,80.3436c-1.02894-0.51419-2.14225-0.76424-3.4038-0.76424h-7.34558v17.91186h2.43101v-4.97211h4.91457
				c1.2823,0,2.40861-0.23842,3.3471-0.70809c1.03503-0.51724,1.93313-1.33319,2.59724-2.35936
				c0.62096-0.95952,0.94928-2.12648,0.94928-3.3742c0-1.3415-0.31201-2.44762-0.94541-3.36813
				C28.86409,81.65023,28.0318,80.8763,26.96691,80.3436z M27.9693,86.02103c0,0.80545-0.21215,1.53207-0.6359,2.16797
				c-0.42789,0.69564-0.96118,1.16309-1.70411,1.48284c-0.49096,0.27273-1.20569,0.41656-2.06618,0.41656h-4.91457v-8.078h4.91457
				c0.77059,0,1.47647,0.12612,2.09218,0.37257c0.6666,0.28572,1.20154,0.75539,1.67811,1.47012
				C27.7671,84.55784,27.9693,85.24684,27.9693,86.02103z"/>
			<path d="M42.97966,80.07447l-0.01135-0.00691c-1.95222-1.09809-4.31436-1.09809-6.26658,0
				c-0.94403,0.53107-1.72071,1.3072-2.31124,2.31153c-0.54904,0.97583-0.82757,2.03022-0.82757,3.13357v5.9886
				c0,1.10362,0.27853,2.15746,0.8273,3.13329c0.53024,0.94319,1.30637,1.72044,2.31152,2.3118
				c0.97611,0.54932,2.03049,0.82757,3.13329,0.82757s2.15718-0.27826,3.13329-0.82757
				c0.9443-0.53162,1.72126-1.30776,2.3118-2.3118c0.54877-0.97583,0.82702-2.03022,0.82702-3.13329v-5.9886
				c0-1.10307-0.27825-2.15746-0.83394-3.1449C44.68792,81.43119,43.91621,80.65975,42.97966,80.07447z M42.80374,83.02355
				l-6.92295,8.38033v-5.83481c0-0.7327,0.18006-1.40317,0.52083-1.93839c0.37119-0.58334,0.85523-1.06738,1.42918-1.43305
				c0.624-0.36401,1.24219-0.52636,2.00423-0.52636c0.68319,0,1.32185,0.15959,1.89662,0.47298
				c0.40686,0.22598,0.77391,0.52746,1.07208,0.8793H42.80374z M43.73282,85.67086v5.83038
				c0,0.76451-0.16541,1.38022-0.52083,1.93839c-0.37119,0.58362-0.85523,1.06766-1.42918,1.43332
				c-0.61543,0.35903-1.23417,0.52608-1.9478,0.52608c-0.68347,0-1.32186-0.15932-1.89635-0.47298
				c-0.40715-0.22625-0.77447-0.52774-1.07292-0.87958L43.73282,85.67086z"/>
			<polygon points="81.2767,79.57825 78.85178,79.57825 78.85178,97.43424 92.65286,97.43424 92.65286,95.00959 81.2767,95.00959 
							"/>
			<polygon points="65.61662,79.57935 62.50933,79.57935 57.18152,86.51669 51.8172,79.57935 48.833,79.57935 55.63645,88.50707 
				48.833,97.43479 51.81747,97.43479 57.18152,90.49719 62.50933,97.43479 65.61662,97.43479 58.72438,88.50707 			"/>
			<path d="M124.66508,88.11569c0.31588-0.28518,0.59137-0.61792,0.83588-1.00985c0.47629-0.77392,0.7175-1.61975,0.7175-2.51372
				c0-0.96863-0.24121-1.85237-0.7175-2.62656c-0.47409-0.77033-1.13626-1.37441-2.02967-1.85071
				c-0.71196-0.35598-1.66401-0.5366-2.8296-0.5366h-7.32318v17.85599h7.60476c0.7695,0,1.39903-0.05976,1.87091-0.17703
				c0.40493-0.10179,0.85468-0.25834,1.36029-0.47629c0.75567-0.40604,1.41617-1.04498,1.90963-1.84711
				c0.47631-0.77392,0.71805-1.65792,0.71805-2.62602c0-1.09201-0.31255-2.04958-0.94542-2.91201
				c-0.34076-0.53548-0.71915-0.94955-1.17166-1.28008C124.66506,88.11571,124.66508,88.11568,124.66508,88.11569z
				 M124.24852,90.82025c0.28323,0.42485,0.40439,0.86852,0.40439,1.48256c0,0.49234-0.14384,1.0118-0.41656,1.50192
				c-0.234,0.42263-0.56647,0.73741-1.06656,1.0151c-0.19196,0.09626-0.38889,0.14715-0.65498,0.20025
				c-0.31586,0.05256-0.75511,0.05256-1.31052,0.05256h-5.25811v-5.48381h5.59776c0.80713,0,1.3072,0.14106,1.58103,0.25834
				c0.45362,0.20136,0.86133,0.55374,1.12354,0.97307C124.24852,90.82024,124.24852,90.82026,124.24852,90.82025z
				 M123.69256,85.91259c-0.31145,0.4149-0.67766,0.72938-1.08813,0.93463l-0.01384,0.00745
				c-0.34022,0.19473-0.91277,0.30177-1.61255,0.30177h-5.03185v-5.20085h4.63632c1.16945,0,1.69554,0.11202,1.9207,0.20164
				c0.44587,0.19805,0.80545,0.49318,1.13238,0.92909c0.28102,0.37451,0.39553,0.80019,0.39553,1.46984
				C124.03112,85.103,123.91605,85.55303,123.69256,85.91259z"/>
			<path d="M143.99478,86.17896v-0.7872c0-1.23721-0.31808-2.32728-0.93877-3.22982
				c-0.61957-0.99188-1.45325-1.72541-2.45895-2.17212c-0.94043-0.4976-2.08997-0.76064-3.32469-0.76064
				c-1.1617,0-2.27197,0.21436-3.29926,0.63728c-0.94926,0.39083-1.74809,1.0259-2.31456,1.84436
				c-0.54213,0.84362-0.82869,1.80646-0.82869,2.78505c0,1.04858,0.29596,1.91377,0.90392,2.64287
				c0.53938,0.65996,1.31715,1.19296,2.2421,1.53954c0.76508,0.30619,1.79843,0.58693,3.35568,0.91111
				c1.27678,0.2434,2.13866,0.45804,2.65919,0.66494c0.45085,0.13553,0.81154,0.3557,1.16891,0.71307
				c0.25281,0.25225,0.36511,0.65664,0.36511,1.31162c0,0.92826-0.3546,1.62086-1.11635,2.17903
				c-0.79991,0.58694-1.86482,0.89728-3.08018,0.89728c-1.0826,0-1.96053-0.17703-2.61661-0.52996
				c-0.74017-0.37009-1.25409-0.83311-1.6181-1.45711c-0.3828-0.65609-0.57697-1.39958-0.57697-2.20946v-0.7872h-2.3024v0.7872
				c0,1.27622,0.28767,2.38593,0.87904,3.39163c0.56812,0.96588,1.41064,1.73371,2.58672,2.35218
				c1.15231,0.54545,2.36382,0.81099,3.70474,0.81099c1.19437,0,2.23712-0.1903,3.1875-0.5814
				c0.98967-0.4077,1.81725-0.99961,2.46671-1.7669c0.64337-0.81873,0.95592-1.81005,0.95592-3.0304
				c0-1.18273-0.30481-2.14805-0.91331-2.87771c-0.58859-0.64805-1.30498-1.12575-2.14197-1.42448
				c-0.9371-0.28821-1.96217-0.55402-3.04478-0.78969c-1.14732-0.26082-2.15247-0.4951-2.82127-0.71749
				c-0.62013-0.22571-1.06767-0.48957-1.40843-0.83007c-0.2755-0.27577-0.42099-0.71003-0.42099-1.25575
				c0-0.6749,0.15601-1.16724,0.49013-1.54922c0.3723-0.42541,0.90115-0.78414,1.4444-0.98191
				c0.77281-0.25723,1.43829-0.37727,2.09384-0.37727c0.82315,0,1.61366,0.16844,2.22495,0.47409
				c0.62344,0.31145,1.14621,0.78,1.51189,1.35477c0.37894,0.59607,0.57146,1.27954,0.57146,2.0316v0.7872h2.41414
				L143.99478,86.17896z"/>
			<path d="M101.47243,79.57825l-7.3868,17.85599h2.47223l2.2526-5.46278h7.27949l2.25315,5.46278h2.46891l-7.27063-17.85599
				H101.47243z M105.23193,89.53131H99.9694l2.63098-6.43254L105.23193,89.53131z"/>
		</g>
		<g id="white">
			<path d="M26.96691,80.3436c-1.02894-0.51419-2.14225-0.76424-3.4038-0.76424h-7.34558v17.91186h2.43101v-4.97211h4.91457
				c1.2823,0,2.40861-0.23842,3.3471-0.70809c1.03503-0.51724,1.93313-1.33319,2.59724-2.35936
				c0.62096-0.95952,0.94928-2.12648,0.94928-3.3742c0-1.3415-0.31201-2.44762-0.94541-3.36813
				C28.86409,81.65023,28.0318,80.8763,26.96691,80.3436z M27.9693,86.02103c0,0.80545-0.21215,1.53207-0.6359,2.16797
				c-0.42789,0.69564-0.96118,1.16309-1.70411,1.48284c-0.49096,0.27273-1.20569,0.41656-2.06618,0.41656h-4.91457v-8.078h4.91457
				c0.77059,0,1.47647,0.12612,2.09218,0.37257c0.6666,0.28572,1.20154,0.75539,1.67811,1.47012
				C27.7671,84.55784,27.9693,85.24684,27.9693,86.02103z"/>
			<path d="M42.97966,80.07447l-0.01135-0.00691c-1.95222-1.09809-4.31436-1.09809-6.26658,0
				c-0.94403,0.53107-1.72071,1.3072-2.31124,2.31153c-0.54904,0.97583-0.82757,2.03022-0.82757,3.13357v5.9886
				c0,1.10362,0.27853,2.15746,0.8273,3.13329c0.53024,0.94319,1.30637,1.72044,2.31152,2.3118
				c0.97611,0.54932,2.03049,0.82757,3.13329,0.82757s2.15718-0.27826,3.13329-0.82757
				c0.9443-0.53162,1.72126-1.30776,2.3118-2.3118c0.54877-0.97583,0.82702-2.03022,0.82702-3.13329v-5.9886
				c0-1.10307-0.27825-2.15746-0.83394-3.1449C44.68792,81.43119,43.91621,80.65975,42.97966,80.07447z M42.80374,83.02355
				l-6.92295,8.38033v-5.83481c0-0.7327,0.18006-1.40317,0.52083-1.93839c0.37119-0.58334,0.85523-1.06738,1.42918-1.43305
				c0.624-0.36401,1.24219-0.52636,2.00423-0.52636c0.68319,0,1.32185,0.15959,1.89662,0.47298
				c0.40686,0.22598,0.77391,0.52746,1.07208,0.8793H42.80374z M43.73282,85.67086v5.83038
				c0,0.76451-0.16541,1.38022-0.52083,1.93839c-0.37119,0.58362-0.85523,1.06766-1.42918,1.43332
				c-0.61543,0.35903-1.23417,0.52608-1.9478,0.52608c-0.68347,0-1.32186-0.15932-1.89635-0.47298
				c-0.40715-0.22625-0.77447-0.52774-1.07292-0.87958L43.73282,85.67086z"/>
			<polygon points="81.2767,79.57825 78.85178,79.57825 78.85178,97.43424 92.65286,97.43424 92.65286,95.00959 81.2767,95.00959 
							"/>
			<polygon points="65.61662,79.57935 62.50933,79.57935 57.18152,86.51669 51.8172,79.57935 48.833,79.57935 55.63645,88.50707 
				48.833,97.43479 51.81747,97.43479 57.18152,90.49719 62.50933,97.43479 65.61662,97.43479 58.72438,88.50707 			"/>
			<path d="M124.66508,88.11569c0.31588-0.28518,0.59137-0.61792,0.83588-1.00985c0.47629-0.77392,0.7175-1.61975,0.7175-2.51372
				c0-0.96863-0.24121-1.85237-0.7175-2.62656c-0.47409-0.77033-1.13626-1.37441-2.02967-1.85071
				c-0.71196-0.35598-1.66401-0.5366-2.8296-0.5366h-7.32318v17.85599h7.60476c0.7695,0,1.39903-0.05976,1.87091-0.17703
				c0.40493-0.10179,0.85468-0.25834,1.36029-0.47629c0.75567-0.40604,1.41617-1.04498,1.90963-1.84711
				c0.47631-0.77392,0.71805-1.65792,0.71805-2.62602c0-1.09201-0.31255-2.04958-0.94542-2.91201
				c-0.34076-0.53548-0.71915-0.94955-1.17166-1.28008C124.66506,88.11571,124.66508,88.11568,124.66508,88.11569z
				 M124.24852,90.82025c0.28323,0.42485,0.40439,0.86852,0.40439,1.48256c0,0.49234-0.14384,1.0118-0.41656,1.50192
				c-0.234,0.42263-0.56647,0.73741-1.06656,1.0151c-0.19196,0.09626-0.38889,0.14715-0.65498,0.20025
				c-0.31586,0.05256-0.75511,0.05256-1.31052,0.05256h-5.25811v-5.48381h5.59776c0.80713,0,1.3072,0.14106,1.58103,0.25834
				c0.45362,0.20136,0.86133,0.55374,1.12354,0.97307C124.24852,90.82024,124.24852,90.82026,124.24852,90.82025z
				 M123.69256,85.91259c-0.31145,0.4149-0.67766,0.72938-1.08813,0.93463l-0.01384,0.00745
				c-0.34022,0.19473-0.91277,0.30177-1.61255,0.30177h-5.03185v-5.20085h4.63632c1.16945,0,1.69554,0.11202,1.9207,0.20164
				c0.44587,0.19805,0.80545,0.49318,1.13238,0.92909c0.28102,0.37451,0.39553,0.80019,0.39553,1.46984
				C124.03112,85.103,123.91605,85.55303,123.69256,85.91259z"/>
			<path d="M143.99478,86.17896v-0.7872c0-1.23721-0.31808-2.32728-0.93877-3.22982
				c-0.61957-0.99188-1.45325-1.72541-2.45895-2.17212c-0.94043-0.4976-2.08997-0.76064-3.32469-0.76064
				c-1.1617,0-2.27197,0.21436-3.29926,0.63728c-0.94926,0.39083-1.74809,1.0259-2.31456,1.84436
				c-0.54213,0.84362-0.82869,1.80646-0.82869,2.78505c0,1.04858,0.29596,1.91377,0.90392,2.64287
				c0.53938,0.65996,1.31715,1.19296,2.2421,1.53954c0.76508,0.30619,1.79843,0.58693,3.35568,0.91111
				c1.27678,0.2434,2.13866,0.45804,2.65919,0.66494c0.45085,0.13553,0.81154,0.3557,1.16891,0.71307
				c0.25281,0.25225,0.36511,0.65664,0.36511,1.31162c0,0.92826-0.3546,1.62086-1.11635,2.17903
				c-0.79991,0.58694-1.86482,0.89728-3.08018,0.89728c-1.0826,0-1.96053-0.17703-2.61661-0.52996
				c-0.74017-0.37009-1.25409-0.83311-1.6181-1.45711c-0.3828-0.65609-0.57697-1.39958-0.57697-2.20946v-0.7872h-2.3024v0.7872
				c0,1.27622,0.28767,2.38593,0.87904,3.39163c0.56812,0.96588,1.41064,1.73371,2.58672,2.35218
				c1.15231,0.54545,2.36382,0.81099,3.70474,0.81099c1.19437,0,2.23712-0.1903,3.1875-0.5814
				c0.98967-0.4077,1.81725-0.99961,2.46671-1.7669c0.64337-0.81873,0.95592-1.81005,0.95592-3.0304
				c0-1.18273-0.30481-2.14805-0.91331-2.87771c-0.58859-0.64805-1.30498-1.12575-2.14197-1.42448
				c-0.9371-0.28821-1.96217-0.55402-3.04478-0.78969c-1.14732-0.26082-2.15247-0.4951-2.82127-0.71749
				c-0.62013-0.22571-1.06767-0.48957-1.40843-0.83007c-0.2755-0.27577-0.42099-0.71003-0.42099-1.25575
				c0-0.6749,0.15601-1.16724,0.49013-1.54922c0.3723-0.42541,0.90115-0.78414,1.4444-0.98191
				c0.77281-0.25723,1.43829-0.37727,2.09384-0.37727c0.82315,0,1.61366,0.16844,2.22495,0.47409
				c0.62344,0.31145,1.14621,0.78,1.51189,1.35477c0.37894,0.59607,0.57146,1.27954,0.57146,2.0316v0.7872h2.41414
				L143.99478,86.17896z"/>
			<path d="M101.47243,79.57825l-7.3868,17.85599h2.47223l2.2526-5.46278h7.27949l2.25315,5.46278h2.46891l-7.27063-17.85599
				H101.47243z M105.23193,89.53131H99.9694l2.63098-6.43254L105.23193,89.53131z"/>
		</g>
		<path id="gradient" d="M26.96691,80.3436c-1.02894-0.51419-2.14225-0.76424-3.4038-0.76424h-7.34558v17.91186h2.43101v-4.97211
			h4.91457c1.2823,0,2.40861-0.23842,3.3471-0.70809c1.03503-0.51724,1.93313-1.33319,2.59724-2.35936
			c0.62096-0.95952,0.94928-2.12648,0.94928-3.3742c0-1.3415-0.31201-2.44762-0.94541-3.36813
			C28.86409,81.65023,28.0318,80.8763,26.96691,80.3436z M27.9693,86.02103c0,0.80545-0.21215,1.53207-0.6359,2.16797
			c-0.42789,0.69564-0.96118,1.16309-1.70411,1.48284c-0.49096,0.27273-1.20569,0.41656-2.06618,0.41656h-4.91457v-8.078h4.91457
			c0.77059,0,1.47647,0.12612,2.09218,0.37257c0.6666,0.28572,1.20154,0.75539,1.67811,1.47012
			C27.7671,84.55784,27.9693,85.24684,27.9693,86.02103z M42.97967,80.07448l-0.01135-0.00691
			c-1.95222-1.09809-4.31436-1.09809-6.26658,0c-0.94403,0.53107-1.72071,1.3072-2.31124,2.31153
			c-0.54904,0.97583-0.82757,2.03022-0.82757,3.13357v5.9886c0,1.10362,0.27853,2.15746,0.8273,3.13329
			c0.53024,0.94319,1.30637,1.72044,2.31152,2.3118c0.97611,0.54932,2.03049,0.82757,3.13329,0.82757
			s2.15718-0.27826,3.13329-0.82757c0.9443-0.53162,1.72126-1.30776,2.3118-2.3118c0.54877-0.97583,0.82702-2.03022,0.82702-3.13329
			v-5.9886c0-1.10307-0.27825-2.15746-0.83394-3.1449C44.68793,81.4312,43.91622,80.65976,42.97967,80.07448z M42.80375,83.02356
			l-6.92295,8.38033v-5.83481c0-0.7327,0.18006-1.40317,0.52083-1.93839c0.37119-0.58334,0.85523-1.06738,1.42918-1.43305
			c0.624-0.36401,1.24219-0.52636,2.00423-0.52636c0.68319,0,1.32185,0.15959,1.89662,0.47298
			c0.40686,0.22598,0.77391,0.52746,1.07208,0.8793H42.80375z M43.73283,85.67087v5.83038
			c0,0.76451-0.16541,1.38022-0.52083,1.93839c-0.37119,0.58362-0.85523,1.06766-1.42918,1.43332
			c-0.61543,0.35903-1.23417,0.52608-1.9478,0.52608c-0.68347,0-1.32186-0.15932-1.89635-0.47298
			c-0.40715-0.22625-0.77447-0.52774-1.07292-0.87958L43.73283,85.67087z M81.27671,95.0096h11.37616v2.42465H78.85179V79.57826
			h2.42492C81.27671,79.57826,81.27671,95.00961,81.27671,95.0096z M58.72438,88.50708l6.89224,8.92772h-3.10729l-5.32781-6.9376
			l-5.36405,6.9376H48.833l6.80345-8.92772L48.833,79.57936h2.9842l5.36432,6.93733l5.32781-6.93733h3.10729
			C65.61662,79.57936,58.72438,88.50708,58.72438,88.50708z M124.66508,88.1157c0.31588-0.28518,0.59137-0.61792,0.83588-1.00985
			c0.47629-0.77392,0.7175-1.61975,0.7175-2.51372c0-0.96863-0.24121-1.85237-0.7175-2.62656
			c-0.47409-0.77033-1.13626-1.37441-2.02967-1.85071c-0.71196-0.35598-1.66401-0.5366-2.8296-0.5366h-7.32318v17.85599h7.60476
			c0.7695,0,1.39903-0.05976,1.87091-0.17703c0.40493-0.10179,0.85468-0.25834,1.36029-0.47629
			c0.75567-0.40604,1.41617-1.04498,1.90963-1.84711c0.47631-0.77392,0.71805-1.65792,0.71805-2.62602
			c0-1.09201-0.31255-2.04958-0.94542-2.91201c-0.34076-0.53548-0.71915-0.94955-1.17166-1.28008
			C124.66506,88.11572,124.66508,88.11569,124.66508,88.1157z M124.24852,90.82026c0.28323,0.42485,0.40439,0.86852,0.40439,1.48256
			c0,0.49234-0.14384,1.0118-0.41656,1.50192c-0.234,0.42263-0.56647,0.73741-1.06656,1.0151
			c-0.19196,0.09626-0.38889,0.14715-0.65498,0.20025c-0.31586,0.05256-0.75511,0.05256-1.31052,0.05256h-5.25811v-5.48381h5.59776
			c0.80713,0,1.3072,0.14106,1.58103,0.25834c0.45362,0.20136,0.86133,0.55374,1.12354,0.97307
			C124.24852,90.82024,124.24852,90.82027,124.24852,90.82026z M123.69256,85.9126c-0.31145,0.4149-0.67766,0.72938-1.08813,0.93463
			l-0.01384,0.00745c-0.34022,0.19473-0.91277,0.30177-1.61255,0.30177h-5.03185V81.9556h4.63632
			c1.16945,0,1.69554,0.11202,1.9207,0.20164c0.44587,0.19805,0.80545,0.49318,1.13238,0.92909
			c0.28102,0.37451,0.39553,0.80019,0.39553,1.46984C124.03112,85.103,123.91605,85.55304,123.69256,85.9126z M141.58063,86.17897
			v-0.7872c0-0.75206-0.1925-1.43553-0.57146-2.0316c-0.36568-0.57477-0.88841-1.04332-1.51189-1.35477
			c-0.61128-0.30565-1.40179-0.47409-2.22495-0.47409c-0.65553,0-1.32103,0.12003-2.09384,0.37727
			c-0.54323,0.19777-1.07208,0.5565-1.4444,0.98191c-0.33412,0.38198-0.49013,0.87432-0.49013,1.54922
			c0,0.54573,0.14549,0.97999,0.42099,1.25575c0.34076,0.34049,0.78828,0.60435,1.40843,0.83007
			c0.66879,0.22239,1.67397,0.45667,2.82127,0.71749c1.08261,0.23566,2.10768,0.50147,3.04478,0.78969
			c0.83699,0.29873,1.55338,0.77642,2.14197,1.42448c0.60851,0.72966,0.91331,1.69498,0.91331,2.87771
			c0,1.22034-0.31255,2.21167-0.95592,3.0304c-0.64944,0.76729-1.47702,1.35919-2.46671,1.7669
			c-0.95038,0.3911-1.99313,0.5814-3.1875,0.5814c-1.34093,0-2.55241-0.26554-3.70474-0.81099
			c-1.17609-0.61847-2.0186-1.3863-2.58672-2.35218c-0.59137-1.0057-0.87904-2.11541-0.87904-3.39163v-0.7872h2.3024v0.7872
			c0,0.80987,0.19417,1.55337,0.57697,2.20946c0.36401,0.624,0.87791,1.08702,1.6181,1.45711
			c0.65608,0.35293,1.534,0.52996,2.61661,0.52996c1.21536,0,2.28027-0.31034,3.08018-0.89728
			c0.76175-0.55817,1.11635-1.25077,1.11635-2.17903c0-0.65498-0.1123-1.05937-0.36511-1.31162
			c-0.35736-0.35736-0.71805-0.57753-1.16891-0.71307c-0.52055-0.2069-1.38242-0.42154-2.65919-0.66494
			c-1.55724-0.32418-2.59061-0.60492-3.35568-0.91111c-0.92493-0.34658-1.70271-0.87958-2.2421-1.53954
			c-0.60796-0.7291-0.90392-1.59429-0.90392-2.64287c0-0.97859,0.28656-1.94143,0.82869-2.78505
			c0.56647-0.81846,1.3653-1.45353,2.31456-1.84436c1.02728-0.42291,2.13754-0.63728,3.29926-0.63728
			c1.23473,0,2.38426,0.26304,3.32469,0.76064c1.00571,0.44671,1.83939,1.18024,2.45895,2.17212
			c0.62068,0.90253,0.93877,1.9926,0.93877,3.22982v0.7872h-2.41414L141.58063,86.17897z M101.47241,79.57825l-7.3868,17.85599
			h2.47223l2.2526-5.46278h7.27949l2.25315,5.46278h2.46891l-7.27063-17.85599H101.47241z M105.23191,89.53131h-5.26253
			l2.63098-6.43254C102.60036,83.09877,105.23192,89.53131,105.23191,89.53131z"/>
	</g>
</g>
<g id="Layer_2_00000041292204957536837630000004356227003082748342_">
	<path d="M111.11169,31.06455L96.50816,16.46152c-0.19727-0.19727-0.43164-0.3584-0.68945-0.47607l-0.21387-0.08593
		c-0.25781-0.09082-0.52148-0.13672-0.7832-0.13672H64.07605c-0.33691,0-0.66992,0.07373-0.98926,0.21875
		c-0.26611,0.12207-0.50049,0.2832-0.69678,0.47998l-13.28809,13.2876c-0.68457,0.68408-0.88721,1.70459-0.5166,2.59961
		c0.37061,0.89404,1.23535,1.47168,2.20312,1.47168h11.67334v27.59325c0,0.9668,0.57764,1.83154,1.47168,2.20264
		c0.29297,0.12012,0.60059,0.18164,0.91406,0.18164c0.63428,0,1.23242-0.24805,1.68311-0.69922l13.29004-13.28955
		c0.17578-0.1748,0.32324-0.38184,0.44043-0.61621l0.0625-0.1333c0.12988-0.30127,0.19531-0.61621,0.19531-0.93652V33.82041
		h13.77637v11.67822c0,0.9668,0.57812,1.83105,1.47168,2.20166c0.88281,0.36719,1.92188,0.15625,2.59668-0.51709l12.74805-12.74756
		c0.4502-0.45068,0.69824-1.04932,0.69824-1.68555S111.56188,31.51523,111.11169,31.06455z M108.69859,33.82041L96.84996,45.66953
		c-0.07617,0.07617-0.16602,0.09326-0.26367,0.05273c-0.14941-0.06201-0.14941-0.18359-0.14941-0.22363V33.82042
		C96.43688,33.82042,108.69859,33.82042,108.69859,33.82041z M108.69957,31.67978h-12.2627v-12.2627L108.69957,31.67978z
		 M92.78258,17.90341L80.51891,30.1666V17.90341H92.78258z M94.29528,21.36728v10.3125h-5.15625L94.29528,21.36728z
		 M91.45935,22.254l-4.71289,9.42578h-4.71387L91.45935,22.254z M78.37878,19.41709v12.2627h-12.2627
		C66.11608,31.67979,78.37878,19.4171,78.37878,19.41709z M64.60242,30.16611v-12.2627h12.2627
		C76.86512,17.90341,64.60242,30.16611,64.60242,30.16611z M78.37878,35.33408v12.2627h-12.2627L78.37878,35.33408z
		 M64.60242,46.0831V33.8204h12.26221L64.60242,46.0831z M76.86462,49.7374L65.01746,61.58554
		c-0.07617,0.07666-0.16455,0.09424-0.26562,0.05225c-0.09912-0.04102-0.14941-0.11621-0.14941-0.22412V49.7374H76.86462z
		 M62.46179,19.41709v12.2627H50.78845c-0.10791,0-0.18408-0.05029-0.22559-0.1499c-0.0415-0.10059-0.02344-0.19043,0.05273-0.26709
		C50.61559,31.2628,62.46179,19.4171,62.46179,19.41709z"/>
</g>
</svg>
