<?xml version="1.0" encoding="utf-8"?>
<!-- Generator: Adobe Illustrator 27.0.0, SVG Export Plug-In . SVG Version: 6.00 Build 0)  -->
<svg version="1.1" id="Layer_1" xmlns="http://www.w3.org/2000/svg" xmlns:xlink="http://www.w3.org/1999/xlink" x="0px" y="0px"
	 viewBox="0 0 367.85229 101.44914" style="enable-background:new 0 0 367.85229 101.44914;" xml:space="preserve">
<style type="text/css">
	.st0{fill:#FFFFFF;}
	.st1{fill:url(#SVGID_1_);}
</style>
<g id="Wordmark">
	<path id="Gradient" class="st0" d="M140.48701,36.3232c-1.81641-0.90771-3.78174-1.34912-6.00879-1.34912h-12.96729V66.5942h4.2915
		v-8.77734h8.67578c2.26367,0,4.25195-0.4209,5.90869-1.25c1.82715-0.91309,3.4126-2.35352,4.58496-4.16504
		c1.09619-1.69385,1.67578-3.75391,1.67578-5.95654c0-2.36816-0.55078-4.3208-1.66895-5.9458
		c-1.14258-1.86963-2.61182-3.23584-4.4917-4.17627L140.48701,36.3232z M142.25655,46.34566
		c0,1.42188-0.37451,2.70459-1.12256,3.82715c-0.75537,1.22803-1.69678,2.05322-3.0083,2.61768
		c-0.8667,0.48145-2.12842,0.73535-3.64746,0.73535h-8.67578V39.26559h8.67578c1.36035,0,2.60645,0.22266,3.69336,0.65771
		c1.17676,0.50439,2.12109,1.3335,2.9624,2.59521C141.89961,43.76265,142.25655,44.97896,142.25655,46.34566z M168.75459,35.8481
		l-0.02002-0.01221c-3.44629-1.93848-7.61621-1.93848-11.0625,0c-1.6665,0.9375-3.0376,2.30762-4.08008,4.08057
		c-0.96924,1.72266-1.46094,3.58398-1.46094,5.53174v10.57178c0,1.94824,0.4917,3.80859,1.46045,5.53125
		c0.93604,1.66504,2.30615,3.03711,4.08057,4.08105c1.72314,0.96973,3.58447,1.46094,5.53125,1.46094
		s3.80811-0.49121,5.53125-1.46094c1.66699-0.93848,3.03857-2.30859,4.08105-4.08105
		c0.96875-1.72266,1.45996-3.58398,1.45996-5.53125V45.4482c0-1.94727-0.49121-3.80859-1.47217-5.55176
		C171.77022,38.24312,170.40791,36.8813,168.75459,35.8481z M168.44405,41.05415L156.22285,55.8481V45.54781
		c0-1.29346,0.31787-2.47705,0.91943-3.42188c0.65527-1.02979,1.50977-1.88428,2.52295-2.52979
		c1.10156-0.64258,2.19287-0.9292,3.53809-0.9292c1.20605,0,2.3335,0.28174,3.34814,0.83496
		C167.26973,39.90084,167.91768,40.43306,168.44405,41.05415z M170.08418,45.72749v10.29248
		c0,1.34961-0.29199,2.43652-0.91943,3.42188c-0.65527,1.03027-1.50977,1.88477-2.52295,2.53027
		c-1.08643,0.63379-2.17871,0.92871-3.43848,0.92871c-1.20654,0-2.3335-0.28125-3.34766-0.83496
		c-0.71875-0.39941-1.36719-0.93164-1.89404-1.55273C157.96162,60.51314,170.08418,45.7275,170.08418,45.72749z M236.36105,62.21333
		h20.08252v4.28027h-24.36328V34.97213h4.28076C236.36105,34.97213,236.36105,62.21334,236.36105,62.21333z M196.54904,50.73433
		l12.16699,15.76025h-5.48535l-9.40527-12.24707l-9.46924,12.24707h-5.26855l12.01025-15.76025l-12.01025-15.76025h5.26807
		l9.46973,12.24658l9.40527-12.24658h5.48535L196.54904,50.73433z M312.95529,50.04341
		c0.55762-0.50342,1.04395-1.09082,1.47559-1.78271c0.84082-1.36621,1.2666-2.85938,1.2666-4.4375
		c0-1.70996-0.42578-3.27002-1.2666-4.63672c-0.83691-1.35986-2.00586-2.42627-3.58301-3.26709
		c-1.25684-0.62842-2.9375-0.94727-4.99512-0.94727h-12.92773v31.52148h13.4248c1.3584,0,2.46973-0.10547,3.30273-0.3125
		c0.71484-0.17969,1.50879-0.45605,2.40137-0.84082c1.33398-0.7168,2.5-1.84473,3.37109-3.26074
		c0.84082-1.36621,1.26758-2.92676,1.26758-4.63574c0-1.92773-0.55176-3.61816-1.66895-5.14062
		C314.42209,51.35788,313.75412,50.62692,312.95529,50.04341z M312.21994,54.81782c0.5,0.75,0.71387,1.5332,0.71387,2.61719
		c0,0.86914-0.25391,1.78613-0.73535,2.65137c-0.41309,0.74609-1,1.30176-1.88281,1.79199
		c-0.33887,0.16992-0.68652,0.25977-1.15625,0.35352c-0.55762,0.09277-1.33301,0.09277-2.31348,0.09277h-9.28223V52.644h9.88184
		c1.4248,0,2.30762,0.24902,2.79102,0.45605C311.03732,53.45552,311.75705,54.07759,312.21994,54.81782z M311.23849,46.15425
		c-0.5498,0.73242-1.19629,1.2876-1.9209,1.6499l-0.02441,0.01318c-0.60059,0.34375-1.61133,0.53271-2.84668,0.53271h-8.88281
		v-9.18115h8.18457c2.06445,0,2.99316,0.19775,3.39062,0.35596c0.78711,0.34961,1.42188,0.87061,1.99902,1.64014
		c0.49609,0.66113,0.69824,1.4126,0.69824,2.59473C311.83615,44.72505,311.63303,45.51949,311.23849,46.15425z M342.81662,46.62446
		v-1.38965c0-1.32764-0.33984-2.53418-1.00879-3.58643c-0.64551-1.01465-1.56836-1.8418-2.66895-2.3916
		c-1.0791-0.53955-2.47461-0.83691-3.92773-0.83691c-1.15723,0-2.33203,0.21191-3.69629,0.66602
		c-0.95898,0.34912-1.89258,0.98242-2.5498,1.7334c-0.58984,0.67432-0.86523,1.54346-0.86523,2.73486
		c0,0.96338,0.25684,1.72998,0.74316,2.2168c0.60156,0.60107,1.3916,1.06689,2.48633,1.46533
		c1.18066,0.39258,2.95508,0.80615,4.98047,1.2666c1.91113,0.41602,3.7207,0.88525,5.375,1.39404
		c1.47754,0.52734,2.74219,1.37061,3.78125,2.51465c1.07422,1.28809,1.6123,2.99219,1.6123,5.08008
		c0,2.1543-0.55176,3.9043-1.6875,5.34961c-1.14648,1.35449-2.60742,2.39941-4.35449,3.11914
		c-1.67773,0.69043-3.51855,1.02637-5.62695,1.02637c-2.36719,0-4.50586-0.46875-6.54004-1.43164
		c-2.07617-1.0918-3.56348-2.44727-4.56641-4.15234c-1.04395-1.77539-1.55176-3.73438-1.55176-5.9873v-1.38965h4.06445v1.38965
		c0,1.42969,0.34277,2.74219,1.01855,3.90039c0.64258,1.10156,1.5498,1.91895,2.85645,2.57227
		c1.1582,0.62305,2.70801,0.93555,4.61914,0.93555c2.14551,0,4.02539-0.54785,5.4375-1.58398
		c1.34473-0.98535,1.9707-2.20801,1.9707-3.84668c0-1.15625-0.19824-1.87012-0.64453-2.31543
		c-0.63086-0.63086-1.26758-1.01953-2.06348-1.25879c-0.91895-0.36523-2.44043-0.74414-4.69434-1.17383
		c-2.74902-0.57227-4.57324-1.06787-5.92383-1.6084c-1.63281-0.61182-3.00586-1.55273-3.95801-2.71777
		c-1.07324-1.28711-1.5957-2.81445-1.5957-4.66553c0-1.72754,0.50586-3.42725,1.46289-4.9165
		c1-1.44482,2.41016-2.56592,4.08594-3.25586c1.81348-0.74658,3.77344-1.125,5.82422-1.125
		c2.17969,0,4.20898,0.46436,5.86914,1.34277c1.77539,0.78857,3.24707,2.0835,4.34082,3.83447
		c1.0957,1.59326,1.65723,3.51758,1.65723,5.70166v1.38965C347.07834,46.62447,342.81662,46.62447,342.81662,46.62446z
		 M272.01291,34.97212l-13.04004,31.52148h4.36426l3.97656-9.64355h12.85059l3.97754,9.64355h4.3584l-12.83496-31.52148
		C275.66525,34.97213,272.01291,34.97213,272.01291,34.97212z M278.64963,52.54243h-9.29004l4.64453-11.35547L278.64963,52.54243z"
		/>
</g>
<g id="Layer_4">
	<g id="Layer_2_00000142886202641194890690000011983587504871150503_">
		
			<linearGradient id="SVGID_1_" gradientUnits="userSpaceOnUse" x1="20.77398" y1="-130.72458" x2="100.73695" y2="-130.72458" gradientTransform="matrix(1 0 0 -1 0 -80)">
			<stop  offset="0" style="stop-color:#13B0D8"/>
			<stop  offset="1" style="stop-color:#2B4DFF"/>
		</linearGradient>
		<path class="st1" d="M99.85642,39.73308L81.43997,21.31726c-0.24878-0.24878-0.54434-0.45198-0.86947-0.60037l-0.2697-0.10836
			c-0.32513-0.11453-0.65763-0.17242-0.98769-0.17242H40.53995c-0.42488,0-0.84484,0.09298-1.24755,0.27586
			c-0.33559,0.15394-0.63116,0.35714-0.87871,0.6053L21.65613,38.07421c-0.86331,0.86269-1.11886,2.14965-0.65148,3.27836
			c0.46737,1.12747,1.5579,1.85593,2.77835,1.85593h14.7212v34.79774c0,1.21923,0.72846,2.30975,1.85593,2.77774
			c0.36946,0.15148,0.75741,0.22907,1.15272,0.22907c0.79988,0,1.5542-0.31282,2.12257-0.88178l16.76002-16.7594
			c0.22168-0.22044,0.40764-0.48154,0.55542-0.7771l0.07882-0.16811c0.16379-0.37993,0.24631-0.7771,0.24631-1.18104V43.20849
			h17.37332v14.72736c0,1.21923,0.72906,2.30913,1.85593,2.77651c1.11331,0.46306,2.42368,0.19705,3.27466-0.6521l16.07651-16.0759
			c0.56775-0.56835,0.88055-1.32329,0.88055-2.12564s-0.31281-1.55728-0.88055-2.12563L99.85642,39.73308z M96.81329,43.20849
			L81.87102,58.15137c-0.09606,0.09606-0.20937,0.11761-0.33252,0.0665c-0.18842-0.0782-0.18842-0.23152-0.18842-0.28202V43.20849
			C81.35007,43.20849,96.81328,43.20849,96.81329,43.20849z M96.81451,40.50895H81.35007V25.0445
			C81.35007,25.0445,96.81451,40.50894,96.81451,40.50895z M76.74165,23.13562L61.27599,38.60069V23.13562H76.74165z
			 M78.64931,27.50389v13.00505h-6.50253L78.64931,27.50389z M75.07294,28.62214l-5.94341,11.88681h-5.94464
			C63.18488,40.50895,75.07294,28.62213,75.07294,28.62214z M58.57709,25.04452v15.46445H43.11264
			C43.11264,40.50896,58.57709,25.04453,58.57709,25.04452z M41.20377,38.60007V23.13562h15.46445
			C56.66822,23.13562,41.20377,38.60006,41.20377,38.60007z M58.57709,45.11738v15.46444H43.11264L58.57709,45.11738z
			 M41.20377,58.67293V43.20849h15.46382L41.20377,58.67293z M56.66759,63.28135L41.72717,78.223
			c-0.09606,0.09668-0.20751,0.11884-0.33497,0.06589c-0.125-0.05173-0.18842-0.14655-0.18842-0.28264v-14.7249
			C41.20378,63.28135,56.66758,63.28135,56.66759,63.28135z M38.50422,25.04451v15.46445h-14.7212
			c-0.13609,0-0.23214-0.06342-0.28449-0.18904c-0.05234-0.12685-0.02956-0.24015,0.0665-0.33683l14.9392-14.93858H38.50422z"/>
	</g>
</g>
</svg>
