<?xml version="1.0" encoding="UTF-8"?>
<svg id="Solid" xmlns="http://www.w3.org/2000/svg" xmlns:xlink="http://www.w3.org/1999/xlink" viewBox="0 0 310.56258 258.07711">
  <defs>
    <style>
      .cls-1 {
        fill: url(#linear-gradient);
      }
    </style>
    <linearGradient id="linear-gradient" x1="47.0362" y1="509.03857" x2="263.52639" y2="509.03857" gradientTransform="translate(0 -380)" gradientUnits="userSpaceOnUse">
      <stop offset="0" stop-color="#13b0d8"/>
      <stop offset="1" stop-color="#2b4dff"/>
    </linearGradient>
  </defs>
  <g id="Layer_4" data-name="Layer 4">
    <g id="Layer_2" data-name="Layer 2">
      <path class="cls-1" d="M261.14247,99.28039l-49.86034-49.85863c-.67354-.67354-1.47374-1.22368-2.35398-1.62543,0,0-2.51064-.76018-3.40424-.76018H100.55022c-1.15031,0-2.28731,.25173-3.3776,.74686-.90857,.41677-1.70879,.96691-2.37901,1.63878l-45.36909,45.36741c-2.33731,2.33563-3.02918,5.81992-1.7638,8.87576,1.26535,3.0525,4.21783,5.02471,7.52205,5.02471h39.85589v94.21072c0,3.30092,1.97221,6.25338,5.02471,7.5204,1.00027,.41012,2.05059,.62019,3.12086,.62019,2.16558,0,4.20781-.84692,5.7466-2.38732l45.37574-45.37407c.60017-.59681,1.10363-1.30371,1.50373-2.1039l.21339-.45514c.44345-1.02861,.66686-2.1039,.66686-3.19753v-48.83338h47.03618v39.87257c0,3.30092,1.97384,6.2517,5.0247,7.51706,3.01416,1.25368,6.56183,.53348,8.86575-1.76548l43.52522-43.52357c1.53711-1.53874,2.38397-3.58265,2.38397-5.75492s-.8469-4.21615-2.38397-5.75489c0,0,.00006,0,.00006-.00002Zm-8.23893,9.40923l-40.4544,40.45606c-.26008,.26008-.56685,.31842-.90026,.18005-.51013-.21172-.51013-.62682-.51013-.76354v-39.87257h41.86479Zm.00333-7.30868h-41.86814V59.51279s41.86814,41.86812,41.86814,41.86815Zm-54.34487-47.03621l-41.87145,41.8698V54.34473h41.87145Zm5.16477,11.82657v35.20962h-17.60483l17.60483-35.20962Zm-9.68262,3.0275l-16.09108,32.18212h-16.09441s32.18548-32.18214,32.18548-32.18212Zm-44.66054-9.68598v41.86815h-41.86815s41.86815-41.86812,41.86815-41.86815Zm-47.03619,36.70002V54.3447h41.86815s-41.86815,41.86812-41.86815,41.86815Zm47.03619,17.64484v41.86812h-41.86815l41.86815-41.86812Zm-47.03619,36.70003v-41.86812h41.86645l-41.86645,41.86812Zm41.86645,12.47675l-40.44941,40.45273c-.26008,.26175-.56181,.32175-.90689,.17838-.33842-.14005-.51012-.39677-.51012-.76521v-39.8659h41.86642ZM95.03872,59.51284v41.86815H55.18283c-.36845,0-.62849-.1717-.77022-.51181-.1417-.34343-.08003-.65018,.18004-.91193l40.4461-40.44442h-.00003Z"/>
    </g>
  </g>
</svg>