<?xml version="1.0" encoding="utf-8"?>
<!-- Generator: Adobe Illustrator 27.0.0, SVG Export Plug-In . SVG Version: 6.00 Build 0)  -->
<svg version="1.1" xmlns="http://www.w3.org/2000/svg" xmlns:xlink="http://www.w3.org/1999/xlink" x="0px" y="0px"
	 viewBox="0 0 367.85229 101.44914" style="enable-background:new 0 0 367.85229 101.44914;" xml:space="preserve">
<style type="text/css">
	.st0{display:none;}
	.st1{display:inline;fill:#FFFFFF;}
	.st2{display:none;fill:url(#Gradient_00000133527061165947229040000018429963585284155790_);}
	.st3{fill:#09A8F9;}
	.st4{fill:#0085BA;}
	.st5{fill:#1969E3;}
	.st6{fill:#2294E3;}
	.st7{fill:#1362BA;}
	.st8{fill:#3771EF;}
	.st9{fill:#1D3CD2;}
	.st10{fill:#4695D3;}
	.st11{fill:#0024A5;}
	.st12{fill:#1640E5;}
	.st13{fill:#4571EC;}
</style>
<g id="Wordmark">
	<g id="Black">
		<path d="M140.48703,36.3232c-1.81641-0.90771-3.78174-1.34912-6.00879-1.34912h-12.96729V66.5942h4.2915v-8.77734h8.67579
			c2.26367,0,4.25195-0.4209,5.90869-1.25c1.82715-0.91309,3.4126-2.35352,4.58496-4.16504
			c1.09619-1.69385,1.67578-3.75391,1.67578-5.95654c0-2.36816-0.55078-4.3208-1.66895-5.9458
			C143.83615,38.62984,142.36691,37.26363,140.48703,36.3232z M142.25656,46.34566c0,1.42188-0.37451,2.70459-1.12256,3.82715
			c-0.75537,1.22803-1.69678,2.05322-3.0083,2.61768c-0.8667,0.48145-2.12842,0.73535-3.64746,0.73535h-8.67579V39.26559h8.67579
			c1.36035,0,2.60645,0.22266,3.69336,0.65771c1.17676,0.50439,2.12109,1.3335,2.9624,2.59521
			C141.89963,43.76266,142.25656,44.97897,142.25656,46.34566z"/>
		<path d="M168.75461,35.84811l-0.02002-0.01221c-3.44629-1.93848-7.61621-1.93848-11.0625,0
			c-1.6665,0.9375-3.0376,2.30762-4.08008,4.08057c-0.96924,1.72266-1.46094,3.58398-1.46094,5.53174v10.57178
			c0,1.94824,0.4917,3.80859,1.46045,5.53125c0.93604,1.66504,2.30615,3.03711,4.08057,4.08105
			c1.72314,0.96973,3.58447,1.46094,5.53125,1.46094s3.80811-0.49121,5.53125-1.46094
			c1.66699-0.93848,3.03857-2.30859,4.08105-4.08105c0.96875-1.72266,1.45996-3.58398,1.45996-5.53125V45.4482
			c0-1.94727-0.49121-3.80859-1.47217-5.55176C171.77023,38.24313,170.40793,36.88131,168.75461,35.84811z M168.44406,41.05416
			l-12.22119,14.79395V45.54781c0-1.29346,0.31787-2.47705,0.91943-3.42188c0.65527-1.02979,1.50977-1.88428,2.52295-2.52979
			c1.10156-0.64258,2.19287-0.9292,3.53809-0.9292c1.20605,0,2.3335,0.28174,3.34814,0.83496
			C167.26974,39.90084,167.91769,40.43307,168.44406,41.05416z M170.0842,45.7275v10.29248
			c0,1.34961-0.29199,2.43652-0.91943,3.42188c-0.65527,1.03027-1.50977,1.88477-2.52295,2.53027
			c-1.08643,0.63379-2.17871,0.92871-3.43848,0.92871c-1.20654,0-2.3335-0.28125-3.34766-0.83496
			c-0.71875-0.39941-1.36719-0.93164-1.89404-1.55273L170.0842,45.7275z"/>
		<polygon points="236.36105,34.97213 232.08029,34.97213 232.08029,66.49361 256.44357,66.49361 256.44357,62.21334 
			236.36105,62.21334 		"/>
		<polygon points="208.71603,34.97408 203.23068,34.97408 193.82541,47.22066 184.35568,34.97408 179.08762,34.97408 
			191.09787,50.73434 179.08762,66.49459 184.35617,66.49459 193.82541,54.24752 203.23068,66.49459 208.71603,66.49459 
			196.54904,50.73434 		"/>
		<path d="M312.95529,50.04342c0.55762-0.50342,1.04395-1.09082,1.47559-1.78271c0.84082-1.36621,1.2666-2.85938,1.2666-4.4375
			c0-1.70996-0.42578-3.27002-1.2666-4.63672c-0.83691-1.35986-2.00586-2.42627-3.58301-3.26709
			c-1.25684-0.62842-2.9375-0.94727-4.99512-0.94727h-12.92773v31.52148h13.4248c1.3584,0,2.46973-0.10547,3.30273-0.3125
			c0.71484-0.17969,1.50879-0.45605,2.40137-0.84082c1.33398-0.7168,2.5-1.84473,3.37109-3.26074
			c0.84082-1.36621,1.26758-2.92676,1.26758-4.63574c0-1.92773-0.55176-3.61816-1.66895-5.14062
			C314.42209,51.35787,313.75412,50.62691,312.95529,50.04342z M312.21994,54.81783c0.5,0.75,0.71387,1.5332,0.71387,2.61719
			c0,0.86914-0.25391,1.78613-0.73535,2.65137c-0.41309,0.74609-1,1.30176-1.88281,1.79199
			c-0.33887,0.16992-0.68652,0.25977-1.15625,0.35352c-0.55762,0.09277-1.33301,0.09277-2.31348,0.09277h-9.28223V52.644h9.88184
			c1.4248,0,2.30762,0.24902,2.79102,0.45605C311.03732,53.45553,311.75705,54.0776,312.21994,54.81783z M311.23849,46.15426
			c-0.5498,0.73242-1.19629,1.2876-1.9209,1.6499l-0.02441,0.01318c-0.60059,0.34375-1.61133,0.53271-2.84668,0.53271h-8.88281
			v-9.18115h8.18457c2.06445,0,2.99316,0.19775,3.39062,0.35596c0.78711,0.34961,1.42188,0.87061,1.99902,1.64014
			c0.49609,0.66113,0.69824,1.4126,0.69824,2.59473C311.83615,44.72506,311.63303,45.51949,311.23849,46.15426z"/>
		<path d="M347.07834,46.62447v-1.38965c0-2.18408-0.56152-4.1084-1.65723-5.70166c-1.09375-1.75098-2.56543-3.0459-4.34082-3.83447
			c-1.66016-0.87842-3.68945-1.34277-5.86914-1.34277c-2.05078,0-4.01074,0.37842-5.82422,1.125
			c-1.67578,0.68994-3.08594,1.81104-4.08594,3.25586c-0.95703,1.48926-1.46289,3.18896-1.46289,4.9165
			c0,1.85107,0.52246,3.37842,1.5957,4.66553c0.95215,1.16504,2.3252,2.10596,3.95801,2.71777
			c1.35059,0.54053,3.1748,1.03613,5.92383,1.6084c2.25391,0.42969,3.77539,0.80859,4.69434,1.17383
			c0.7959,0.23926,1.43262,0.62793,2.06348,1.25879c0.44629,0.44531,0.64453,1.15918,0.64453,2.31543
			c0,1.63867-0.62598,2.86133-1.9707,3.84668c-1.41211,1.03613-3.29199,1.58398-5.4375,1.58398
			c-1.91113,0-3.46094-0.3125-4.61914-0.93555c-1.30664-0.65332-2.21387-1.4707-2.85645-2.57227
			c-0.67578-1.1582-1.01855-2.4707-1.01855-3.90039v-1.38965h-4.06445v1.38965c0,2.25293,0.50781,4.21191,1.55176,5.9873
			c1.00293,1.70508,2.49023,3.06055,4.56641,4.15234c2.03418,0.96289,4.17285,1.43164,6.54004,1.43164
			c2.1084,0,3.94922-0.33594,5.62695-1.02637c1.74707-0.71973,3.20801-1.76465,4.35449-3.11914
			c1.13574-1.44531,1.6875-3.19531,1.6875-5.34961c0-2.08789-0.53809-3.79199-1.6123-5.08008
			c-1.03906-1.14404-2.30371-1.9873-3.78125-2.51465c-1.6543-0.50879-3.46387-0.97803-5.375-1.39404
			c-2.02539-0.46045-3.7998-0.87402-4.98047-1.2666c-1.09473-0.39844-1.88477-0.86426-2.48633-1.46533
			c-0.48633-0.48682-0.74316-1.25342-0.74316-2.2168c0-1.19141,0.27539-2.06055,0.86523-2.73486
			c0.65723-0.75098,1.59082-1.38428,2.5498-1.7334c1.36426-0.4541,2.53906-0.66602,3.69629-0.66602
			c1.45312,0,2.84863,0.29736,3.92773,0.83691c1.10059,0.5498,2.02344,1.37695,2.66895,2.3916
			c0.66895,1.05225,1.00879,2.25879,1.00879,3.58643v1.38965H347.07834z"/>
		<path d="M272.01291,34.97213l-13.04004,31.52148h4.36426l3.97656-9.64355h12.85059l3.97754,9.64355h4.3584l-12.83496-31.52148
			H272.01291z M278.64963,52.54244h-9.29004l4.64453-11.35547L278.64963,52.54244z"/>
	</g>
	<g id="White" class="st0">
		<path class="st1" d="M140.48703,36.3232c-1.81641-0.90771-3.78174-1.34912-6.00879-1.34912h-12.96729V66.5942h4.2915v-8.77734
			h8.67579c2.26367,0,4.25195-0.4209,5.90869-1.25c1.82715-0.91309,3.4126-2.35352,4.58496-4.16504
			c1.09619-1.69385,1.67578-3.75391,1.67578-5.95654c0-2.36816-0.55078-4.3208-1.66895-5.9458
			C143.83615,38.62984,142.36691,37.26363,140.48703,36.3232z M142.25656,46.34566c0,1.42188-0.37451,2.70459-1.12256,3.82715
			c-0.75537,1.22803-1.69678,2.05322-3.0083,2.61768c-0.8667,0.48145-2.12842,0.73535-3.64746,0.73535h-8.67579V39.26559h8.67579
			c1.36035,0,2.60645,0.22266,3.69336,0.65771c1.17676,0.50439,2.12109,1.3335,2.9624,2.59521
			C141.89963,43.76266,142.25656,44.97897,142.25656,46.34566z"/>
		<path class="st1" d="M168.75461,35.84811l-0.02002-0.01221c-3.44629-1.93848-7.61621-1.93848-11.0625,0
			c-1.6665,0.9375-3.0376,2.30762-4.08008,4.08057c-0.96924,1.72266-1.46094,3.58398-1.46094,5.53174v10.57178
			c0,1.94824,0.4917,3.80859,1.46045,5.53125c0.93604,1.66504,2.30615,3.03711,4.08057,4.08105
			c1.72314,0.96973,3.58447,1.46094,5.53125,1.46094s3.80811-0.49121,5.53125-1.46094
			c1.66699-0.93848,3.03857-2.30859,4.08105-4.08105c0.96875-1.72266,1.45996-3.58398,1.45996-5.53125V45.4482
			c0-1.94727-0.49121-3.80859-1.47217-5.55176C171.77023,38.24313,170.40793,36.88131,168.75461,35.84811z M168.44406,41.05416
			l-12.22119,14.79395V45.54781c0-1.29346,0.31787-2.47705,0.91943-3.42188c0.65527-1.02979,1.50977-1.88428,2.52295-2.52979
			c1.10156-0.64258,2.19287-0.9292,3.53809-0.9292c1.20605,0,2.3335,0.28174,3.34814,0.83496
			C167.26974,39.90084,167.91769,40.43307,168.44406,41.05416z M170.0842,45.7275v10.29248
			c0,1.34961-0.29199,2.43652-0.91943,3.42188c-0.65527,1.03027-1.50977,1.88477-2.52295,2.53027
			c-1.08643,0.63379-2.17871,0.92871-3.43848,0.92871c-1.20654,0-2.3335-0.28125-3.34766-0.83496
			c-0.71875-0.39941-1.36719-0.93164-1.89404-1.55273L170.0842,45.7275z"/>
		<polygon class="st1" points="236.36105,34.97213 232.08029,34.97213 232.08029,66.49361 256.44357,66.49361 256.44357,62.21334 
			236.36105,62.21334 		"/>
		<polygon class="st1" points="208.71603,34.97408 203.23068,34.97408 193.82541,47.22066 184.35568,34.97408 179.08762,34.97408 
			191.09787,50.73434 179.08762,66.49459 184.35617,66.49459 193.82541,54.24752 203.23068,66.49459 208.71603,66.49459 
			196.54904,50.73434 		"/>
		<path class="st1" d="M312.95529,50.04342c0.55762-0.50342,1.04395-1.09082,1.47559-1.78271
			c0.84082-1.36621,1.2666-2.85938,1.2666-4.4375c0-1.70996-0.42578-3.27002-1.2666-4.63672
			c-0.83691-1.35986-2.00586-2.42627-3.58301-3.26709c-1.25684-0.62842-2.9375-0.94727-4.99512-0.94727h-12.92773v31.52148h13.4248
			c1.3584,0,2.46973-0.10547,3.30273-0.3125c0.71484-0.17969,1.50879-0.45605,2.40137-0.84082
			c1.33398-0.7168,2.5-1.84473,3.37109-3.26074c0.84082-1.36621,1.26758-2.92676,1.26758-4.63574
			c0-1.92773-0.55176-3.61816-1.66895-5.14062C314.42209,51.35787,313.75412,50.62691,312.95529,50.04342z M312.21994,54.81783
			c0.5,0.75,0.71387,1.5332,0.71387,2.61719c0,0.86914-0.25391,1.78613-0.73535,2.65137c-0.41309,0.74609-1,1.30176-1.88281,1.79199
			c-0.33887,0.16992-0.68652,0.25977-1.15625,0.35352c-0.55762,0.09277-1.33301,0.09277-2.31348,0.09277h-9.28223V52.644h9.88184
			c1.4248,0,2.30762,0.24902,2.79102,0.45605C311.03732,53.45553,311.75705,54.0776,312.21994,54.81783z M311.23849,46.15426
			c-0.5498,0.73242-1.19629,1.2876-1.9209,1.6499l-0.02441,0.01318c-0.60059,0.34375-1.61133,0.53271-2.84668,0.53271h-8.88281
			v-9.18115h8.18457c2.06445,0,2.99316,0.19775,3.39062,0.35596c0.78711,0.34961,1.42188,0.87061,1.99902,1.64014
			c0.49609,0.66113,0.69824,1.4126,0.69824,2.59473C311.83615,44.72506,311.63303,45.51949,311.23849,46.15426z"/>
		<path class="st1" d="M347.07834,46.62447v-1.38965c0-2.18408-0.56152-4.1084-1.65723-5.70166
			c-1.09375-1.75098-2.56543-3.0459-4.34082-3.83447c-1.66016-0.87842-3.68945-1.34277-5.86914-1.34277
			c-2.05078,0-4.01074,0.37842-5.82422,1.125c-1.67578,0.68994-3.08594,1.81104-4.08594,3.25586
			c-0.95703,1.48926-1.46289,3.18896-1.46289,4.9165c0,1.85107,0.52246,3.37842,1.5957,4.66553
			c0.95215,1.16504,2.3252,2.10596,3.95801,2.71777c1.35059,0.54053,3.1748,1.03613,5.92383,1.6084
			c2.25391,0.42969,3.77539,0.80859,4.69434,1.17383c0.7959,0.23926,1.43262,0.62793,2.06348,1.25879
			c0.44629,0.44531,0.64453,1.15918,0.64453,2.31543c0,1.63867-0.62598,2.86133-1.9707,3.84668
			c-1.41211,1.03613-3.29199,1.58398-5.4375,1.58398c-1.91113,0-3.46094-0.3125-4.61914-0.93555
			c-1.30664-0.65332-2.21387-1.4707-2.85645-2.57227c-0.67578-1.1582-1.01855-2.4707-1.01855-3.90039v-1.38965h-4.06445v1.38965
			c0,2.25293,0.50781,4.21191,1.55176,5.9873c1.00293,1.70508,2.49023,3.06055,4.56641,4.15234
			c2.03418,0.96289,4.17285,1.43164,6.54004,1.43164c2.1084,0,3.94922-0.33594,5.62695-1.02637
			c1.74707-0.71973,3.20801-1.76465,4.35449-3.11914c1.13574-1.44531,1.6875-3.19531,1.6875-5.34961
			c0-2.08789-0.53809-3.79199-1.6123-5.08008c-1.03906-1.14404-2.30371-1.9873-3.78125-2.51465
			c-1.6543-0.50879-3.46387-0.97803-5.375-1.39404c-2.02539-0.46045-3.7998-0.87402-4.98047-1.2666
			c-1.09473-0.39844-1.88477-0.86426-2.48633-1.46533c-0.48633-0.48682-0.74316-1.25342-0.74316-2.2168
			c0-1.19141,0.27539-2.06055,0.86523-2.73486c0.65723-0.75098,1.59082-1.38428,2.5498-1.7334
			c1.36426-0.4541,2.53906-0.66602,3.69629-0.66602c1.45312,0,2.84863,0.29736,3.92773,0.83691
			c1.10059,0.5498,2.02344,1.37695,2.66895,2.3916c0.66895,1.05225,1.00879,2.25879,1.00879,3.58643v1.38965H347.07834z"/>
		<path class="st1" d="M272.01291,34.97213l-13.04004,31.52148h4.36426l3.97656-9.64355h12.85059l3.97754,9.64355h4.3584
			l-12.83496-31.52148H272.01291z M278.64963,52.54244h-9.29004l4.64453-11.35547L278.64963,52.54244z"/>
	</g>
	
		<linearGradient id="Gradient_00000106116204104225605480000017698799557323918782_" gradientUnits="userSpaceOnUse" x1="121.51095" y1="50.72457" x2="347.07834" y2="50.72457">
		<stop  offset="0" style="stop-color:#13B0D8"/>
		<stop  offset="1" style="stop-color:#2B4DFF"/>
	</linearGradient>
	<path id="Gradient" style="display:none;fill:url(#Gradient_00000106116204104225605480000017698799557323918782_);" d="
		M140.48703,36.3232c-1.81641-0.90771-3.78174-1.34912-6.00879-1.34912h-12.96729V66.5942h4.2915v-8.77734h8.67579
		c2.26367,0,4.25195-0.4209,5.90869-1.25c1.82715-0.91309,3.4126-2.35352,4.58496-4.16504
		c1.09619-1.69385,1.67578-3.75391,1.67578-5.95654c0-2.36816-0.55078-4.3208-1.66895-5.9458
		C143.83615,38.62984,142.36691,37.26363,140.48703,36.3232z M142.25656,46.34566c0,1.42188-0.37451,2.70459-1.12256,3.82715
		c-0.75537,1.22803-1.69678,2.05322-3.0083,2.61768c-0.8667,0.48145-2.12842,0.73535-3.64746,0.73535h-8.67579V39.26559h8.67579
		c1.36035,0,2.60645,0.22266,3.69336,0.65771c1.17676,0.50439,2.12109,1.3335,2.9624,2.59521
		C141.89963,43.76266,142.25656,44.97897,142.25656,46.34566z M168.75461,35.84811l-0.02002-0.01221
		c-3.44629-1.93848-7.61621-1.93848-11.0625,0c-1.6665,0.9375-3.0376,2.30762-4.08008,4.08057
		c-0.96924,1.72266-1.46094,3.58398-1.46094,5.53174v10.57178c0,1.94824,0.4917,3.80859,1.46045,5.53125
		c0.93604,1.66504,2.30615,3.03711,4.08057,4.08105c1.72314,0.96973,3.58447,1.46094,5.53125,1.46094
		s3.80811-0.49121,5.53125-1.46094c1.66699-0.93848,3.03857-2.30859,4.08105-4.08105
		c0.96875-1.72266,1.45996-3.58398,1.45996-5.53125V45.4482c0-1.94727-0.49121-3.80859-1.47217-5.55176
		C171.77023,38.24313,170.40793,36.88131,168.75461,35.84811z M168.44406,41.05416l-12.22119,14.79395V45.54781
		c0-1.29346,0.31787-2.47705,0.91943-3.42188c0.65527-1.02979,1.50977-1.88428,2.52295-2.52979
		c1.10156-0.64258,2.19287-0.9292,3.53809-0.9292c1.20605,0,2.3335,0.28174,3.34814,0.83496
		C167.26974,39.90084,167.91769,40.43307,168.44406,41.05416z M170.0842,45.7275v10.29248
		c0,1.34961-0.29199,2.43652-0.91943,3.42188c-0.65527,1.03027-1.50977,1.88477-2.52295,2.53027
		c-1.08643,0.63379-2.17871,0.92871-3.43848,0.92871c-1.20654,0-2.3335-0.28125-3.34766-0.83496
		c-0.71875-0.39941-1.36719-0.93164-1.89404-1.55273L170.0842,45.7275z M236.36105,62.21334h20.08252v4.28027h-24.36328V34.97213
		h4.28076V62.21334z M196.54904,50.73434l12.16699,15.76025h-5.48535l-9.40527-12.24707l-9.46924,12.24707h-5.26855
		l12.01025-15.76025l-12.01025-15.76025h5.26807l9.46973,12.24658l9.40527-12.24658h5.48535L196.54904,50.73434z
		 M312.95529,50.04342c0.55762-0.50342,1.04395-1.09082,1.47559-1.78271c0.84082-1.36621,1.2666-2.85938,1.2666-4.4375
		c0-1.70996-0.42578-3.27002-1.2666-4.63672c-0.83691-1.35986-2.00586-2.42627-3.58301-3.26709
		c-1.25684-0.62842-2.9375-0.94727-4.99512-0.94727h-12.92773v31.52148h13.4248c1.3584,0,2.46973-0.10547,3.30273-0.3125
		c0.71484-0.17969,1.50879-0.45605,2.40137-0.84082c1.33398-0.7168,2.5-1.84473,3.37109-3.26074
		c0.84082-1.36621,1.26758-2.92676,1.26758-4.63574c0-1.92773-0.55176-3.61816-1.66895-5.14062
		C314.42209,51.35787,313.75412,50.62691,312.95529,50.04342z M312.21994,54.81783c0.5,0.75,0.71387,1.5332,0.71387,2.61719
		c0,0.86914-0.25391,1.78613-0.73535,2.65137c-0.41309,0.74609-1,1.30176-1.88281,1.79199
		c-0.33887,0.16992-0.68652,0.25977-1.15625,0.35352c-0.55762,0.09277-1.33301,0.09277-2.31348,0.09277h-9.28223V52.644h9.88184
		c1.4248,0,2.30762,0.24902,2.79102,0.45605C311.03732,53.45553,311.75705,54.0776,312.21994,54.81783z M311.23849,46.15426
		c-0.5498,0.73242-1.19629,1.2876-1.9209,1.6499l-0.02441,0.01318c-0.60059,0.34375-1.61133,0.53271-2.84668,0.53271h-8.88281
		v-9.18115h8.18457c2.06445,0,2.99316,0.19775,3.39062,0.35596c0.78711,0.34961,1.42188,0.87061,1.99902,1.64014
		c0.49609,0.66113,0.69824,1.4126,0.69824,2.59473C311.83615,44.72506,311.63303,45.51949,311.23849,46.15426z M342.81662,46.62447
		v-1.38965c0-1.32764-0.33984-2.53418-1.00879-3.58643c-0.64551-1.01465-1.56836-1.8418-2.66895-2.3916
		c-1.0791-0.53955-2.47461-0.83691-3.92773-0.83691c-1.15723,0-2.33203,0.21191-3.69629,0.66602
		c-0.95898,0.34912-1.89258,0.98242-2.5498,1.7334c-0.58984,0.67432-0.86523,1.54346-0.86523,2.73486
		c0,0.96338,0.25684,1.72998,0.74316,2.2168c0.60156,0.60107,1.3916,1.06689,2.48633,1.46533
		c1.18066,0.39258,2.95508,0.80615,4.98047,1.2666c1.91113,0.41602,3.7207,0.88525,5.375,1.39404
		c1.47754,0.52734,2.74219,1.37061,3.78125,2.51465c1.07422,1.28809,1.6123,2.99219,1.6123,5.08008
		c0,2.1543-0.55176,3.9043-1.6875,5.34961c-1.14648,1.35449-2.60742,2.39941-4.35449,3.11914
		c-1.67773,0.69043-3.51855,1.02637-5.62695,1.02637c-2.36719,0-4.50586-0.46875-6.54004-1.43164
		c-2.07617-1.0918-3.56348-2.44727-4.56641-4.15234c-1.04395-1.77539-1.55176-3.73438-1.55176-5.9873v-1.38965h4.06445v1.38965
		c0,1.42969,0.34277,2.74219,1.01855,3.90039c0.64258,1.10156,1.5498,1.91895,2.85645,2.57227
		c1.1582,0.62305,2.70801,0.93555,4.61914,0.93555c2.14551,0,4.02539-0.54785,5.4375-1.58398
		c1.34473-0.98535,1.9707-2.20801,1.9707-3.84668c0-1.15625-0.19824-1.87012-0.64453-2.31543
		c-0.63086-0.63086-1.26758-1.01953-2.06348-1.25879c-0.91895-0.36523-2.44043-0.74414-4.69434-1.17383
		c-2.74902-0.57227-4.57324-1.06787-5.92383-1.6084c-1.63281-0.61182-3.00586-1.55273-3.95801-2.71777
		c-1.07324-1.28711-1.5957-2.81445-1.5957-4.66553c0-1.72754,0.50586-3.42725,1.46289-4.9165
		c1-1.44482,2.41016-2.56592,4.08594-3.25586c1.81348-0.74658,3.77344-1.125,5.82422-1.125
		c2.17969,0,4.20898,0.46436,5.86914,1.34277c1.77539,0.78857,3.24707,2.0835,4.34082,3.83447
		c1.0957,1.59326,1.65723,3.51758,1.65723,5.70166v1.38965H342.81662z M272.01291,34.97213l-13.04004,31.52148h4.36426
		l3.97656-9.64355h12.85059l3.97754,9.64355h4.3584l-12.83496-31.52148H272.01291z M278.64963,52.54244h-9.29004l4.64453-11.35547
		L278.64963,52.54244z"/>
</g>
<g id="Layer_3">
	<g>
		<path class="st3" d="M39.83249,20.77399c-0.24538,0.0015-0.48757,0.05585-0.71006,0.15934v20.61552l20.77486-20.77486H39.83249z"
			/>
		<path class="st4" d="M38.62037,21.27606L21.2765,38.61993c-0.67003,0.67002-0.67004,1.75635-0.00002,2.42638
			c0.32176,0.32177,0.75817,0.50253,1.21321,0.50253h16.63273V20.93333C38.93594,21.01665,38.7659,21.13273,38.62037,21.27606z"/>
		<polygon class="st5" points="59.89736,41.54881 59.89736,20.77409 39.1223,41.54881 39.1223,41.54881 		"/>
		<polygon class="st6" points="39.1223,41.54881 39.1223,62.32387 59.89736,41.54881 		"/>
		<path class="st7" d="M39.12243,62.3237h20.61552c0.10347-0.22242,0.1578-0.46452,0.15932-0.70982V41.54884L39.12243,62.32368
			V62.3237z"/>
		<path class="st8" d="M80.55948,20.88666c-0.1908-0.07295-0.39314-0.11112-0.5974-0.11267h-20.0648v20.77486L80.55948,20.88666z"/>
		<path class="st9" d="M80.67214,20.93333c-0.03716-0.01696-0.07439-0.03239-0.11266-0.04667l-20.6622,20.66219h20.77486V20.93333z"
			/>
		<path class="st10" d="M59.73795,62.3237H39.12243V78.9601c0,0.94673,0.76749,1.7142,1.71421,1.7142
			c0.45463-0.00001,0.89064-0.1806,1.21211-0.50208l17.34657-17.34659C59.53859,62.68013,59.65463,62.51014,59.73795,62.3237z"/>
		<path class="st11" d="M70.28471,41.54885h10.38742V20.93333c-0.02179-0.00994-0.04398-0.01838-0.066-0.02733L70.28471,41.54885z"
			/>
		<path class="st12" d="M80.67215,58.18803c0,0.94609,0.76696,1.71305,1.71306,1.71305c0.45432,0,0.89005-0.18048,1.2113-0.50174
			l16.63838-16.63838c0.32198-0.32114,0.50266-0.75737,0.50208-1.21212H80.67215V58.18803z"/>
		<path class="st13" d="M81.17422,21.27606c-0.14553-0.14333-0.31558-0.25941-0.50208-0.34274v20.61552h20.06482
			c0.00059-0.45475-0.1801-0.89098-0.50208-1.21212L81.17422,21.27606z"/>
	</g>
</g>
</svg>
