<?xml version="1.0" encoding="UTF-8"?>
<svg xmlns="http://www.w3.org/2000/svg" viewBox="0 0 367.8523 101.44914">
  <defs>
    <style>
      .cls-1 {
        fill: #0024a5;
      }

      .cls-2 {
        fill: #0085ba;
      }

      .cls-3 {
        fill: #fff;
      }

      .cls-4 {
        fill: #1640e5;
      }

      .cls-5 {
        fill: #2294e3;
      }

      .cls-6 {
        fill: #1362ba;
      }

      .cls-7 {
        fill: #09a8f9;
      }

      .cls-8 {
        fill: #1d3cd2;
      }

      .cls-9 {
        fill: #1969e3;
      }

      .cls-10 {
        fill: #3771ef;
      }

      .cls-11 {
        fill: #4571ec;
      }

      .cls-12 {
        fill: #4695d3;
      }
    </style>
  </defs>
  <g id="Wordmark">
    <g id="White">
      <path class="cls-3" d="M140.48702,36.3232c-1.81641-.90771-3.78174-1.34912-6.00879-1.34912h-12.96729v31.62012h4.2915v-8.77734h8.67578c2.26367,0,4.25195-.4209,5.90869-1.25,1.82715-.91309,3.4126-2.35352,4.58496-4.16504,1.09619-1.69385,1.67578-3.75391,1.67578-5.95654,0-2.36816-.55078-4.3208-1.66895-5.9458-1.14258-1.86963-2.61182-3.23584-4.4917-4.17627Zm1.76953,10.02246c0,1.42188-.37451,2.70459-1.12256,3.82715-.75537,1.22803-1.69678,2.05322-3.0083,2.61768-.8667,.48145-2.12842,.73535-3.64746,.73535h-8.67578v-14.26025h8.67578c1.36035,0,2.60645,.22266,3.69336,.65771,1.17676,.50439,2.12109,1.3335,2.9624,2.59521,.76562,1.24414,1.12256,2.46045,1.12256,3.82715Z"/>
      <path class="cls-3" d="M168.7546,35.84811l-.02002-.01221c-3.44629-1.93848-7.61621-1.93848-11.0625,0-1.6665,.9375-3.0376,2.30762-4.08008,4.08057-.96924,1.72266-1.46094,3.58398-1.46094,5.53174v10.57178c0,1.94824,.4917,3.80859,1.46045,5.53125,.93604,1.66504,2.30615,3.03711,4.08057,4.08105,1.72314,.96973,3.58447,1.46094,5.53125,1.46094s3.80811-.49121,5.53125-1.46094c1.66699-.93848,3.03857-2.30859,4.08105-4.08105,.96875-1.72266,1.45996-3.58398,1.45996-5.53125v-10.57178c0-1.94727-.49121-3.80859-1.47217-5.55176-1.0332-1.65332-2.39551-3.01514-4.04883-4.04834Zm-.31055,5.20605l-12.22119,14.79395v-10.30029c0-1.29346,.31787-2.47705,.91943-3.42188,.65527-1.02979,1.50977-1.88428,2.52295-2.52979,1.10156-.64258,2.19287-.9292,3.53809-.9292,1.20605,0,2.3335,.28174,3.34814,.83496,.71826,.39893,1.36621,.93115,1.89258,1.55225Zm1.64014,4.67334v10.29248c0,1.34961-.29199,2.43652-.91943,3.42188-.65527,1.03027-1.50977,1.88477-2.52295,2.53027-1.08643,.63379-2.17871,.92871-3.43848,.92871-1.20654,0-2.3335-.28125-3.34766-.83496-.71875-.39941-1.36719-.93164-1.89404-1.55273l12.12256-14.78564Z"/>
      <polygon class="cls-3" points="236.36105 34.97213 232.08028 34.97213 232.08028 66.49361 256.44357 66.49361 256.44357 62.21334 236.36105 62.21334 236.36105 34.97213"/>
      <polygon class="cls-3" points="208.71603 34.97408 203.23068 34.97408 193.8254 47.22066 184.35568 34.97408 179.08761 34.97408 191.09786 50.73434 179.08761 66.49459 184.35616 66.49459 193.8254 54.24752 203.23068 66.49459 208.71603 66.49459 196.54903 50.73434 208.71603 34.97408"/>
      <path class="cls-3" d="M312.95528,50.04342c.55762-.50342,1.04395-1.09082,1.47559-1.78271,.84082-1.36621,1.2666-2.85938,1.2666-4.4375,0-1.70996-.42578-3.27002-1.2666-4.63672-.83691-1.35986-2.00586-2.42627-3.58301-3.26709-1.25684-.62842-2.9375-.94727-4.99512-.94727h-12.92773v31.52148h13.4248c1.3584,0,2.46973-.10547,3.30273-.3125,.71484-.17969,1.50879-.45605,2.40137-.84082,1.33398-.7168,2.5-1.84473,3.37109-3.26074,.84082-1.36621,1.26758-2.92676,1.26758-4.63574,0-1.92773-.55176-3.61816-1.66895-5.14062-.60156-.94531-1.26953-1.67627-2.06836-2.25977Zm-.73535,4.77441c.5,.75,.71387,1.5332,.71387,2.61719,0,.86914-.25391,1.78613-.73535,2.65137-.41309,.74609-1,1.30176-1.88281,1.79199-.33887,.16992-.68652,.25977-1.15625,.35352-.55762,.09277-1.33301,.09277-2.31348,.09277h-9.28223v-9.68066h9.88184c1.4248,0,2.30762,.24902,2.79102,.45605,.80078,.35547,1.52051,.97754,1.9834,1.71777Zm-.98145-8.66357c-.5498,.73242-1.19629,1.2876-1.9209,1.6499l-.02441,.01318c-.60059,.34375-1.61133,.53271-2.84668,.53271h-8.88281v-9.18115h8.18457c2.06445,0,2.99316,.19775,3.39062,.35596,.78711,.34961,1.42188,.87061,1.99902,1.64014,.49609,.66113,.69824,1.4126,.69824,2.59473,0,.96533-.20312,1.75977-.59766,2.39453Z"/>
      <path class="cls-3" d="M347.07833,46.62447v-1.38965c0-2.18408-.56152-4.1084-1.65723-5.70166-1.09375-1.75098-2.56543-3.0459-4.34082-3.83447-1.66016-.87842-3.68945-1.34277-5.86914-1.34277-2.05078,0-4.01074,.37842-5.82422,1.125-1.67578,.68994-3.08594,1.81104-4.08594,3.25586-.95703,1.48926-1.46289,3.18896-1.46289,4.9165,0,1.85107,.52246,3.37842,1.5957,4.66553,.95215,1.16504,2.3252,2.10596,3.95801,2.71777,1.35059,.54053,3.1748,1.03613,5.92383,1.6084,2.25391,.42969,3.77539,.80859,4.69434,1.17383,.7959,.23926,1.43262,.62793,2.06348,1.25879,.44629,.44531,.64453,1.15918,.64453,2.31543,0,1.63867-.62598,2.86133-1.9707,3.84668-1.41211,1.03613-3.29199,1.58398-5.4375,1.58398-1.91113,0-3.46094-.3125-4.61914-.93555-1.30664-.65332-2.21387-1.4707-2.85645-2.57227-.67578-1.1582-1.01855-2.4707-1.01855-3.90039v-1.38965h-4.06445v1.38965c0,2.25293,.50781,4.21191,1.55176,5.9873,1.00293,1.70508,2.49023,3.06055,4.56641,4.15234,2.03418,.96289,4.17285,1.43164,6.54004,1.43164,2.1084,0,3.94922-.33594,5.62695-1.02637,1.74707-.71973,3.20801-1.76465,4.35449-3.11914,1.13574-1.44531,1.6875-3.19531,1.6875-5.34961,0-2.08789-.53809-3.79199-1.6123-5.08008-1.03906-1.14404-2.30371-1.9873-3.78125-2.51465-1.6543-.50879-3.46387-.97803-5.375-1.39404-2.02539-.46045-3.7998-.87402-4.98047-1.2666-1.09473-.39844-1.88477-.86426-2.48633-1.46533-.48633-.48682-.74316-1.25342-.74316-2.2168,0-1.19141,.27539-2.06055,.86523-2.73486,.65723-.75098,1.59082-1.38428,2.5498-1.7334,1.36426-.4541,2.53906-.66602,3.69629-.66602,1.45312,0,2.84863,.29736,3.92773,.83691,1.10059,.5498,2.02344,1.37695,2.66895,2.3916,.66895,1.05225,1.00879,2.25879,1.00879,3.58643v1.38965h4.26172Z"/>
      <path class="cls-3" d="M272.0129,34.97213l-13.04004,31.52148h4.36426l3.97656-9.64355h12.85059l3.97754,9.64355h4.3584l-12.83496-31.52148h-3.65234Zm6.63672,17.57031h-9.29004l4.64453-11.35547,4.64551,11.35547Z"/>
    </g>
  </g>
  <g id="Layer_3" data-name="Layer 3">
    <g>
      <path class="cls-7" d="M39.83249,20.77399c-.24538,.0015-.48757,.05584-.71007,.15934v20.61552l20.77486-20.77486h-20.06479Z"/>
      <path class="cls-2" d="M38.62037,21.27606l-17.34387,17.34387c-.67003,.67002-.67004,1.75635-.00002,2.42638,.32176,.32177,.75817,.50253,1.21321,.50253h16.63273V20.93333c-.18649,.08333-.35653,.19941-.50205,.34274Z"/>
      <polygon class="cls-9" points="59.89736 41.5488 59.89736 20.77409 39.12229 41.5488 39.12229 41.5488 59.89736 41.5488"/>
      <polygon class="cls-5" points="39.12229 41.5488 39.12229 62.32387 59.89736 41.5488 39.12229 41.5488"/>
      <path class="cls-6" d="M39.12242,62.3237h20.61552c.10347-.22242,.1578-.46452,.15932-.70983v-20.06504l-20.77484,20.77484v.00002Z"/>
      <path class="cls-10" d="M80.55948,20.88666c-.1908-.07296-.39313-.11112-.5974-.11267h-20.06479v20.77486l20.66219-20.66219Z"/>
      <path class="cls-8" d="M80.67215,20.93333c-.03716-.01696-.07439-.03239-.11267-.04667l-20.6622,20.66219h20.77486V20.93333Z"/>
      <path class="cls-12" d="M59.73795,62.3237h-20.61552v16.63639c0,.94673,.76749,1.7142,1.71421,1.71419,.45463,0,.89063-.1806,1.21211-.50207l17.34657-17.34659c.14327-.1455,.25932-.31549,.34263-.50192Z"/>
      <path class="cls-1" d="M70.28472,41.54885h10.38742V20.93333c-.02179-.00994-.04399-.01838-.066-.02733l-10.32142,20.64285Z"/>
      <path class="cls-4" d="M80.67215,58.18803c0,.94609,.76696,1.71305,1.71305,1.71305,.45432,0,.89005-.18048,1.2113-.50173l16.63838-16.63838c.32198-.32114,.50267-.75737,.50208-1.21212h-20.06482v16.63918Z"/>
      <path class="cls-11" d="M81.17423,21.27606c-.14553-.14333-.31559-.25941-.50208-.34274v20.61552h20.06482c.00059-.45475-.1801-.89098-.50208-1.21212l-19.06066-19.06066Z"/>
    </g>
  </g>
</svg>