<?xml version="1.0" encoding="UTF-8"?>
<svg xmlns="http://www.w3.org/2000/svg" viewBox="0 0 160.21234 113.6612">
  <defs>
    <style>
      .cls-1 {
        fill: #0024a5;
      }

      .cls-2 {
        fill: #0085ba;
      }

      .cls-3 {
        fill: #1640e5;
      }

      .cls-4 {
        fill: #2294e3;
      }

      .cls-5 {
        fill: #1362ba;
      }

      .cls-6 {
        fill: #09a8f9;
      }

      .cls-7 {
        fill: #1d3cd2;
      }

      .cls-8 {
        fill: #1969e3;
      }

      .cls-9 {
        fill: #3771ef;
      }

      .cls-10 {
        fill: #4571ec;
      }

      .cls-11 {
        fill: #4695d3;
      }
    </style>
  </defs>
  <g id="wordmark">
    <g id="black">
      <path d="M26.96691,80.3436c-1.02894-.51419-2.14225-.76424-3.4038-.76424h-7.34558v17.91186h2.43101v-4.97211h4.91457c1.2823,0,2.40861-.23842,3.3471-.70809,1.03503-.51724,1.93313-1.33319,2.59724-2.35936,.62096-.95952,.94928-2.12648,.94928-3.3742,0-1.3415-.31201-2.44762-.94541-3.36813-.64723-1.0591-1.47952-1.83302-2.54441-2.36574Zm1.00239,5.67743c0,.80545-.21215,1.53207-.6359,2.16797-.42789,.69564-.96118,1.16309-1.70411,1.48284-.49096,.27273-1.20569,.41656-2.06618,.41656h-4.91457v-8.078h4.91457c.77059,0,1.47647,.12612,2.09218,.37257,.6666,.28572,1.20154,.75539,1.67811,1.47012,.4337,.70476,.6359,1.39376,.6359,2.16795Z"/>
      <path d="M42.97966,80.07447l-.01135-.00691c-1.95222-1.09809-4.31436-1.09809-6.26658,0-.94403,.53107-1.72071,1.3072-2.31124,2.31153-.54904,.97583-.82757,2.03022-.82757,3.13357v5.9886c0,1.10362,.27853,2.15746,.8273,3.13329,.53024,.94319,1.30637,1.72044,2.31152,2.3118,.97611,.54932,2.03049,.82757,3.13329,.82757s2.15718-.27826,3.13329-.82757c.9443-.53162,1.72126-1.30776,2.3118-2.3118,.54877-.97583,.82702-2.03022,.82702-3.13329v-5.9886c0-1.10307-.27825-2.15746-.83394-3.1449-.58528-.93657-1.35699-1.70801-2.29354-2.29328Zm-.17592,2.94908l-6.92295,8.38033v-5.83481c0-.7327,.18006-1.40317,.52083-1.93839,.37119-.58334,.85523-1.06738,1.42918-1.43305,.624-.36401,1.24219-.52636,2.00423-.52636,.68319,0,1.32185,.15959,1.89662,.47298,.40686,.22598,.77391,.52746,1.07208,.8793Zm.92908,2.64731v5.83038c0,.76451-.16541,1.38022-.52083,1.93839-.37119,.58362-.85523,1.06766-1.42918,1.43332-.61543,.35903-1.23417,.52608-1.9478,.52608-.68347,0-1.32186-.15932-1.89635-.47298-.40715-.22625-.77447-.52774-1.07292-.87958l6.86708-8.37562Z"/>
      <polygon points="81.2767 79.57825 78.85178 79.57825 78.85178 97.43424 92.65286 97.43424 92.65286 95.00959 81.2767 95.00959 81.2767 79.57825"/>
      <polygon points="65.61662 79.57935 62.50933 79.57935 57.18152 86.51669 51.8172 79.57935 48.833 79.57935 55.63645 88.50707 48.833 97.43479 51.81747 97.43479 57.18152 90.49719 62.50933 97.43479 65.61662 97.43479 58.72438 88.50707 65.61662 79.57935"/>
      <path d="M124.66508,88.11569c.31588-.28518,.59137-.61792,.83588-1.00985,.47629-.77392,.7175-1.61975,.7175-2.51372,0-.96863-.24121-1.85237-.7175-2.62656-.47409-.77033-1.13626-1.37441-2.02967-1.85071-.71196-.35598-1.66401-.5366-2.8296-.5366h-7.32318v17.85599h7.60476c.7695,0,1.39903-.05976,1.87091-.17703,.40493-.10179,.85468-.25834,1.36029-.47629,.75567-.40604,1.41617-1.04498,1.90963-1.84711,.47631-.77392,.71805-1.65792,.71805-2.62602,0-1.09201-.31255-2.04958-.94542-2.91201-.34076-.53548-.71915-.94955-1.17166-1.28008Zm-.41656,2.70456c.28323,.42485,.40439,.86852,.40439,1.48256,0,.49234-.14384,1.0118-.41656,1.50192-.234,.42263-.56647,.73741-1.06656,1.0151-.19196,.09626-.38889,.14715-.65498,.20025-.31586,.05256-.75511,.05256-1.31052,.05256h-5.25811v-5.48381h5.59776c.80713,0,1.3072,.14106,1.58103,.25834,.45362,.20136,.86133,.55374,1.12354,.97307Zm-.55596-4.90766c-.31145,.4149-.67766,.72938-1.08813,.93463l-.01384,.00745c-.34022,.19473-.91277,.30177-1.61255,.30177h-5.03185v-5.20085h4.63632c1.16945,0,1.69554,.11202,1.9207,.20164,.44587,.19805,.80545,.49318,1.13238,.92909,.28102,.37451,.39553,.80019,.39553,1.46984-.00001,.54684-.11507,.99687-.33856,1.35643Z"/>
      <path d="M143.99478,86.17896v-.7872c0-1.23721-.31809-2.32728-.93877-3.22982-.61957-.99188-1.45324-1.72541-2.45895-2.17212-.94043-.4976-2.08996-.76064-3.32469-.76064-1.1617,0-2.27197,.21436-3.29925,.63728-.94927,.39083-1.74809,1.0259-2.31456,1.84436-.54213,.84362-.82869,1.80646-.82869,2.78505,0,1.04858,.29596,1.91377,.90392,2.64287,.53938,.65996,1.31716,1.19296,2.2421,1.53954,.76508,.30619,1.79843,.58693,3.35568,.91111,1.27678,.2434,2.13865,.45804,2.6592,.66494,.45085,.13553,.81154,.3557,1.16891,.71307,.2528,.25225,.36511,.65664,.36511,1.31162,0,.92826-.3546,1.62086-1.11635,2.17903-.79991,.58694-1.86482,.89728-3.08019,.89728-1.08259,0-1.96052-.17703-2.6166-.52996-.74018-.37009-1.25409-.83311-1.6181-1.45711-.3828-.65609-.57697-1.39958-.57697-2.20946v-.7872h-2.3024v.7872c0,1.27622,.28767,2.38593,.87904,3.39163,.56812,.96588,1.41064,1.73371,2.58672,2.35218,1.15231,.54545,2.36381,.81099,3.70474,.81099,1.19436,0,2.23712-.1903,3.1875-.5814,.98967-.4077,1.81725-.99961,2.4667-1.7669,.64337-.81873,.95592-1.81005,.95592-3.0304,0-1.18273-.30481-2.14805-.91332-2.87771-.5886-.64805-1.30498-1.12575-2.14197-1.42448-.9371-.28821-1.96217-.55402-3.04478-.78969-1.14732-.26082-2.15247-.4951-2.82128-.71749-.62014-.22571-1.06767-.48957-1.40843-.83007-.2755-.27577-.42099-.71003-.42099-1.25575,0-.6749,.15601-1.16724,.49013-1.54922,.3723-.42541,.90116-.78414,1.44439-.98191,.77281-.25723,1.4383-.37727,2.09384-.37727,.82315,0,1.61367,.16844,2.22495,.47409,.62345,.31145,1.14621,.78,1.51188,1.35477,.37894,.59607,.57145,1.27954,.57145,2.0316v.7872s2.41414,0,2.41414,0Z"/>
      <path d="M101.47243,79.57825l-7.3868,17.85599h2.47223l2.2526-5.46278h7.27949l2.25315,5.46278h2.46891l-7.27063-17.85599h-2.06896Zm3.7595,9.95306h-5.26253l2.63098-6.43254,2.63155,6.43254Z"/>
    </g>
  </g>
  <g id="Layer_3" data-name="Layer 3">
    <g id="Layer_3-2" data-name="Layer 3">
      <g>
        <path class="cls-6" d="M63.64601,16.21756c-.19304,.00118-.38357,.04393-.55861,.12535v16.21826l16.34361-16.34361h-15.785Z"/>
        <path class="cls-2" d="M62.69244,16.61254l-13.64445,13.64445c-.52711,.52711-.52712,1.38172-.00002,1.90884,.25313,.25314,.59645,.39534,.95443,.39534h13.08499V16.34292c-.14671,.06556-.28048,.15688-.39497,.26963Z"/>
        <polygon class="cls-8" points="79.43108 32.56114 79.43108 16.21764 63.0873 32.56114 63.0873 32.56114 79.43108 32.56114"/>
        <polygon class="cls-4" points="63.0873 32.56114 63.0873 48.90491 79.43108 32.56114 63.0873 32.56114"/>
        <path class="cls-5" d="M63.0874,48.90478h16.21826c.0814-.17498,.12414-.36544,.12534-.55843v-15.78519l-16.3436,16.3436v.00002h0Z"/>
        <path class="cls-9" d="M95.68599,16.3062c-.15011-.0574-.30927-.08742-.46997-.08864h-15.785v16.34361s16.25497-16.25497,16.25497-16.25497Z"/>
        <path class="cls-7" d="M95.77463,16.34292c-.02924-.01334-.05852-.02548-.08864-.03672l-16.25498,16.25497h16.34361V16.34292h.00001Z"/>
        <path class="cls-11" d="M79.30567,48.90478h-16.21826v13.08787c0,.74479,.60379,1.34857,1.34857,1.34855,.35766,0,.70066-.14208,.95357-.39498l13.64657-13.64658c.11271-.11447,.20401-.2482,.26955-.39486Z"/>
        <path class="cls-1" d="M87.60283,32.56117h8.1718V16.34292c-.01714-.00782-.03461-.01446-.05192-.0215l-8.11987,16.23976Z"/>
        <path class="cls-3" d="M95.77463,45.65124c0,.74429,.60337,1.34766,1.34766,1.34766,.35742,0,.70021-.14198,.95293-.39471l13.08944-13.08943c.2533-.25264,.39545-.59582,.39499-.95358h-15.78502v13.09006Z"/>
        <path class="cls-10" d="M96.16962,16.61254c-.11449-.11276-.24828-.20408-.39499-.26963v16.21826h15.78502c.00046-.35775-.14168-.70093-.39499-.95358,0,0-14.99505-14.99505-14.99504-14.99505Z"/>
      </g>
    </g>
  </g>
</svg>