<svg id="Layer_2" data-name="Layer 2" xmlns="http://www.w3.org/2000/svg" viewBox="0 0 300 300"><defs><style>.cls-1{fill:#09a8f9;}.cls-2{fill:#0085ba;}.cls-3{fill:#1969e3;}.cls-4{fill:#2294e3;}.cls-5{fill:#1362ba;}.cls-6{fill:#3771ef;}.cls-7{fill:#1d3cd2;}.cls-8{fill:#4695d3;}.cls-9{fill:#0024a5;}.cls-10{fill:#1640e5;}.cls-11{fill:#4571ec;}</style></defs><title>Symbol-SolidColor</title><path class="cls-1" d="M91.41765,66.1307a4.78367,4.78367,0,0,0-1.98828.44617v57.72625L147.60179,66.1307Z"/><path class="cls-2" d="M88.02355,67.53658,39.45836,116.10177a4.80422,4.80422,0,0,0,3.3971,8.20135H89.42937V66.57687A4.78531,4.78531,0,0,0,88.02355,67.53658Z"/><polygon class="cls-3" points="147.602 124.303 147.602 66.131 89.429 124.303 89.429 124.303 147.602 124.303"/><polygon class="cls-4" points="89.429 124.303 89.429 182.476 147.602 124.303 89.429 124.303"/><path class="cls-5" d="M89.42937,182.47554h57.72626a4.78258,4.78258,0,0,0,.4461-1.98761V124.30311L89.42937,182.47548Z"/><path class="cls-6" d="M205.45873,66.44619a4.78561,4.78561,0,0,0-1.67279-.31549H147.60179v58.17242Z"/><path class="cls-7" d="M205.77422,66.57687c-.10407-.04749-.20831-.0907-.31549-.13068l-57.85694,57.85693h58.17243Z"/><path class="cls-8" d="M147.15563,182.47554H89.42937V229.0597a4.8,4.8,0,0,0,8.19409,3.39411L146.19622,183.881A4.7862,4.7862,0,0,0,147.15563,182.47554Z"/><path class="cls-9" d="M176.688,124.30312h29.08618V66.57687c-.061-.02784-.12317-.05146-.18482-.07654Z"/><path class="cls-10" d="M205.77423,170.89509a4.79678,4.79678,0,0,0,8.1886,3.39184l46.58972-46.58972a4.78492,4.78492,0,0,0,1.40588-3.3941h-56.1842Z"/><path class="cls-11" d="M207.18011,67.53658a4.78636,4.78636,0,0,0-1.40588-.95971v57.72625h56.1842a4.785,4.785,0,0,0-1.40588-3.3941Z"/></svg>